<svg xmlns="http://www.w3.org/2000/svg" width="82.573" height="93.473" viewBox="0 0 82.573 93.473">
    <defs>
        <style>
            .cls-1{fill:#ffd400}
        </style>
    </defs>
    <g id="Grupo_5150" transform="translate(-765.752 -1485.527)">
        <path id="Trazado_1582" d="M420.326 53.33l-5-5.03-5.03 5.065 5.03 5.03z" class="cls-1" transform="translate(428 1509.354)"/>
        <path id="Trazado_1581" d="M269.168 85.5a3.287 3.287 0 1 0-3.608-2.931 3.288 3.288 0 0 0 3.608 2.931z" class="cls-1" transform="translate(500.211 1443.39)"/>
        <g id="Elipse_237" fill="none" stroke="#ffd400" stroke-width="2px" transform="translate(838 1488)">
            <circle cx="5" cy="5" r="5" stroke="none"/>
            <circle cx="5" cy="5" r="4"/>
        </g>
        <rect id="Rectángulo_1929" width="31" height="34" fill="#d9000d" rx="5" transform="translate(792 1500)"/>
        <g id="noun_placement_for_ads_2454708" transform="translate(753 1485.527)">
            <path id="Trazado_3500" d="M71.671 18h-27.75A2.921 2.921 0 0 0 41 20.921v30.671a2.921 2.921 0 0 0 2.921 2.921h27.75a2.921 2.921 0 0 0 2.921-2.921V20.921A2.921 2.921 0 0 0 71.671 18zm0 33.592h-27.75V20.921h27.75z" transform="translate(-3.237 -4.855)"/>
            <path id="Trazado_3501" d="M78.657 90.552h-8.763V78.868h2.921a4.386 4.386 0 0 0 4.385-4.382v-62.8A4.386 4.386 0 0 0 72.815 7.3h-2.19V2.921h5.112a1.461 1.461 0 0 0 0-2.921H33.382a1.461 1.461 0 0 0 0 2.921h5.112V7.3H36.3a4.386 4.386 0 0 0-4.382 4.382v62.8a4.386 4.386 0 0 0 4.382 4.386h2.921v11.684h-8.76a1.461 1.461 0 0 0 0 2.921h48.2a1.461 1.461 0 0 0 0-2.921zM56.019 2.921H67.7V7.3H56.019zm-14.605 0H53.1V7.3H41.414zM36.3 75.947a1.461 1.461 0 0 1-1.461-1.461v-62.8a1.461 1.461 0 0 1 1.461-1.462h36.515a1.461 1.461 0 0 1 1.461 1.461v62.8a1.461 1.461 0 0 1-1.461 1.461zm30.673 14.605H42.145V78.868h24.828z"/>
            <path id="Trazado_3502" d="M72.44 74H43.961a1.461 1.461 0 0 0 0 2.921H72.44a1.461 1.461 0 0 0 0-2.921z" transform="translate(-3.642 -19.961)"/>
            <path id="Trazado_3503" d="M72.44 84H43.961a1.461 1.461 0 0 0 0 2.921H72.44a1.461 1.461 0 0 0 0-2.921z" transform="translate(-3.642 -22.659)"/>
            <path id="Trazado_3504" d="M72.44 94H43.961a1.461 1.461 0 0 0 0 2.921H72.44a1.461 1.461 0 0 0 0-2.921z" transform="translate(-3.642 -25.356)"/>
        </g>
    </g>
</svg>
