<svg width="20" height="20" viewBox="0 0 20 20" fill="none" xmlns="http://www.w3.org/2000/svg">
<g id="add">
<mask id="mask0_358_52" style="mask-type:alpha" maskUnits="userSpaceOnUse" x="0" y="0" width="20" height="20">
<rect id="Bounding box" width="20" height="20" fill="#D9D9D9"/>
</mask>
<g mask="url(#mask0_358_52)">
<path id="add_2" d="M9.99971 15.625C9.82254 15.625 9.67413 15.5651 9.55448 15.4453C9.43483 15.3255 9.375 15.1771 9.375 15V10.625H4.99998C4.8229 10.625 4.67447 10.5651 4.55469 10.4452C4.4349 10.3254 4.375 10.1769 4.375 9.99974C4.375 9.82257 4.4349 9.67416 4.55469 9.55451C4.67447 9.43486 4.8229 9.37503 4.99998 9.37503H9.375V5.00001C9.375 4.82293 9.43492 4.67449 9.55475 4.5547C9.6746 4.43492 9.8231 4.37503 10.0003 4.37503C10.1774 4.37503 10.3258 4.43492 10.4455 4.5547C10.5651 4.67449 10.625 4.82293 10.625 5.00001V9.37503H15C15.1771 9.37503 15.3255 9.43495 15.4453 9.55478C15.5651 9.67463 15.625 9.82313 15.625 10.0003C15.625 10.1774 15.5651 10.3259 15.4453 10.4455C15.3255 10.5652 15.1771 10.625 15 10.625H10.625V15C10.625 15.1771 10.565 15.3255 10.4452 15.4453C10.3254 15.5651 10.1769 15.625 9.99971 15.625Z" fill="#343A40"/>
</g>
</g>
</svg>
