<svg id="Capa_1" data-name="Capa 1" xmlns="http://www.w3.org/2000/svg" viewBox="0 0 46.21 21.35"><defs><style>.cls-1{fill:#67a8f3;}.cls-2{fill:#558ddb;}.cls-3{fill:#4070bc;}</style></defs><g id="business"><path id="Trazado_466" data-name="Trazado 466" class="cls-1" d="M5.5,7.27H7L6.23,5.43Z"/><path id="Trazado_467" data-name="Trazado 467" class="cls-2" d="M23.46,5.69a1.13,1.13,0,0,0-.52-.06H21.62v1h1.32a1.29,1.29,0,0,0,.52-.07.49.49,0,0,0,.2-.46A.36.36,0,0,0,23.46,5.69Z"/><path id="Trazado_468" data-name="Trazado 468" class="cls-3" d="M37.54,3.72v.79l-.39-.79H34.06v.79l-.4-.79H29.45a4,4,0,0,0-1.84.39V3.72h-3v.39a1.94,1.94,0,0,0-1.25-.39H12.81l-.73,1.64-.72-1.64H8v.79l-.39-.79H4.78L3.46,6.81,2,10.23H5.31L5.7,9.18h.92L7,10.23h3.81V9.44l.33.79h1.91l.33-.79v.79h9.14V8.52h.14c.13,0,.13,0,.13.2v1.44h4.73V9.77a4,4,0,0,0,1.78.39h2l.4-1.05h.92l.4,1.05h3.81v-1l.59,1h3.1V3.72ZM15.31,9.24H14.19V5.63L12.61,9.24h-1L10,5.63V9.24H7.81l-.47-1H5.11l-.4,1.05H3.46l2-4.67H7.08L8.92,9.05V4.64H10.7L12.15,7.8l1.31-3.16h1.85Zm4.47-3.61H17.21v.85h2.5V7.4h-2.5v.92h2.57v1H16.1V4.64h3.68Zm4.93,1.9a1.54,1.54,0,0,1,.2.86v.92H23.79V8.72a1.56,1.56,0,0,0-.2-.92c-.2-.2-.39-.2-.79-.2H21.62V9.31H20.5V4.64H23a2.39,2.39,0,0,1,1.32.2,1.13,1.13,0,0,1,.53,1,1.31,1.31,0,0,1-.79,1.25A1.28,1.28,0,0,1,24.71,7.53Zm2,1.71H25.57V4.57h1.12Zm13,0H38.07L36,5.76V9.24H33.73l-.4-1H31l-.39,1.05H29.39A2,2,0,0,1,27.2,7.57a2.09,2.09,0,0,1,0-.56,2.66,2.66,0,0,1,.59-1.84,2.06,2.06,0,0,1,1.64-.53h1.06v1H29.45a1.23,1.23,0,0,0-.85.26A1.51,1.51,0,0,0,28.27,7a1.37,1.37,0,0,0,.33,1.11,1,1,0,0,0,.78.27h.47l1.51-3.62H33l1.84,4.41V4.71h1.64L38.4,7.93V4.71h1.12V9.25Z"/><g id="Grupo_3944" data-name="Grupo 3944"><path id="Trazado_469" data-name="Trazado 469" class="cls-2" d="M31.42,7.27h1.52l-.73-1.84Z"/><path id="Trazado_470" data-name="Trazado 470" class="cls-2" d="M20.24,16.74V13l-1.71,1.85Z"/></g><path id="Trazado_471" data-name="Trazado 471" class="cls-1" d="M13.2,13.45v.86h2.43v.92H13.2v1h2.7l1.25-1.38L16,13.45Z"/><path id="SVGCleanerId_0" data-name="SVGCleanerId 0" class="cls-2" d="M22.74,13.45H21.36v1.19h1.45a.57.57,0,0,0,.65-.59A.66.66,0,0,0,22.74,13.45Z"/><path id="Trazado_472" data-name="Trazado 472" class="cls-3" d="M43.07,14.57v-3H40.31a2.16,2.16,0,0,0-1.39.4v-.4h-3a2.08,2.08,0,0,0-1.32.4v-.4H29.25V12a2.54,2.54,0,0,0-1.45-.4H24.25V12a2.53,2.53,0,0,0-1.51-.4H18.8l-.93,1-.85-1H11.1v6.45h5.79l.92-1,.85,1h3.55V16.55h.47a4.09,4.09,0,0,0,1.51-.2v1.77h3V16.41h.13c.2,0,.2,0,.2.2v1.52h9a2.6,2.6,0,0,0,1.51-.4v.4h2.83a3.07,3.07,0,0,0,1.58-.33h0a2.24,2.24,0,0,0,1-2A2.49,2.49,0,0,0,43.07,14.57Zm-20.4,1.06H21.35v1.58h-2.1l-1.32-1.52-1.38,1.52H12.21V12.53h4.41l1.31,1.52,1.38-1.52H22.8c.86,0,1.84.27,1.84,1.52s-1,1.58-2,1.58Zm6.58-.27a1.52,1.52,0,0,1,.2.86v.92H28.33v-.59a1.41,1.41,0,0,0-.2-.92c-.13-.2-.39-.2-.79-.2H26.16v1.71H25V12.47h2.5a2.61,2.61,0,0,1,1.32.2,1.18,1.18,0,0,1,.59,1.05A1.31,1.31,0,0,1,28.66,15a1.12,1.12,0,0,1,.59.39Zm4.54-1.9H31.22v.85h2.5v.92h-2.5v.92H33.8v1H30.11V12.47H33.8Zm2.76,3.68h-2.1v-1h2.1A.54.54,0,0,0,37,16a.47.47,0,0,0,0-.66.56.56,0,0,0-.39-.13c-1.06-.07-2.3,0-2.3-1.45,0-.65.39-1.38,1.58-1.38h2.17v1.12H36a.89.89,0,0,0-.46.07c-.13.06-.13.2-.13.32s.13.27.26.33a.75.75,0,0,0,.39.07h.6a1.72,1.72,0,0,1,1.25.39,1.38,1.38,0,0,1,.32,1c0,1-.58,1.45-1.7,1.45Zm5.66-.46a1.93,1.93,0,0,1-1.38.46H38.72v-1h2.11a.56.56,0,0,0,.46-.13.49.49,0,0,0,0-.66.57.57,0,0,0-.4-.13c-1-.07-2.3,0-2.3-1.45a1.38,1.38,0,0,1,1.58-1.38h2.17v1.12h-2a.91.91,0,0,0-.46.07c-.13.06-.13.2-.13.32s.06.27.26.33a.75.75,0,0,0,.39.07H41a1.72,1.72,0,0,1,1.25.39.07.07,0,0,1,.06.07h0a1.51,1.51,0,0,1,.27.92,1.32,1.32,0,0,1-.4,1Z"/><path id="SVGCleanerId_1" data-name="SVGCleanerId 1" class="cls-2" d="M28.07,13.59a1.36,1.36,0,0,0-.53-.07H26.23v1.05h1.31a1.19,1.19,0,0,0,.53-.06.52.52,0,0,0,.2-.46A.35.35,0,0,0,28.07,13.59Z"/><g id="Grupo_3945" data-name="Grupo 3945"><path id="Trazado_473" data-name="Trazado 473" class="cls-2" d="M23.46,5.69a1.13,1.13,0,0,0-.52-.06H21.62v1h1.32a1.29,1.29,0,0,0,.52-.07.49.49,0,0,0,.2-.46A.36.36,0,0,0,23.46,5.69Z"/><path id="Trazado_474" data-name="Trazado 474" class="cls-2" d="M31.42,7.27h1.52l-.73-1.84Z"/><path id="Trazado_475" data-name="Trazado 475" class="cls-2" d="M20.24,16.74V13l-1.71,1.85Z"/></g><g id="Grupo_3946" data-name="Grupo 3946"><path id="SVGCleanerId_0-2" data-name="SVGCleanerId 0" class="cls-2" d="M22.74,13.45H21.36v1.19h1.45a.57.57,0,0,0,.65-.59A.66.66,0,0,0,22.74,13.45Z"/></g><g id="Grupo_3947" data-name="Grupo 3947"><path id="SVGCleanerId_1-2" data-name="SVGCleanerId 1" class="cls-2" d="M28.07,13.59a1.36,1.36,0,0,0-.53-.07H26.23v1.05h1.31a1.19,1.19,0,0,0,.53-.06.52.52,0,0,0,.2-.46A.35.35,0,0,0,28.07,13.59Z"/></g><g id="Grupo_3948" data-name="Grupo 3948"><path id="Trazado_476" data-name="Trazado 476" class="cls-1" d="M22.28,17l-.92-1v1.12H19.19l-1.32-1.51-1.45,1.51H12.08V12.53h4.41l1.38,1.52.66-.79-1.64-1.65H11.1v6.45h5.79l1-1,.86,1h3.55Z"/><path id="Trazado_477" data-name="Trazado 477" class="cls-1" d="M15.44,10.17l-.86-.93h-.39V8.85l-1-1-.66,1.38h-.92L10,5.63V9.24H7.81l-.47-1H5.11l-.46,1H3.46l2-4.6H7.08L8.92,9.05V4.64h1L9,3.72H8v.79l-.33-.79H4.78L3.46,6.81,2,10.17H5.37l.4-1h.92l.46,1h3.68V9.38l.33.79h1.91l.33-.79v.79Z"/><path id="Trazado_478" data-name="Trazado 478" class="cls-1" d="M12.41,7.14l-1.05-1,.79,1.71Z"/></g><g id="Grupo_3949" data-name="Grupo 3949"><path id="Trazado_479" data-name="Trazado 479" class="cls-2" d="M42.35,17.73a2.4,2.4,0,0,0,1-1.77L42.48,15a2.15,2.15,0,0,1,.13.66,1.32,1.32,0,0,1-.4,1,1.92,1.92,0,0,1-1.38.46h-2.1v-1h2.1a.54.54,0,0,0,.46-.13.47.47,0,0,0,0-.66.56.56,0,0,0-.39-.13c-1-.06-2.3,0-2.3-1.45A1.38,1.38,0,0,1,40,12.4l-.72-.72c-.14.06-.2.13-.27.13v-.39H36a2,2,0,0,0-1.32.39v-.39H29.26v.39a2.55,2.55,0,0,0-1.45-.39H24.26v.39a2.46,2.46,0,0,0-1.52-.39H18.79l-.92,1-.85-1h-.73l2,2,1-1.05h3.49c.86,0,1.84.26,1.84,1.51s-.92,1.58-1.91,1.58H21.36v1l1,1v-1h.32a4.11,4.11,0,0,0,1.52-.2V18h3V16.28h.13c.2,0,.2,0,.2.2V18h9a2.59,2.59,0,0,0,1.51-.39V18h2.83a2.62,2.62,0,0,0,1.58-.26Zm-13.1-2.37a1.52,1.52,0,0,1,.2.86v.92H28.33v-.59a1.41,1.41,0,0,0-.2-.92c-.13-.2-.39-.2-.79-.2H26.16v1.71H25V12.47h2.5a2.61,2.61,0,0,1,1.32.2,1.14,1.14,0,0,1,.59,1.05A1.3,1.3,0,0,1,28.66,15a1.08,1.08,0,0,1,.59.39Zm4.54-1.9H31.23v.85h2.5v.92h-2.5v.92h2.56v1H30.11V12.47h3.68Zm2.77,3.68H34.45v-1h2.11A.56.56,0,0,0,37,16a.49.49,0,0,0,0-.66.57.57,0,0,0-.4-.13c-1-.07-2.3,0-2.3-1.45A1.38,1.38,0,0,1,35.9,12.4h2.17v1.12H36a.93.93,0,0,0-.46.07c-.13.06-.13.2-.13.32s.13.27.26.33a.79.79,0,0,0,.4.07h.59a1.72,1.72,0,0,1,1.25.39,1.39,1.39,0,0,1,.33,1C38.27,16.68,37.67,17.14,36.56,17.14Z"/><path id="Trazado_480" data-name="Trazado 480" class="cls-2" d="M39.71,13.92c0,.2.07.26.27.32a.75.75,0,0,0,.39.07H41a2,2,0,0,1,.93.2l-1-1h-.59a1,1,0,0,0-.46.07A.5.5,0,0,0,39.71,13.92Z"/><path id="Trazado_481" data-name="Trazado 481" class="cls-2" d="M37.41,10l.13.2h.07Z"/><path id="Trazado_482" data-name="Trazado 482" class="cls-2" d="M33.79,6.35l1.12,2.7V7.47Z"/><path id="Trazado_483" data-name="Trazado 483" class="cls-2" d="M22.54,8.52h.13c.14,0,.14,0,.14.2v1.45h4.73v-.4a4,4,0,0,0,1.78.4h2l.4-1.06h.92L33,10.17h3.82V9.51l-.92-.92v.72H33.66l-.33-1.05H31l-.39,1.05H29.39A2,2,0,0,1,27.2,7.57a2.1,2.1,0,0,1,0-.56,2.68,2.68,0,0,1,.59-1.84,2.09,2.09,0,0,1,1.65-.53h1.05v1H29.46a1.26,1.26,0,0,0-.86.26,1.54,1.54,0,0,0-.34,1.05,1.47,1.47,0,0,0,.33,1.12,1,1,0,0,0,.79.26h.46L31.36,4.7H32l-.92-.92H29.38a4,4,0,0,0-1.84.4v-.4H24.65v.4a1.89,1.89,0,0,0-1.25-.4H12.81l-.73,1.65-.72-1.65H8.46l.92.92H10.7l1.12,2.44.39.39L13.4,4.64h1.84V9.31H14.12V5.69L13,8.32l1.91,1.91h7.57Zm3-3.88h1.12V9.31H25.57Zm-5.79,1H17.21v.85h2.5V7.4h-2.5v.92h2.57v1H16.1V4.64h3.68Zm1.84,3.61H20.5V4.57H23a2.59,2.59,0,0,1,1.32.2,1.15,1.15,0,0,1,.53,1.06,1.32,1.32,0,0,1-.79,1.25.82.82,0,0,1,.52.39,1.61,1.61,0,0,1,.2.86v.92H23.66V8.66a1.59,1.59,0,0,0-.2-.93c-.06-.13-.26-.13-.65-.13H21.62V9.25Z"/></g></g></svg>