<svg width="24" height="25" viewBox="0 0 24 25" fill="none" xmlns="http://www.w3.org/2000/svg">
<g id="arrow_forward_ios">
<mask id="mask0_304_143" style="mask-type:alpha" maskUnits="userSpaceOnUse" x="0" y="0" width="24" height="25">
<rect id="Bounding box" y="0.5" width="24" height="24" fill="#D9D9D9"/>
</mask>
<g mask="url(#mask0_304_143)">
<path id="arrow_forward_ios_2" d="M7.15002 21.6C6.90002 21.35 6.77502 21.0542 6.77502 20.7125C6.77502 20.3708 6.90002 20.075 7.15002 19.825L14.475 12.5L7.12502 5.15C6.89169 4.91667 6.77502 4.625 6.77502 4.275C6.77502 3.925 6.90002 3.625 7.15002 3.375C7.40002 3.125 7.69586 3 8.03752 3C8.37919 3 8.67502 3.125 8.92502 3.375L17.325 11.8C17.425 11.9 17.4959 12.0083 17.5375 12.125C17.5792 12.2417 17.6 12.3667 17.6 12.5C17.6 12.6333 17.5792 12.7583 17.5375 12.875C17.4959 12.9917 17.425 13.1 17.325 13.2L8.90002 21.625C8.66669 21.8583 8.37919 21.975 8.03752 21.975C7.69586 21.975 7.40002 21.85 7.15002 21.6Z" fill="#D91D1C"/>
</g>
</g>
</svg>
