<svg xmlns="http://www.w3.org/2000/svg" width="91.573" height="100" viewBox="0 0 91.573 100">
    <defs>
        <style>
            .cls-1{fill:#ffd400}
        </style>
    </defs>
    <g id="Grupo_4487" transform="translate(-871.752 -1932)">
        <path id="Trazado_1587" d="M420.326 53.33l-5-5.03-5.03 5.065 5.03 5.03z" class="cls-1" transform="translate(543 1958.354)"/>
        <path id="Trazado_1586" d="M269.168 85.5a3.287 3.287 0 1 0-3.608-2.931 3.288 3.288 0 0 0 3.608 2.931z" class="cls-1" transform="translate(606.211 1905.39)"/>
        <g id="Elipse_238" fill="none" stroke="#ffd400" stroke-width="2px" transform="translate(912 1932)">
            <circle cx="5" cy="5" r="5" stroke="none"/>
            <circle cx="5" cy="5" r="4"/>
        </g>
        <g id="noun_advertising_1906357" transform="translate(799 2161)">
            <path id="Trazado_1585" fill="#d9000d" d="M102.7-195.105h-4.768v8.631h4.768l2.934 4.455v15.385h6.219v-15.386l24.939 3.65v-24.656l-24.939 5.42H102.7z"/>
            <g id="Grupo_4478" transform="translate(70 -226.041)">
                <path id="Rect치ngulo_1260" d="M0 0H35V3H0z" transform="translate(36 65.041)"/>
                <path id="Rect치ngulo_1261" d="M0 0H47V3H0z" transform="translate(24 72.041)"/>
                <path id="Rect치ngulo_1262" d="M0 0H41V4H0z" transform="translate(24 78.041)"/>
                <path id="Trazado_1583" d="M29.76 2v4.752h-3.168a1.584 1.584 0 0 0-1.584 1.584V9.92h-7.92A1.584 1.584 0 0 0 15.5 11.5v74.453H7.584A1.584 1.584 0 0 0 6 87.537V90.7a6.336 6.336 0 0 0 6.336 6.336h60.193a6.336 6.336 0 0 0 6.336-6.336V11.5a1.584 1.584 0 0 0-1.584-1.58h-7.92V8.336a1.584 1.584 0 0 0-1.584-1.584h-3.168V2h-3.168v4.752h-3.168a1.584 1.584 0 0 0-1.584 1.584V9.92H37.68V8.336a1.584 1.584 0 0 0-1.58-1.584h-3.172V2zM12.336 93.873A3.168 3.168 0 0 1 9.168 90.7v-1.579h57.025V90.7a6.288 6.288 0 0 0 .851 3.168zM59.857 9.92h6.336v3.168h-6.336zM37.68 14.672v-1.584h19.009v1.584a1.584 1.584 0 0 0 1.584 1.584h9.5a1.584 1.584 0 0 0 1.584-1.584v-1.584H75.7V90.7a3.168 3.168 0 1 1-6.336 0v-3.163a1.584 1.584 0 0 0-1.584-1.584h-49.1V13.088h6.336v1.584a1.584 1.584 0 0 0 1.584 1.584h9.5a1.584 1.584 0 0 0 1.58-1.584zm-3.168-1.584h-6.336V9.92h6.336z"/>
                <path id="Trazado_1584" d="M24.336 34.592A3.168 3.168 0 0 0 27.5 37.76v14.257a1.584 1.584 0 0 0 1.588 1.583h6.336a1.584 1.584 0 0 0 1.584-1.584V44.1h4.752a1.584 1.584 0 0 0 1.584-1.584v-3.243l17.131 3.212a1.666 1.666 0 0 0 .293.027 1.584 1.584 0 0 0 1.584-1.584V15.584a1.584 1.584 0 0 0-1.877-1.557l-25.2 4.725H27.5a3.168 3.168 0 0 0-3.168 3.168 6.336 6.336 0 1 0 0 12.672zm9.5 9.5h-3.164V37.76h3.168zm-3.168 6.336v-3.163h3.172v3.168zm9.5-9.5h-3.16v-2.851l3.168.594zm19.008-1.9l-22.168-4.166V21.651l22.176-4.166zM27.5 21.92h6.34v12.672H27.5zm-3.168 3.168v6.336a3.168 3.168 0 1 1 0-6.336z" transform="translate(7.008 7.008)"/>
                <path id="Rect치ngulo_1263" d="M0 0H3V3H0z" transform="translate(30 65.041)"/>
            </g>
        </g>
    </g>
</svg>
