<svg xmlns="http://www.w3.org/2000/svg" width="170" height="170" viewBox="0 0 170 170">
    <defs>
        <filter id="Elipse_231" width="170" height="170" x="0" y="0" filterUnits="userSpaceOnUse">
            <feOffset dy="3"/>
            <feGaussianBlur result="blur" stdDeviation="3"/>
            <feFlood flood-color="#7b6f14" flood-opacity=".404"/>
            <feComposite in2="blur" operator="in"/>
            <feComposite in="SourceGraphic"/>
        </filter>
        <style>
            .cls-2,.cls-8{fill:none}.cls-2{stroke:#ffd400;stroke-width:2px}.cls-4{fill:#d9000d}.cls-5{fill:#161615;stroke:#161615;stroke-width:.4px}.cls-7{stroke:none}
        </style>
    </defs>
    <g id="Grupo_4929" transform="translate(-990 -1068)">
        <g filter="url(#Elipse_231)" transform="translate(990 1068)">
            <circle id="Elipse_231-2" cx="76" cy="76" r="76" fill="#fff" transform="translate(9 6)"/>
        </g>
        <g id="Elipse_232" class="cls-2" transform="translate(1009 1084)">
            <circle cx="66" cy="66" r="66" class="cls-7"/>
            <circle cx="66" cy="66" r="65" class="cls-8"/>
        </g>
        <path id="Trazado_1574" fill="#ffd400" d="M420.326 53.33l-5-5.03-5.03 5.065 5.03 5.03z" transform="translate(640 1068.354)"/>
        <g id="Elipse_241" class="cls-2" transform="translate(1071 1187)">
            <circle cx="5" cy="5" r="5" class="cls-7"/>
            <circle cx="5" cy="5" r="4" class="cls-8"/>
        </g>
        <ellipse id="Elipse_242" cx="5" cy="7.5" class="cls-4" rx="5" ry="7.5" transform="translate(1049 1155)"/>
        <g id="noun_Popcorn_631330" transform="translate(1037.257 1133.421)">
            <g id="Grupo_4463">
                <path id="Trazado_1571" d="M91.149 12.232a4.381 4.381 0 0 0 .139-1.1 4.581 4.581 0 0 0-4.572-4.572 4.283 4.283 0 0 0-1.487.26 5.686 5.686 0 0 0-7.621-2.249A6.86 6.86 0 0 0 65.434 8.1a4.656 4.656 0 0 0-4.6 4.219 3.032 3.032 0 0 0 .046 5.3l6.217 31.6h17.918l6.208-31.617a3.032 3.032 0 0 0-.074-5.362zM83.77 47.687H68.352l-3.141-15.994H70c.279 4.266 2.89 7.611 6.059 7.611s5.781-3.355 6.059-7.611H86.9zM71.493 30.94c0-3.782 2.054-6.849 4.572-6.849s4.572 3.076 4.572 6.849-2.054 6.849-4.572 6.849-4.572-3.076-4.572-6.849zm15.715-.762h-5.083c-.279-4.266-2.89-7.611-6.059-7.611s-5.781 3.355-6.059 7.611h-5.084l-2.407-12.184H89.6zm2.556-13.708H62.348a1.52 1.52 0 0 1-.5-2.955l.53-.186s-.028-.27-.028-.669a3.05 3.05 0 0 1 3.05-3.049 7.06 7.06 0 0 1 1.524.251V8.849a5.331 5.331 0 0 1 9.842-2.844l.428.678a4.6 4.6 0 0 1 3.076-1.255c3.318 0 4.2 3.485 4.2 3.485a5.144 5.144 0 0 1 2.249-.836 3.05 3.05 0 0 1 3.048 3.048 6.8 6.8 0 0 1-.678 2.138s2.2.13 2.2 1.673a1.533 1.533 0 0 1-1.525 1.534z" class="cls-5" transform="translate(-59.3 -2)"/>
                <path id="Trazado_1572" d="M69.786 6.572A2.286 2.286 0 1 0 67.5 4.286a2.285 2.285 0 0 0 2.286 2.286zm0-3.048a.762.762 0 1 1-.762.762.766.766 0 0 1 .762-.762z" class="cls-5" transform="translate(-66.738 -2)"/>
                <path id="Trazado_1573" fill="#ffd400" stroke="#ffd400" stroke-width="0.4px" d="M390.148 2a3.048 3.048 0 1 0 3.052 3.048A3.05 3.05 0 0 0 390.148 2zm0 4.572a1.524 1.524 0 1 1 1.524-1.524 1.525 1.525 0 0 1-1.524 1.524z" transform="translate(-356.636 -2)"/>
            </g>
        </g>
        <path id="Trazado_1594" d="M-3532.729 5250.215h26.347v9.054h-26.347z" class="cls-4" transform="translate(4612 -4079)"/>
        <path id="Trazado_1595" d="M-3521.845 5210.391l2.161-4.273 2.238 4.273 5.123 1.19-3.431 3.843 1.089 5-5.02-2.185-4.7 2.185v-5l-3.255-3.843z" class="cls-4" transform="translate(4612 -4079)"/>
        <g id="noun_cinema_snacks_1816076" transform="translate(1078.097 1118.315)">
            <g id="Grupo_4462">
                <path id="Trazado_1564" d="M77.124 25.614l-4.983-.724-2.228-4.516a.784.784 0 0 0-1.406 0l-2.229 4.516-4.983.724a.784.784 0 0 0-.435 1.337l3.606 3.516-.852 4.963a.784.784 0 0 0 1.138.826l4.457-2.343 4.457 2.343a.784.784 0 0 0 1.138-.826l-.851-4.963 3.606-3.516a.784.784 0 0 0-.435-1.337zm-4.561 4.017a.785.785 0 0 0-.226.694l.652 3.8-3.416-1.8a.782.782 0 0 0-.73 0l-3.416 1.8.653-3.8a.784.784 0 0 0-.226-.694l-2.764-2.694 3.819-.555a.783.783 0 0 0 .59-.429l1.708-3.46 1.708 3.46a.784.784 0 0 0 .591.429l3.819.555z" class="cls-5" transform="translate(-54.912 -12.145)"/>
                <path id="Trazado_1565" d="M63.128 52.985h2.439a.784.784 0 0 0 0-1.568h-2.439a.784.784 0 0 0 0 1.568z" class="cls-5" transform="translate(-55.283 -18.94)"/>
                <path id="Trazado_1566" d="M72.338 52.985a.784.784 0 0 0 0-1.568H69.9a.784.784 0 1 0 0 1.568z" class="cls-5" transform="translate(-56.745 -18.94)"/>
                <path id="Trazado_1567" d="M79.109 51.417h-2.44a.784.784 0 0 0 0 1.568h2.439a.784.784 0 1 0 0-1.568z" class="cls-5" transform="translate(-58.207 -18.94)"/>
                <path id="Trazado_1568" d="M76.144 60.713H63.2a.784.784 0 0 0 0 1.568h12.944a.784.784 0 1 0 0-1.568z" class="cls-5" transform="translate(-55.299 -20.947)"/>
                <path id="Trazado_1569" d="M76.144 68H63.2a.784.784 0 0 0 0 1.568h12.944a.784.784 0 1 0 0-1.568z" class="cls-5" transform="translate(-55.299 -22.52)"/>
                <path id="Trazado_1570" d="M78.644 10H56.782a3.446 3.446 0 0 0-3.442 3.442v27.113a.785.785 0 0 0 .4.682 2.311 2.311 0 0 1 0 4.047.784.784 0 0 0-.4.682v25.98a.784.784 0 0 0 .784.784H81.3a.784.784 0 0 0 .784-.784V45.967a.784.784 0 0 0-.4-.682 2.311 2.311 0 0 1 0-4.047.785.785 0 0 0 .4-.682V13.442A3.446 3.446 0 0 0 78.644 10zM54.908 71.163v-7.515h25.61v7.514zm25.61-31.032a3.915 3.915 0 0 0-1.506 2.346h-1.9a.784.784 0 0 0 0 1.568h1.9a3.918 3.918 0 0 0 1.506 2.346V62.08h-25.61V46.391a3.918 3.918 0 0 0 1.506-2.346h1.9a.784.784 0 0 0 0-1.568h-1.9a3.915 3.915 0 0 0-1.506-2.346V13.442a1.876 1.876 0 0 1 1.874-1.874h21.862a1.876 1.876 0 0 1 1.874 1.874z" class="cls-5" transform="translate(-53.34 -10)"/>
            </g>
        </g>
    </g>
</svg>
