<svg xmlns="http://www.w3.org/2000/svg" width="170" height="170" viewBox="0 0 170 170">
    <defs>
        <filter id="Elipse_229" width="170" height="170" x="0" y="0" filterUnits="userSpaceOnUse">
            <feOffset dy="3"/>
            <feGaussianBlur result="blur" stdDeviation="3"/>
            <feFlood flood-color="#7b6f14" flood-opacity=".404"/>
            <feComposite in2="blur" operator="in"/>
            <feComposite in="SourceGraphic"/>
        </filter>
        <style>
            .cls-2,.cls-7{fill:none}.cls-2{stroke:#ffd400;stroke-width:2px}.cls-3{fill:#ffd400}.cls-6{stroke:none}
        </style>
    </defs>
    <g id="Grupo_4926" transform="translate(-228 -1068)">
        <g filter="url(#Elipse_229)" transform="translate(228 1068)">
            <circle id="Elipse_229-2" cx="76" cy="76" r="76" fill="#fff" transform="translate(9 6)"/>
        </g>
        <g id="Elipse_230" class="cls-2" transform="translate(247 1084)">
            <circle cx="66" cy="66" r="66" class="cls-6"/>
            <circle cx="66" cy="66" r="65" class="cls-7"/>
        </g>
        <path id="Trazado_1557" d="M420.326 53.33l-5-5.03-5.03 5.065 5.03 5.03z" class="cls-3" transform="translate(-126 1078.354)"/>
        <path id="Trazado_1560" d="M269.168 85.5a3.287 3.287 0 1 0-3.608-2.931 3.288 3.288 0 0 0 3.608 2.931z" class="cls-3" transform="translate(47.21 1102.39)"/>
        <path id="Trazado_1561" d="M269.168 85.5a3.287 3.287 0 1 0-3.608-2.931 3.288 3.288 0 0 0 3.608 2.931z" class="cls-3" transform="translate(69.21 1057.39)"/>
        <g id="Elipse_235" class="cls-2" transform="translate(319 1120)">
            <circle cx="5" cy="5" r="5" class="cls-6"/>
            <circle cx="5" cy="5" r="4" class="cls-7"/>
        </g>
        <path id="Trazado_1579" fill="#d9000d" d="M-1159.674 5225.786s-7.772 14.586 1 18.527 12.186-3.517 12.186-3.517.833 2.463 8.524 2.534 8.277-3.534 8.277-3.534 7.457 7.7 14.1 2 3.05-12.774-.98-16.011-43.107.001-43.107.001z" transform="translate(1451 -4079)"/>
        <g id="noun_Birthday_1974194" transform="translate(277 1114.334)">
            <g id="Grupo_4461" transform="translate(9.904 6.002)">
                <path id="Trazado_1558" fill="#161615" d="M35.973 958.372a1.331 1.331 0 0 0-.981.7c-.691 1.3-1.7 3.115-2.535 4.893a11.742 11.742 0 0 0-1.554 4.893v.02a4.941 4.941 0 0 0 .716 2.559 2.2 2.2 0 0 0-1.37 2.007v9.172H18.472a8.916 8.916 0 0 0-5.377 1.945 8.212 8.212 0 0 0-3.128 6.572v4.586a9.243 9.243 0 0 0 4.58 7.923v6.777a5.624 5.624 0 0 0 .859 2.989h-4.253a1.312 1.312 0 0 0 .123 2.621H61a1.31 1.31 0 1 0 0-2.621h-4.13a5.624 5.624 0 0 0 .859-2.989v-6.777a9.243 9.243 0 0 0 4.58-7.924v-4.588a8.212 8.212 0 0 0-3.128-6.572 8.915 8.915 0 0 0-5.377-1.945H42.025v-9.172a2.2 2.2 0 0 0-1.37-2.006 4.942 4.942 0 0 0 .716-2.559v-.02a11.742 11.742 0 0 0-1.554-4.893c-.836-1.778-1.844-3.593-2.535-4.893a1.342 1.342 0 0 0-1.309-.7zm.164 4.156c.459.874.888 1.665 1.309 2.559a15.519 15.519 0 0 1 1.309 3.726v.041a1.9 1.9 0 0 1-.593 1.556 2.318 2.318 0 0 1-.756.409h-2.537a2.317 2.317 0 0 1-.756-.409 1.9 1.9 0 0 1-.593-1.556v-.041a15.519 15.519 0 0 1 1.309-3.726c.421-.895.849-1.686 1.309-2.559zm-1.963 10.913H38.1a2.744 2.744 0 0 1 1.247.266c.061.034.044.037.061.061v8.845h-6.542v-8.845c.017-.025 0-.028.061-.061a2.744 2.744 0 0 1 1.247-.266zm-15.7 11.793H53.8a6.691 6.691 0 0 1 3.762 1.372 5.393 5.393 0 0 1 2.126 4.525v4.586a6.646 6.646 0 0 1-6.543 6.552h-.654c-3.659 0-6.543-2.34-6.543-5.9a1.31 1.31 0 1 0-2.617-.143 6.278 6.278 0 0 1-6.543 5.385h-1.305a6.278 6.278 0 0 1-6.543-5.385 1.31 1.31 0 1 0-2.617.143c0 3.556-2.883 5.9-6.543 5.9h-.654a6.646 6.646 0 0 1-6.543-6.552v-4.587a5.393 5.393 0 0 1 2.126-4.525 6.691 6.691 0 0 1 3.762-1.372zM27.9 1000.3a9.308 9.308 0 0 0 7.585 3.931h1.309a9.307 9.307 0 0 0 7.585-3.931 9.231 9.231 0 0 0 8.117 4.586h.654a8.861 8.861 0 0 0 1.963-.225v5.753a2.93 2.93 0 0 1-2.924 2.989h-32.1a2.93 2.93 0 0 1-2.924-2.989v-5.753a8.869 8.869 0 0 0 1.963.225h.654a9.231 9.231 0 0 0 8.118-4.586z" transform="translate(-9.904 -958.364)"/>
            </g>
        </g>
        <path id="Trazado_1559" d="M420.326 53.33l-5-5.03-5.03 5.065 5.03 5.03z" class="cls-3" transform="translate(-124 1123.354)"/>
    </g>
</svg>
