<svg xmlns="http://www.w3.org/2000/svg" width="170" height="170" viewBox="0 0 170 170">
    <defs>
        <filter id="Elipse_227" width="170" height="170" x="0" y="0" filterUnits="userSpaceOnUse">
            <feOffset dy="3"/>
            <feGaussianBlur result="blur" stdDeviation="3"/>
            <feFlood flood-color="#7b6f14" flood-opacity=".404"/>
            <feComposite in2="blur" operator="in"/>
            <feComposite in="SourceGraphic"/>
        </filter>
        <style>
            .cls-2,.cls-8{fill:none}.cls-2{stroke:#ffd400;stroke-width:2px}.cls-3{fill:#ffd400}.cls-5{stroke:#000;stroke-width:.2px}.cls-7{stroke:none}
        </style>
    </defs>
    <g id="Grupo_4928" transform="translate(-599 -1068)">
        <g id="Grupo_4927">
            <g filter="url(#Elipse_227)" transform="translate(599 1068)">
                <circle id="Elipse_227-2" cx="76" cy="76" r="76" fill="#fff" transform="translate(9 6)"/>
            </g>
            <g id="Elipse_228" class="cls-2" transform="translate(618 1084)">
                <circle cx="66" cy="66" r="66" class="cls-7"/>
                <circle cx="66" cy="66" r="65" class="cls-8"/>
            </g>
            <path id="Trazado_1562" d="M420.326 53.33l-5-5.03-5.03 5.065 5.03 5.03z" class="cls-3" transform="translate(295 1073.354)"/>
            <path id="Trazado_1563" d="M269.168 85.5a3.287 3.287 0 1 0-3.608-2.931 3.288 3.288 0 0 0 3.608 2.931z" class="cls-3" transform="translate(424.211 1089.39)"/>
            <g id="Elipse_236" class="cls-2" transform="translate(653 1130)">
                <circle cx="5" cy="5" r="5" class="cls-7"/>
                <circle cx="5" cy="5" r="4" class="cls-8"/>
            </g>
            <path id="Trazado_1580" fill="#d9000d" d="M-784.406 5205.7h32.07l1.345 2.521v3.095l-3.229 1.928-1.1 2.863 1.1 2.7 3.229 1.776v4l-1.345 2.253h-32.07l-1.1-2.253v-4l4.041-1.776v-2.7l-1.774-4.791h-2.267z" transform="translate(1453 -4079)"/>
            <g id="Grupo_4457" transform="translate(3245.119 -5507.005)">
                <g id="noun_Ticket_3406775" transform="translate(-2578.234 6624.57)">
                    <g id="Grupo_4454">
                        <path id="Trazado_1536" d="M28.7 55.045a.452.452 0 0 0-.265-.8l-1.439-.076a.208.208 0 0 1-.189-.114l-.53-1.326a.448.448 0 0 0-.833 0l-.53 1.326c0 .076-.076.114-.152.114l-1.439.114a.461.461 0 0 0-.265.8l1.1.909c.076.038.076.114.076.189l-.341 1.4a.443.443 0 0 0 .644.492l1.212-.758a.241.241 0 0 1 .227 0l1.212.758a.431.431 0 0 0 .644-.492l-.341-1.4c0-.076 0-.152.076-.189z" class="cls-5" transform="translate(-15.175 -35.955)"/>
                        <path id="Trazado_1537" d="M47.9 55.045a.452.452 0 0 0-.265-.8l-1.4-.076c-.076 0-.152-.038-.152-.114l-.53-1.326a.448.448 0 0 0-.833 0l-.53 1.326a.327.327 0 0 1-.227.114l-1.439.114a.461.461 0 0 0-.265.8l1.1.909c.076.038.076.114.076.189l-.341 1.4a.443.443 0 0 0 .644.492l1.212-.758a.241.241 0 0 1 .227 0l1.212.758a.431.431 0 0 0 .644-.492l-.341-1.4c0-.076 0-.152.076-.189z" class="cls-5" transform="translate(-27.103 -35.955)"/>
                        <path id="Trazado_1538" d="M67.135 55.045a.452.452 0 0 0-.265-.8l-1.439-.076a.208.208 0 0 1-.189-.114l-.53-1.326a.448.448 0 0 0-.833 0l-.53 1.326a.208.208 0 0 1-.189.114l-1.439.114a.461.461 0 0 0-.265.8l1.1.909c.076.038.076.114.076.189l-.3 1.4a.443.443 0 0 0 .644.492l1.212-.758a.241.241 0 0 1 .227 0l1.212.758a.431.431 0 0 0 .644-.492l-.341-1.4c0-.076 0-.152.076-.189z" class="cls-5" transform="translate(-39.03 -35.955)"/>
                        <path id="Trazado_1539" d="M37.65 25.036a.841.841 0 0 0 .833-.833V12.271A3.379 3.379 0 0 0 35.112 8.9H5.871A3.379 3.379 0 0 0 2.5 12.271V24.2a.841.841 0 0 0 .833.833 3.333 3.333 0 0 1 0 6.666.841.841 0 0 0-.833.833v4.129a3.379 3.379 0 0 0 3.371 3.371h29.2a3.379 3.379 0 0 0 3.371-3.371v-4.126a.841.841 0 0 0-.833-.833 3.333 3.333 0 1 1 .038-6.666zM4.2 12.271A1.681 1.681 0 0 1 5.871 10.6h29.2a1.681 1.681 0 0 1 1.667 1.667v.985a3.147 3.147 0 0 0-1.667-.455h-29.2a3.534 3.534 0 0 0-1.667.455v-.985zm0 3.863a1.681 1.681 0 0 1 1.667-1.667h29.2a1.681 1.681 0 0 1 1.667 1.667v.985a3.147 3.147 0 0 0-1.667-.455H5.871a3.534 3.534 0 0 0-1.667.455v-.985zm32.574 17.2V36.7a1.681 1.681 0 0 1-1.667 1.667H5.871A1.681 1.681 0 0 1 4.2 36.7v-3.369a5.03 5.03 0 0 0 0-9.924v-3.371a1.681 1.681 0 0 1 1.667-1.667h29.2a1.681 1.681 0 0 1 1.667 1.667v3.371a5.045 5.045 0 0 0-4.2 4.962 5.146 5.146 0 0 0 4.245 4.962z" class="cls-5" transform="translate(-2.5 -8.9)"/>
                        <path id="Trazado_1540" d="M41.287 41.3H18.333a.833.833 0 0 0 0 1.667h22.916a.841.841 0 0 0 .833-.833.809.809 0 0 0-.795-.834z" class="cls-5" transform="translate(-11.818 -29.028)"/>
                        <path id="Trazado_1541" d="M41.287 74.8H18.333a.833.833 0 1 0 0 1.667h22.916a.841.841 0 0 0 .833-.833.786.786 0 0 0-.795-.834z" class="cls-5" transform="translate(-11.818 -49.839)"/>
                    </g>
                </g>
                <g id="noun_divider_486014" transform="translate(-2587 6659.751)">
                    <g id="Grupo_4456">
                        <g id="Grupo_4455">
                            <path id="Trazado_1542" stroke="#000" stroke-width="0.5px" d="M438.346 417.079h-1.727v-22.534a4.381 4.381 0 1 0-4.988-3.023 33.1 33.1 0 0 1-31.461 0 4.306 4.306 0 1 0-4.99 3.027v22.534h-1.727v3.453H390v1.727h12.086v-1.727h-3.453v-3.453h-1.727v-22.538a4.3 4.3 0 0 0 2.441-1.481 35.011 35.011 0 0 0 33.1 0 4.288 4.288 0 0 0 2.441 1.481v22.534h-1.727v3.453h-3.453v1.727H441.8v-1.727h-3.453zm-41.439 3.453h-1.727v-1.727h1.727zm-.863-27.626a2.59 2.59 0 1 1 2.59-2.59 2.591 2.591 0 0 1-2.591 2.591zm37.123-2.59a2.59 2.59 0 1 1 2.59 2.59 2.591 2.591 0 0 1-2.591-2.589zm1.727 30.216v-1.727h1.727v1.727z" transform="translate(-390 -386)"/>
                        </g>
                    </g>
                </g>
            </g>
        </g>
    </g>
</svg>
