<svg xmlns="http://www.w3.org/2000/svg" width="20.337" height="20.337" viewBox="0 0 20.337 20.337">
    <defs>
        <style>
            .cls-1{fill:none;stroke:#161615;stroke-width:.5px}
        </style>
    </defs>
    <g id="noun_movies_2384022" transform="translate(.25 .25)">
        <path id="Trazado_324" d="M28.287 16.715a1.606 1.606 0 0 0-.658.141V15.39a5.4 5.4 0 0 0-5.475-5.316H17.82a5.4 5.4 0 0 0-5.475 5.316v1.466a1.616 1.616 0 0 0-2.276 1.477v11.33a.248.248 0 0 0 .248.248h2.741a.248.248 0 0 0 .248-.248V26.3h13.363v3.368a.248.248 0 0 0 .248.248h2.74a.248.248 0 0 0 .248-.248V18.333a1.62 1.62 0 0 0-1.618-1.618zM27.071 25.8H12.9a.69.69 0 0 1-.689-.689v-1.524a.69.69 0 0 1 .689-.687h14.171a.69.69 0 0 1 .689.689v1.521a.69.69 0 0 1-.689.69zM17.82 10.569h4.335a4.907 4.907 0 0 1 4.979 4.82V17.2a1.613 1.613 0 0 0-.464 1.133V22.4H13.305v-4.067a1.612 1.612 0 0 0-.465-1.133v-1.81a4.907 4.907 0 0 1 4.98-4.821zm-7.256 18.846V18.333a1.122 1.122 0 1 1 2.245 0v4.078a1.183 1.183 0 0 0-1.091 1.176v1.523a1.183 1.183 0 0 0 1.091 1.176v3.129zm18.846 0h-2.245v-3.13a1.183 1.183 0 0 0 1.091-1.176v-1.522a1.183 1.183 0 0 0-1.091-1.176v-4.078a1.122 1.122 0 1 1 2.245 0z" class="cls-1" transform="translate(-10.068 -10.073)"/>
        <path id="Trazado_325" d="M44.853 31.612a.248.248 0 0 0 .129.217l.746.408a3.333 3.333 0 0 1 1.326 1.326l.408.746a.248.248 0 0 0 .435 0l.408-.746a3.332 3.332 0 0 1 1.326-1.326l.746-.408a.248.248 0 0 0 0-.435l-.746-.408a3.332 3.332 0 0 1-1.331-1.325l-.408-.746a.248.248 0 0 0-.435 0l-.408.746a3.332 3.332 0 0 1-1.326 1.326l-.746.408a.248.248 0 0 0-.124.217zm1.113-.19a3.821 3.821 0 0 0 1.522-1.522l.191-.348.19.348a3.821 3.821 0 0 0 1.523 1.523l.348.19-.348.191a3.822 3.822 0 0 0-1.523 1.523l-.19.348-.191-.348a3.823 3.823 0 0 0-1.523-1.527l-.348-.191z" class="cls-1" transform="translate(-36.227 -24.146)"/>
        <path id="Trazado_326" d="M32.483 27.457l.5.274a2.154 2.154 0 0 1 .857.857l.274.5a.248.248 0 0 0 .435 0l.274-.5a2.154 2.154 0 0 1 .857-.857l.5-.274a.248.248 0 0 0 0-.435l-.5-.274a2.153 2.153 0 0 1-.857-.857l-.274-.5a.258.258 0 0 0-.435 0l-.274.5a2.155 2.155 0 0 1-.857.857l-.5.274a.248.248 0 0 0 0 .435zm.738-.274a2.644 2.644 0 0 0 1.054-1.054l.056-.1.056.1a2.644 2.644 0 0 0 1.054 1.054l.1.056-.1.056a2.648 2.648 0 0 0-1.054 1.054l-.056.1-.056-.1a2.645 2.645 0 0 0-1.054-1.049l-.1-.056z" class="cls-1" transform="translate(-26.828 -21.503)"/>
    </g>
</svg>
