<svg width="32" height="32" viewBox="0 0 32 32" fill="none" xmlns="http://www.w3.org/2000/svg">
<g id="cancel">
<mask id="mask0_358_191" style="mask-type:alpha" maskUnits="userSpaceOnUse" x="0" y="0" width="32" height="32">
<rect id="Bounding box" width="32" height="32" fill="#D9D9D9"/>
</mask>
<g mask="url(#mask0_358_191)">
<path id="cancel_2" d="M15.9998 17.8667L19.8665 21.7333C20.111 21.9778 20.4221 22.1 20.7998 22.1C21.1776 22.1 21.4887 21.9778 21.7332 21.7333C21.9776 21.4889 22.0998 21.1778 22.0998 20.8C22.0998 20.4222 21.9776 20.1111 21.7332 19.8667L17.8665 16L21.7332 12.1333C21.9776 11.8889 22.0998 11.5778 22.0998 11.2C22.0998 10.8222 21.9776 10.5111 21.7332 10.2667C21.4887 10.0222 21.1776 9.89999 20.7998 9.89999C20.4221 9.89999 20.111 10.0222 19.8665 10.2667L15.9998 14.1333L12.1332 10.2667C11.8887 10.0222 11.5776 9.89999 11.1998 9.89999C10.8221 9.89999 10.5109 10.0222 10.2665 10.2667C10.0221 10.5111 9.89984 10.8222 9.89984 11.2C9.89984 11.5778 10.0221 11.8889 10.2665 12.1333L14.1332 16L10.2665 19.8667C10.0221 20.1111 9.89984 20.4222 9.89984 20.8C9.89984 21.1778 10.0221 21.4889 10.2665 21.7333C10.5109 21.9778 10.8221 22.1 11.1998 22.1C11.5776 22.1 11.8887 21.9778 12.1332 21.7333L15.9998 17.8667ZM15.9998 29.3333C14.1554 29.3333 12.4221 28.9833 10.7998 28.2833C9.17762 27.5833 7.7665 26.6333 6.5665 25.4333C5.3665 24.2333 4.4165 22.8222 3.7165 21.2C3.0165 19.5778 2.6665 17.8444 2.6665 16C2.6665 14.1555 3.0165 12.4222 3.7165 10.8C4.4165 9.17777 5.3665 7.76666 6.5665 6.56666C7.7665 5.36666 9.17762 4.41666 10.7998 3.71666C12.4221 3.01666 14.1554 2.66666 15.9998 2.66666C17.8443 2.66666 19.5776 3.01666 21.1998 3.71666C22.8221 4.41666 24.2332 5.36666 25.4332 6.56666C26.6332 7.76666 27.5832 9.17777 28.2832 10.8C28.9832 12.4222 29.3332 14.1555 29.3332 16C29.3332 17.8444 28.9832 19.5778 28.2832 21.2C27.5832 22.8222 26.6332 24.2333 25.4332 25.4333C24.2332 26.6333 22.8221 27.5833 21.1998 28.2833C19.5776 28.9833 17.8443 29.3333 15.9998 29.3333ZM15.9998 26.6667C18.9776 26.6667 21.4998 25.6333 23.5665 23.5667C25.6332 21.5 26.6665 18.9778 26.6665 16C26.6665 13.0222 25.6332 10.5 23.5665 8.43332C21.4998 6.36666 18.9776 5.33332 15.9998 5.33332C13.0221 5.33332 10.4998 6.36666 8.43317 8.43332C6.3665 10.5 5.33317 13.0222 5.33317 16C5.33317 18.9778 6.3665 21.5 8.43317 23.5667C10.4998 25.6333 13.0221 26.6667 15.9998 26.6667Z" fill="#D91D1C"/>
</g>
</g>
</svg>
