<svg xmlns="http://www.w3.org/2000/svg" width="96.075" height="79.244" viewBox="0 0 96.075 79.244">
  <g id="Grupo_5078" data-name="Grupo 5078" transform="translate(-5171 -8338.492)">
    <g id="Grupo_4513" data-name="Grupo 4513" transform="translate(5171 8338.492)">
      <g id="Group" transform="translate(0 0)">
        <path id="Compound_Path" data-name="Compound Path" d="M91.5,45.25A40.689,40.689,0,0,1,59.381,73.969,39.625,39.625,0,1,0,39.69,79.244H52.7a45.37,45.37,0,0,0,43.372-32.7ZM39.545,74.555a34.989,34.989,0,1,1,.118,0Z" transform="translate(0 0)" fill="#e2dfdf"/>
        <path id="Compound_Path-4" data-name="Compound Path-4" d="M30.112,16.031A10.668,10.668,0,1,0,19.444,26.7,10.67,10.67,0,0,0,30.112,16.031Zm-10.668,6a5.979,5.979,0,1,1,.043,0Z" transform="translate(38.416 23.477)" fill="#e2dfdf"/>
        <path id="Compound_Path-4-2" data-name="Compound Path-4" d="M26.827,12.559A10.668,10.668,0,1,0,16.159,23.227,10.67,10.67,0,0,0,26.827,12.559Zm-10.668,6a5.979,5.979,0,1,1,.043,0Z" transform="translate(24.037 8.279)" fill="#e2dfdf"/>
        <path id="Compound_Path-4-3" data-name="Compound Path-4" d="M26.827,19.457A10.668,10.668,0,1,0,16.159,30.125,10.67,10.67,0,0,0,26.827,19.457Zm-10.668,6a5.979,5.979,0,1,1,.043,0Z" transform="translate(24.037 38.473)" fill="#e2dfdf"/>
        <path id="Compound_Path-5" data-name="Compound Path-5" d="M12.782,5.364A10.669,10.669,0,1,0,23.332,16.15v-.118A10.669,10.669,0,0,0,12.782,5.364Zm0,16.669a5.978,5.978,0,1,1,5.856-6.1l.005.118A5.981,5.981,0,0,1,12.782,22.033Z" transform="translate(8.734 23.476)" fill="#e2dfdf"/>
      </g>
    </g>
  </g>
</svg>
