<svg xmlns="http://www.w3.org/2000/svg" width="23.39" height="23.389" viewBox="0 0 23.39 23.389">
    <defs>
        <style>
            .cls-1{fill:#d9000d;stroke:#c82921;stroke-width:.2px}
        </style>
    </defs>
    <g id="noun_movies_1367628" transform="translate(.1 .1)">
        <path id="Trazado_332" d="M27.428 43.915a.29.29 0 0 0-.234-.2l-1.478-.215-.661-1.339a.289.289 0 0 0-.519 0l-.662 1.339-1.479.215a.29.29 0 0 0-.161.494l1.07 1.043-.253 1.473a.29.29 0 0 0 .421.306l1.322-.695 1.322.695a.29.29 0 0 0 .421-.306l-.252-1.472 1.07-1.043a.29.29 0 0 0 .073-.295zm-1.657 1.031a.291.291 0 0 0-.083.257l.179 1.044-.937-.492a.289.289 0 0 0-.27 0l-.937.492.177-1.047a.29.29 0 0 0-.083-.257l-.759-.739 1.048-.152a.289.289 0 0 0 .218-.159l.469-.95.469.95a.29.29 0 0 0 .218.159l1.048.152z" class="cls-1" transform="translate(-18.667 -32.725)"/>
        <path id="Trazado_333" d="M33.042 30.36h-1.007l.765-15.126h.234a.29.29 0 0 0 .29-.29v-1.528a.29.29 0 0 0-.29-.29h-.5v-.562a.9.9 0 0 0-.9-.9h-7.1a.9.9 0 0 0-.9.9v.562h-.5a.29.29 0 0 0-.29.29v1.529a.29.29 0 0 0 .29.29h.37l.8 15.125H21.4l1.037-16.926a.29.29 0 0 0-.29-.308h-.422a2.536 2.536 0 0 0-2.6-2.317 2.753 2.753 0 0 0-1.185.265A2.653 2.653 0 0 0 15.78 10a2.613 2.613 0 0 0-2.455 1.61 1.965 1.965 0 0 0-.659-.114 1.817 1.817 0 0 0-1.857 1.629h-.365a.29.29 0 0 0-.289.308L11.23 30.36h-.8a.29.29 0 0 0-.29.29v2.25a.29.29 0 0 0 .29.29h22.61a.29.29 0 0 0 .29-.29v-2.25a.29.29 0 0 0-.288-.29zm-8.759-11.554h7.758l-.311 6.128h-7.124zm-.059-6.243a.317.317 0 0 1 .317-.317h7.1a.317.317 0 0 1 .317.317v.562h-7.734zm-.789 1.142h9.312v.949h-9.312zm8.788 1.529l-.152 2.992h-7.818l-.153-2.991zm-7.586 10.28H31.7l-.246 4.846h-6.562zm-4.674 4.846a.3.3 0 0 0 .007-.032l.133-4.814h1.016l-.3 4.846h-.859zm-8.889-11.6h10.46l-.379 6.179h-9.688zm7.374-.58l.066-4.47h1.346l-.131 4.47zm-.58 0h-1.28v-4.47h1.346zm-1.86 0h-1.28l-.066-4.47h1.346v4.47zm-1.926-4.47l.066 4.47h-1.28l-.131-4.47zm.168 11.809l.066 4.81a.292.292 0 0 0 .008.036H13.2a.3.3 0 0 0 .008-.048l-.133-4.8zm.58 0h1.178v4.801a.264.264 0 0 0 .008.04h-1.128a.278.278 0 0 0 .008-.044zm1.758 4.806v-4.811h1.178l-.066 4.8a.277.277 0 0 0 .008.044H16.58a.268.268 0 0 0 .008-.038zm1.691 0l.066-4.81h1.178l-.133 4.8a.266.266 0 0 0 .008.048h-1.127a.357.357 0 0 0 .008-.039zm3.29-12.148h-1.261l.131-4.47h1.4zm-8.9-6.1a1.373 1.373 0 0 1 .694.187.29.29 0 0 0 .43-.189 1.994 1.994 0 0 1 1.99-1.493A2.049 2.049 0 0 1 17.59 11.6a.291.291 0 0 0 .18.14.294.294 0 0 0 .23-.04 2.157 2.157 0 0 1 1.132-.316 1.961 1.961 0 0 1 2.022 1.737H11.4a1.24 1.24 0 0 1 1.266-1.044zm-.509 1.629l.131 4.47h-1.254l-.284-4.47zm-.66 11.808h.989l.133 4.814a.3.3 0 0 0 .007.032h-.822zm21.249 7.1H10.722v-1.675h22.03z" class="cls-1" transform="translate(-10.142 -10.001)"/>
    </g>
</svg>
