<svg xmlns="http://www.w3.org/2000/svg" id="Grupo_4104" width="17.743" height="18.249" viewBox="0 0 17.743 18.249">
    <defs>
        <style>
            .cls-1{fill:#ffd400}
        </style>
    </defs>
    <path id="Trazado_1195" d="M77.437 270.726l-.208.354h-6.767l.166.284h6.434l-.322.547h-5.794l.165.284h5.462l-.209.354h-5.45l-1.074-1.822z" class="cls-1" transform="translate(-60.345 -265.719)"/>
    <path id="Trazado_1196" d="M77.437 267.248l-.208-.354h-6.767l.166-.284h6.434l-.322-.547h-5.794l.165-.284h5.462l-.209-.354h-5.45l-1.074 1.822z" class="cls-1" transform="translate(-60.345 -262.57)"/>
    <path id="Trazado_1197" d="M48.412 292.054l.208.354h6.766l-.165.283h-6.434l.323.547h5.79l-.165.283h-5.458l.209.354h5.451l1.073-1.822z" class="cls-1" transform="translate(-47.615 -278.389)"/>
    <path id="Trazado_1198" d="M48.412 288.576l.208-.354h7.336l.164-.284h-7.333l.323-.547h7.321l.159-.284h-7.313l.209-.354h7.666l-1.052 1.823z" class="cls-1" transform="translate(-47.615 -275.241)"/>
    <path id="Trazado_1199" d="M79.8 283.175l-.411-.006-3.358-5.875-.164.284 3.193 5.586-.635-.009-2.875-5.03-.164.284 2.71 4.741h-.41l-2.7-4.732 1.049-1.836z" class="cls-1" transform="translate(-63.398 -269.196)"/>
    <path id="Trazado_1200" d="M82.055 282.856l.2-.356-3.355-5.875h.328l3.193 5.586.315-.551-2.875-5.03h.329l2.71 4.741.2-.356-2.7-4.732-2.116-.028z" class="cls-1" transform="translate(-65.361 -269.006)"/>
    <path id="Trazado_1201" d="M63.859 258.968l.2.356L60.7 265.2h.329l3.194-5.586.314.552-2.876 5.029h.329l2.711-4.74.2.356-2.701 4.725-2.115.028z" class="cls-1" transform="translate(-54.551 -258.734)"/>
    <path id="Trazado_1202" d="M61.72 258.391l-.412.005-3.359 5.874-.164-.285 3.195-5.585-.635.008-2.876 5.029-.164-.284 2.71-4.74-.41.005-2.705 4.732 1.048 1.837z" class="cls-1" transform="translate(-52.657 -258.391)"/>
    <path id="Trazado_1203" d="M49.777 269.27h.411l3.432 5.83.161-.287-3.264-5.545h.635l2.939 4.993.16-.286-2.77-4.706h.411l2.764 4.7-1.026 1.849z" class="cls-1" transform="translate(-48.426 -264.854)"/>
    <path id="Trazado_1204" d="M47.476 269.509l-.2.359 3.432 5.832h-.329l-3.263-5.546-.307.555 2.938 4.994h-.329L46.648 271l-.2.359 2.764 4.7h2.116z" class="cls-1" transform="translate(-46.45 -264.996)"/>
    <path id="Trazado_1205" d="M65.8 293.289l-.21-.353 3.266-5.927-.329.008-3.105 5.635-.323-.546 2.8-5.074-.328.008-2.635 4.783-.209-.353 2.629-4.774 2.115-.061z" class="cls-1" transform="translate(-57.303 -275.17)"/>
    <path id="Trazado_1206" d="M68.048 293.635l.411-.01 3.295-5.91.168.283-3.133 5.62.635-.015 2.822-5.06.168.283-2.661 4.769.411-.01 2.654-4.76-1.07-1.825z" class="cls-1" transform="translate(-59.28 -275.386)"/>
</svg>
