<svg id="Capa_1" data-name="Capa 1" xmlns="http://www.w3.org/2000/svg" viewBox="0 0 22.34 22.37"><defs><style>.cls-1{fill:#ffd400;}</style></defs><g id="noun_movie_theater_363417" data-name="noun movie theater 363417"><g id="Grupo_4168" data-name="Grupo 4168"><g id="Grupo_4167" data-name="Grupo 4167"><path id="Trazado_1317" data-name="Trazado 1317" class="cls-1" d="M20.28,4.18H1.79a.35.35,0,0,0-.35.36V15.2a.34.34,0,0,0,.35.36H20.28a.36.36,0,0,0,.36-.36h0V4.54a.36.36,0,0,0-.36-.36Zm-.35,10.67H2.15v-10H19.93Z"/><path class="cls-1" d="M1.79,15.7a.5.5,0,0,1-.5-.5V4.54a.5.5,0,0,1,.5-.5H20.28a.48.48,0,0,1,.5.5V15.2a.49.49,0,0,1-.15.36.5.5,0,0,1-.35.14H1.79Zm0-11.38a.21.21,0,0,0-.21.22V15.2a.21.21,0,0,0,.21.22H20.28a.24.24,0,0,0,.22-.22V4.54a.26.26,0,0,0-.07-.16.2.2,0,0,0-.15-.06v0ZM19.93,15H2.15A.15.15,0,0,1,2,14.85v-10a.15.15,0,0,1,.15-.14H19.93a.14.14,0,0,1,.14.14v10A.14.14,0,0,1,19.93,15ZM2.29,14.71H19.78V5H2.29Z"/><path id="Trazado_1318" data-name="Trazado 1318" class="cls-1" d="M6.41,19.47a.36.36,0,0,0,.71,0,2.84,2.84,0,1,0-5.68-.11.21.21,0,0,0,0,.11.35.35,0,0,0,.37.34.37.37,0,0,0,.34-.34,2.13,2.13,0,0,1,4.26,0Z"/><path class="cls-1" d="M6.77,20a.51.51,0,0,1-.5-.47h0a2,2,0,0,0-4,0,.52.52,0,0,1-.47.48.51.51,0,0,1-.53-.47v-.12a3,3,0,0,1,3.05-2.93,3,3,0,0,1,2.93,3A.52.52,0,0,1,6.8,20Zm-.21-.48a.2.2,0,0,0,.06.14.19.19,0,0,0,.16.05.2.2,0,0,0,.2-.2,2.71,2.71,0,0,0-2.65-2.75h0a2.71,2.71,0,0,0-1.88.76,2.66,2.66,0,0,0-.82,1.9v.1a.21.21,0,0,0,.21.2h0a.2.2,0,0,0,.2-.2,2.28,2.28,0,0,1,4.56,0Zm0,0Z"/><path id="Trazado_1319" data-name="Trazado 1319" class="cls-1" d="M13.17,19.47a.36.36,0,0,0,.71,0,2.85,2.85,0,1,0-5.69-.11v.11a.36.36,0,0,0,.71,0,2.14,2.14,0,0,1,4.27,0Z"/><path class="cls-1" d="M8.55,20a.5.5,0,0,1-.5-.47v-.12a3,3,0,0,1,3-2.93h.05a3,3,0,0,1,2.93,3,.5.5,0,0,1-.47.48.49.49,0,0,1-.52-.47h0a2,2,0,0,0-4,0,.5.5,0,0,1-.47.48ZM11,16.71a2.71,2.71,0,0,0-2.71,2.66v.1a.22.22,0,0,0,.22.2h0a.2.2,0,0,0,.2-.2,2.28,2.28,0,0,1,4.55,0,.22.22,0,0,0,.22.2h0a.21.21,0,0,0,.2-.2,2.71,2.71,0,0,0-2.65-2.75Zm2.27,2.76h0Z"/><path id="Trazado_1320" data-name="Trazado 1320" class="cls-1" d="M17.79,16.62A2.85,2.85,0,0,0,15,19.47a.36.36,0,0,0,.37.34.37.37,0,0,0,.34-.34,2.14,2.14,0,0,1,4.27,0,.35.35,0,0,0,.37.34.37.37,0,0,0,.34-.34A2.87,2.87,0,0,0,17.79,16.62Z"/><path class="cls-1" d="M15.3,20a.51.51,0,0,1-.33-.13.46.46,0,0,1-.16-.34,3,3,0,0,1,3-3h0a3,3,0,0,1,3,3,.52.52,0,0,1-.47.48.51.51,0,0,1-.53-.47,2,2,0,1,0-4,0,.51.51,0,0,1-.47.48Zm2.49-3.18a2.7,2.7,0,0,0-2.7,2.7.21.21,0,0,0,.07.14.17.17,0,0,0,.15.05.22.22,0,0,0,.21-.2,2.28,2.28,0,0,1,4.55,0,.21.21,0,0,0,.21.2h0a.2.2,0,0,0,.2-.2A2.7,2.7,0,0,0,17.79,16.77Z"/></g></g></g></svg>