<svg id="Capa_1" data-name="Capa 1" xmlns="http://www.w3.org/2000/svg" viewBox="0 0 22.34 22.37"><defs><style>.cls-1{fill:none;}.cls-2{fill:#ffd400;}</style></defs><g id="Grupo_4169" data-name="Grupo 4169"><path id="Trazado_1306" data-name="Trazado 1306" class="cls-1" d="M-.72-1.19h24v24h-24Z"/><path class="cls-2" d="M11.28,19.38a7.57,7.57,0,1,1,7.57-7.57A7.58,7.58,0,0,1,11.28,19.38Zm0-14a6.43,6.43,0,1,0,6.43,6.43A6.43,6.43,0,0,0,11.28,5.38Z"/><path class="cls-2" d="M13.28,12.38h-2a.58.58,0,0,1-.57-.57v-3a.57.57,0,1,1,1.14,0v2.43h1.43a.57.57,0,0,1,0,1.14Z"/><path class="cls-2" d="M3.53,5.38a.59.59,0,0,1-.46-.24.56.56,0,0,1,.13-.79L6,2.35a.57.57,0,1,1,.66.92l-2.75,2A.57.57,0,0,1,3.53,5.38Z"/><path class="cls-2" d="M19,5.38a.57.57,0,0,1-.33-.11L16,3.27a.57.57,0,1,1,.66-.92l2.75,2a.56.56,0,0,1,.13.79A.59.59,0,0,1,19,5.38Z"/></g></svg>