<svg xmlns="http://www.w3.org/2000/svg" width="27.094" height="29.798" viewBox="0 0 27.094 29.798">
    <g>
        <g>
            <path fill="#fff" stroke="#fff" stroke-width="0.5px" d="M21.2 957.847a.461.461 0 0 0-.463.463v2.365a.462.462 0 0 0 0 .051 13.325 13.325 0 1 0 12.927 5.358l.021-.021 1.687-1.687a.461.461 0 0 0 0-.648l-2.365-2.365a.451.451 0 0 0-.648 0l-1.687 1.686-.01.01a13.237 13.237 0 0 0-5.625-2.334.461.461 0 0 0 0-.051v-2.365a.461.461 0 0 0-.463-.463zm.463.926h2.458v1.841c-.406-.038-.818-.062-1.234-.062s-.82.025-1.224.062zm1.224 2.7a12.371 12.371 0 1 1-12.371 12.371 12.364 12.364 0 0 1 12.375-12.367zm9.79.854l1.728 1.728-1.3 1.286a13.42 13.42 0 0 0-1.728-1.707zm-9.831 1.6a.463.463 0 0 0 .041.926 9.061 9.061 0 0 1 9 8.988.463.463 0 1 0 .926 0 9.989 9.989 0 0 0-9.924-9.914h-.041zm.041 7.425a2.5 2.5 0 0 0-2.489 2.489 2.465 2.465 0 0 0 .257 1.111l-4.634 4.648a.462.462 0 1 0 .648.658l4.556-4.556a2.489 2.489 0 1 0 1.666-4.34zm0 .926a1.563 1.563 0 1 1-1.563 1.563 1.555 1.555 0 0 1 1.567-1.556zm-10.51 1.1a.463.463 0 0 0 .041.926h2.026a.463.463 0 0 0 0-.926h-2.063zm10.51 8.433a.461.461 0 0 0-.463.473v2.026a.463.463 0 1 0 .926 0v-2.026a.461.461 0 0 0-.463-.473z" transform="translate(-9.344 -5.234) translate(9.594 5.484) translate(-9.594 -957.847)"/>
        </g>
    </g>
</svg>
