<svg id="Capa_1" data-name="Capa 1" xmlns="http://www.w3.org/2000/svg" viewBox="0 0 11.95 11.96"><defs><style>.cls-1{fill:#ddd;}</style></defs><path class="cls-1" d="M6,10.53a4,4,0,1,1,4-4A4,4,0,0,1,6,10.53ZM6,3.17A3.39,3.39,0,1,0,9.4,6.55,3.39,3.39,0,0,0,6,3.17Z"/><path class="cls-1" d="M7.07,6.85H6a.29.29,0,0,1-.3-.3V5a.3.3,0,1,1,.59,0V6.26h.76a.3.3,0,1,1,0,.59Z"/><path class="cls-1" d="M1.94,3.17a.3.3,0,0,1-.18-.54l1.45-1a.3.3,0,0,1,.42.06.31.31,0,0,1-.07.42l-1.45,1A.27.27,0,0,1,1.94,3.17Z"/><path class="cls-1" d="M10.09,3.17a.27.27,0,0,1-.17-.06l-1.45-1a.31.31,0,0,1-.07-.42.3.3,0,0,1,.42-.06l1.45,1a.3.3,0,0,1,.06.42A.27.27,0,0,1,10.09,3.17Z"/></svg>