<svg id="Capa_1" data-name="Capa 1" xmlns="http://www.w3.org/2000/svg" viewBox="0 0 45 45"><defs><style>.cls-1{fill:#ffd402;}</style></defs><circle id="Elipse_206" data-name="Elipse 206" class="cls-1" cx="22.5" cy="22.5" r="22.5"/><g id="noun_profile_1220457" data-name="noun profile 1220457"><g id="레이어_2" data-name="레이어 2"><g id="Layer_1" data-name="Layer 1"><path id="Trazado_3477" data-name="Trazado 3477" d="M22.32,13.16a5.33,5.33,0,1,0,5.32,5.34,5.33,5.33,0,0,0-5.32-5.34Zm0,9.11"/><path id="Trazado_3478" data-name="Trazado 3478" d="M22.32,4.56A18.25,18.25,0,1,0,40.57,22.81h0A18.26,18.26,0,0,0,22.32,4.56Zm-9.4,32.08V32a4.85,4.85,0,0,1,4.85-4.85h9.07A4.85,4.85,0,0,1,31.69,32v4.64a16.69,16.69,0,0,1-18.79,0Zm20.3-1.16V32a6.38,6.38,0,0,0-6.38-6.37H17.77A6.37,6.37,0,0,0,11.4,32v3.46A16.73,16.73,0,1,1,35,33.7a15.66,15.66,0,0,1-1.78,1.77Z"/></g></g></g></svg>