<svg xmlns="http://www.w3.org/2000/svg" viewBox="0 0 7.85 9.1"><defs><style>.cls-1{fill:#f4cb05;}.cls-2{fill:#ffd400;}</style></defs><g id="Capa_2" data-name="Capa 2"><g id="Capa_1-2" data-name="Capa 1"><path class="cls-1" d="M4.51,5.42s1.57-.58,2.11,0A17.1,17.1,0,0,1,7.73,7.76s.36.75-.19,1-.85-.13-1-.63-.72-1.72-.72-1.72l-1,.1Z"/><path class="cls-2" d="M1,4.6a2.51,2.51,0,0,1,1.56-.5,2.56,2.56,0,0,1,1.54.59A2.5,2.5,0,0,1,5,6.1,2.51,2.51,0,0,1,3.56,8.86,2.5,2.5,0,0,1,0,6.6,2.56,2.56,0,0,1,.26,5.48,2.45,2.45,0,0,1,1,4.6"/><path class="cls-2" d="M5.87,8.43a.67.67,0,1,1-.66-.67A.67.67,0,0,1,5.87,8.43Z"/><path class="cls-1" d="M4.32,4.9a.52.52,0,0,0-.11-.1A2.79,2.79,0,0,0,3,4.22l-.32,0,0,.32.24,1.93a.89.89,0,0,1-.19.7,1,1,0,0,1-.62.36,1.14,1.14,0,0,1-.37,0A1,1,0,0,1,1.4,7.3,1.05,1.05,0,0,1,1.16,7,1.12,1.12,0,0,1,1,6.67L.8,6.7l.24,0L.82,4.9l0-.5h0v0a.66.66,0,0,1,0-.13A1.07,1.07,0,0,1,1,3.76H1l0,0s.1-.11.2-.2a6.16,6.16,0,0,1,1-.77h0a3.6,3.6,0,0,1,.91-.41M4.32,4.9c0-.05,0-.09,0-.13a5.75,5.75,0,0,0,0-1.36,1.44,1.44,0,0,0-.53-1h0a.45.45,0,0,0-.22-.11.9.9,0,0,0-.39,0"/><path class="cls-1" d="M4.58,1.14A1.15,1.15,0,1,1,3.44,0,1.14,1.14,0,0,1,4.58,1.14Z"/></g></g></svg>