<svg xmlns="http://www.w3.org/2000/svg" width="72.149" height="72.15" viewBox="0 0 72.149 72.15">
    <defs>
        <style>
            .cls-2{fill:#161615}
        </style>
    </defs>
    <g id="Grupo_4937" transform="translate(-103.851 -357.819)">
        <circle id="Elipse_139" cx="36.075" cy="36.075" r="36.075" fill="#ffd400" transform="translate(103.851 357.819)"/>
        <g id="noun_Download_file_2636716" transform="translate(107 360.99)">
            <path id="Trazado_2795" d="M34.054 48.435H20.588a.513.513 0 0 1-.513-.513V14.578a.513.513 0 0 1 .513-.513h14.877a.513.513 0 0 1 .513.513V25.35A1.026 1.026 0 0 0 37 26.376h10.776a.513.513 0 0 1 .513.513v5.792a1.026 1.026 0 0 0 1.026 1.026h.513a1.026 1.026 0 0 0 1.026-1.026v-7.695a1.026 1.026 0 0 0-.3-.723l-12.463-12.45a1.026 1.026 0 0 0-.723-.3H18.536a1.026 1.026 0 0 0-1.026 1.026v37.445a1.026 1.026 0 0 0 1.026 1.026h15.518a1.026 1.026 0 0 0 1.026-1.026v-.513a1.026 1.026 0 0 0-1.026-1.036zm4.484-31.292a.513.513 0 0 1 .872-.359l6.156 6.156a.513.513 0 0 1-.364.877h-6.157a.513.513 0 0 1-.513-.513z" class="cls-2"/>
            <path id="Trazado_2796" d="M61.283 55.686V67.2l-3.5-2.9a1.026 1.026 0 0 0-1.38.062l-.41.416a1.026 1.026 0 0 0 0 1.472l5.848 5.474a1.026 1.026 0 0 0 1.4 0l5.848-5.474a1.026 1.026 0 0 0 0-1.472l-.416-.416a1.026 1.026 0 0 0-1.38-.062l-3.447 2.9V55.686a1.026 1.026 0 0 0-1.026-1.026h-.513a1.026 1.026 0 0 0-1.024 1.026z" class="cls-2" transform="translate(-18.591 -21.014)"/>
        </g>
    </g>
</svg>
