<svg xmlns="http://www.w3.org/2000/svg" width="53.786" height="53.785" viewBox="0 0 53.786 53.785">
    <defs>
        <style>
            .cls-2{fill:#989898;stroke:#989898;stroke-width:.2px}
        </style>
    </defs>
    <g id="Grupo_5230" opacity="0.436" transform="translate(-1122.497 -296.927)">
        <g id="noun_movies_1367628" transform="translate(1122.597 297.027)">
            <path id="Trazado_332" d="M34.351 46.423a.671.671 0 0 0-.541-.456l-3.417-.5-1.528-3.1a.669.669 0 0 0-1.2 0l-1.529 3.1-3.417.5a.67.67 0 0 0-.371 1.142l2.472 2.41-.584 3.4a.67.67 0 0 0 .972.706l3.056-1.606 3.056 1.606a.67.67 0 0 0 .972-.706l-.583-3.4 2.472-2.411a.671.671 0 0 0 .17-.685zm-3.829 2.383a.672.672 0 0 0-.193.593l.414 2.412-2.166-1.138a.667.667 0 0 0-.624 0l-2.166 1.138.413-2.411a.67.67 0 0 0-.192-.593L24.256 47.1l2.422-.352a.667.667 0 0 0 .5-.366l1.084-2.194 1.083 2.194a.67.67 0 0 0 .5.366l2.422.352z" class="cls-2" transform="translate(-14.106 -20.567)"/>
            <path id="Trazado_333" d="M63.059 57.045h-2.327l1.775-34.951h.54a.67.67 0 0 0 .67-.67v-3.532a.67.67 0 0 0-.67-.67h-1.154v-1.3a2.073 2.073 0 0 0-2.071-2.071H43.413a2.073 2.073 0 0 0-2.071 2.071v1.3h-1.153a.67.67 0 0 0-.67.67v3.533a.67.67 0 0 0 .67.67h.855l1.84 34.951h-6.72l2.4-39.113a.669.669 0 0 0-.669-.711h-.975a5.86 5.86 0 0 0-6.02-5.354 6.361 6.361 0 0 0-2.738.613 6.132 6.132 0 0 0-5-2.48 6.037 6.037 0 0 0-5.673 3.72 4.54 4.54 0 0 0-1.523-.263 4.2 4.2 0 0 0-4.292 3.764h-.834a.669.669 0 0 0-.668.712l2.485 39.112h-1.845a.67.67 0 0 0-.67.67v5.2a.67.67 0 0 0 .67.67h52.246a.67.67 0 0 0 .67-.67v-5.2a.669.669 0 0 0-.669-.671zm-20.239-26.7h17.927l-.719 14.161H43.565zm-.137-14.425a.732.732 0 0 1 .731-.731h16.408a.732.732 0 0 1 .731.731v1.3h-17.87zm-1.824 2.638h21.518v2.193H40.859zm20.307 3.533l-.351 6.914H42.749l-.364-6.914zm-17.53 23.758h16.323l-.569 11.2H44.225zm-10.8 11.2a.689.689 0 0 0 .017-.074l.307-11.123h2.348l-.687 11.2h-1.985zM12.3 30.23h24.17l-.88 14.278H13.2zm17.039-1.34l.151-10.329h3.11l-.3 10.329zm-1.34 0h-2.962V18.561h3.109zm-4.3 0h-2.96l-.151-10.329H23.7V28.89zm-4.45-10.329L19.4 28.89h-2.959l-.3-10.329zm.388 27.287l.153 11.114a.677.677 0 0 0 .018.083H17.2a.681.681 0 0 0 .019-.111l-.307-11.087zm1.34 0H23.7v11.106a.611.611 0 0 0 .019.092h-2.61a.641.641 0 0 0 .019-.1zm4.062 11.105V45.849h2.721l-.153 11.1a.641.641 0 0 0 .019.1h-2.608a.619.619 0 0 0 .019-.095zm3.908.009l.153-11.114h2.72l-.307 11.087a.616.616 0 0 0 .019.111h-2.605a.827.827 0 0 0 .018-.084zm7.6-28.072h-2.914l.3-10.329h3.246zM15.975 14.8a3.174 3.174 0 0 1 1.6.431.669.669 0 0 0 .993-.437 4.609 4.609 0 0 1 4.6-3.451 4.736 4.736 0 0 1 4.18 2.352.672.672 0 0 0 .416.323.68.68 0 0 0 .521-.078 4.983 4.983 0 0 1 2.616-.73 4.532 4.532 0 0 1 4.673 4.014H13.039a2.864 2.864 0 0 1 2.936-2.424zM14.8 18.561l.3 10.329h-2.89l-.656-10.329zm-1.51 27.287h2.285l.308 11.123a.69.69 0 0 0 .017.074H14zm49.1 16.4H11.482v-3.863h50.907z" class="cls-2" transform="translate(-10.142 -10.001)"/>
        </g>
    </g>
</svg>
