<svg xmlns="http://www.w3.org/2000/svg" width="19.227" height="19.227" viewBox="0 0 19.227 19.227">
    <defs>
        <style>
            .cls-1 {fill: #161615;stroke: #161615;stroke-width: .2px}
        </style>
    </defs>
    <g id="noun_movies_1367628" transform="translate(.1 .1)">
        <path id="Trazado_332"
              d="M26.48 43.571a.238.238 0 0 0-.192-.162l-1.213-.176-.543-1.1a.237.237 0 0 0-.426 0l-.543 1.1-1.213.176a.238.238 0 0 0-.132.406l.878.856-.207 1.208a.238.238 0 0 0 .345.251l1.085-.57 1.085.57a.238.238 0 0 0 .345-.251l-.207-1.208.878-.856a.238.238 0 0 0 .06-.244zm-1.36.846a.239.239 0 0 0-.068.21l.147.856-.769-.4a.237.237 0 0 0-.221 0l-.769.4.147-.856a.238.238 0 0 0-.068-.21l-.622-.607.86-.125a.237.237 0 0 0 .179-.13l.385-.779.385.779a.238.238 0 0 0 .179.13l.86.125z"
              class="cls-1" transform="translate(-19.292 -34.39)"/>
        <path id="Trazado_333"
              d="M28.932 26.706h-.826l.63-12.411h.192a.238.238 0 0 0 .238-.238V12.8a.238.238 0 0 0-.238-.238h-.41V12.1a.736.736 0 0 0-.735-.735h-5.827a.736.736 0 0 0-.735.735v.461h-.41a.238.238 0 0 0-.238.238v1.254a.238.238 0 0 0 .238.238h.3l.653 12.411h-2.382l.851-13.888a.238.238 0 0 0-.233-.249h-.35a2.081 2.081 0 0 0-2.135-1.9 2.259 2.259 0 0 0-.972.218A2.177 2.177 0 0 0 14.768 10a2.144 2.144 0 0 0-2.014 1.321 1.612 1.612 0 0 0-.541-.093 1.491 1.491 0 0 0-1.524 1.336h-.3a.238.238 0 0 0-.237.253l.882 13.888h-.654a.238.238 0 0 0-.238.238v1.847a.238.238 0 0 0 .238.238h18.552a.238.238 0 0 0 .238-.238v-1.847a.238.238 0 0 0-.238-.237zm-7.187-9.48h6.366l-.255 5.028H22.01zM21.7 12.1a.26.26 0 0 1 .26-.26h5.826a.26.26 0 0 1 .26.26v.461H21.7zm-.648.937h7.638v.779h-7.641zM28.26 14.3l-.125 2.455H21.72l-.129-2.455zm-6.225 8.43h5.8l-.2 3.976h-5.391zM18.2 26.706a.246.246 0 0 0 .006-.026l.109-3.95h.834l-.244 3.976H18.2zm-7.293-9.522h8.582l-.311 5.07h-7.949zm6.05-.476l.054-3.668h1.1l-.108 3.668zm-.476 0h-1.05v-3.667h1.1zm-1.526 0H13.9l-.054-3.668h1.1v3.668zm-1.58-3.668l.054 3.668h-1.05l-.108-3.668zm.138 9.689l.054 3.947a.24.24 0 0 0 .006.029h-.925a.242.242 0 0 0 .007-.039l-.109-3.937zm.476 0h.966v3.943a.217.217 0 0 0 .007.033h-.925a.228.228 0 0 0 .007-.036zm1.442 3.943V22.73h.969l-.054 3.94a.227.227 0 0 0 .007.036h-.925a.22.22 0 0 0 .003-.033zm1.388 0l.054-3.947h.967l-.109 3.937a.219.219 0 0 0 .007.039h-.925a.293.293 0 0 0 .005-.025zm2.7-9.968h-1.036l.108-3.668h1.153zm-7.3-5a1.127 1.127 0 0 1 .569.153.238.238 0 0 0 .353-.155 1.636 1.636 0 0 1 1.633-1.225 1.682 1.682 0 0 1 1.484.835.239.239 0 0 0 .148.115.242.242 0 0 0 .185-.028 1.769 1.769 0 0 1 .929-.259 1.609 1.609 0 0 1 1.659 1.425h-8a1.017 1.017 0 0 1 1.034-.865zm-.419 1.337l.108 3.668h-1.032l-.233-3.668zm-.536 9.689h.812l.109 3.95a.245.245 0 0 0 .006.026h-.674zm17.435 5.823H10.618v-1.372h18.076z"
              class="cls-1" transform="translate(-10.142 -10.001)"/>
    </g>
</svg>
