<svg xmlns="http://www.w3.org/2000/svg" width="22.656" height="10.834" viewBox="0 0 22.656 10.834">
    <path fill="none" stroke="#b2b2b2" stroke-linecap="round" stroke-linejoin="round" stroke-width="2px" d="M20 9a8.775 8.775 0 0 1-1 1.514M12 14a8.478 8.478 0 0 1-4.051-1M12 14a8.478 8.478 0 0 0 4.051-1M12 14v3.5M4 9a8.963 8.963 0 0 0 1.106 1.645M7.949 13L5 16m2.949-3a9.635 9.635 0 0 1-2.842-2.355M16.051 13l2.449 3m-2.449-3A9.683 9.683 0 0 0 19 10.514m-13.894.13L2 12m17-1.486L22 12" transform="translate(-.684 -7.666)"/>
</svg>
