<svg id="Capa_1" data-name="Capa 1" xmlns="http://www.w3.org/2000/svg" viewBox="0 0 22.34 22.37"><defs><style>.cls-1{fill:none;}.cls-2{fill:#ffd400;}</style></defs><g id="Grupo_4171" data-name="Grupo 4171"><path id="Trazado_1092" data-name="Trazado 1092" class="cls-1" d="M.76,1.43H20.55V21.22H.76Z"/><path class="cls-2" d="M15.72,19.27H6.52a2.88,2.88,0,0,1-2.88-2.88V7.19A2.88,2.88,0,0,1,6.52,4.31h9.2A2.88,2.88,0,0,1,18.6,7.19v9.2A2.88,2.88,0,0,1,15.72,19.27ZM6.52,5.46A1.74,1.74,0,0,0,4.79,7.19v9.2a1.74,1.74,0,0,0,1.73,1.73h9.2a1.74,1.74,0,0,0,1.73-1.73V7.19a1.74,1.74,0,0,0-1.73-1.73Z"/><path class="cls-2" d="M14.57,7.76A.58.58,0,0,1,14,7.19V3.74a.58.58,0,0,1,.58-.58.57.57,0,0,1,.57.58V7.19A.57.57,0,0,1,14.57,7.76Z"/><path class="cls-2" d="M7.67,7.76a.58.58,0,0,1-.58-.57V3.74a.58.58,0,1,1,1.15,0V7.19A.58.58,0,0,1,7.67,7.76Z"/><path class="cls-2" d="M18,11.21H4.22a.57.57,0,0,1-.58-.57.58.58,0,0,1,.58-.58H18a.58.58,0,0,1,.58.58A.57.57,0,0,1,18,11.21Z"/><path class="cls-2" d="M13.42,14.66H8.82a.57.57,0,0,1-.58-.57.58.58,0,0,1,.58-.58h4.6a.57.57,0,0,1,.57.58A.56.56,0,0,1,13.42,14.66Z"/></g></svg>