<svg id="Capa_1" data-name="Capa 1" xmlns="http://www.w3.org/2000/svg" viewBox="0 0 11.95 11.96"><defs><style>.cls-1{fill:#ddd;}</style></defs><path class="cls-1" d="M8.45,10.08H3.6A1.51,1.51,0,0,1,2.09,8.57V3.73A1.52,1.52,0,0,1,3.6,2.22H8.45A1.52,1.52,0,0,1,10,3.73V8.57A1.51,1.51,0,0,1,8.45,10.08ZM3.6,2.82a.9.9,0,0,0-.9.91V8.57a.9.9,0,0,0,.9.91H8.45a.9.9,0,0,0,.9-.91V3.73a.9.9,0,0,0-.9-.91Z"/><path class="cls-1" d="M7.84,4a.29.29,0,0,1-.3-.3V1.91a.3.3,0,1,1,.6,0V3.73A.29.29,0,0,1,7.84,4Z"/><path class="cls-1" d="M4.21,4a.29.29,0,0,1-.3-.3V1.91a.3.3,0,1,1,.6,0V3.73A.29.29,0,0,1,4.21,4Z"/><path class="cls-1" d="M9.66,5.85H2.39a.31.31,0,0,1,0-.61H9.66a.31.31,0,0,1,0,.61Z"/><path class="cls-1" d="M7.24,7.66H4.81a.3.3,0,0,1,0-.6H7.24a.3.3,0,1,1,0,.6Z"/></svg>