<svg xmlns="http://www.w3.org/2000/svg" width="85.501" height="98.355" viewBox="0 0 85.501 98.355">
    <defs>
        <style>
            .cls-1{fill:#ffd400}.cls-4{stroke:#000;stroke-width:.2px}
        </style>
    </defs>
    <g id="Grupo_4753" transform="translate(-635 -1940.9)">
        <g id="Grupo_4486">
            <path id="Trazado_1562" d="M424.054 55.2l-6.854-6.9-6.9 6.949 6.9 6.9z" class="cls-1" transform="translate(296.448 1898.31)"/>
            <path id="Trazado_1563" d="M270.517 87.938a4.509 4.509 0 1 0-4.949-4.021 4.511 4.511 0 0 0 4.949 4.021z" class="cls-1" transform="translate(419.877 1931.703)"/>
            <g id="Elipse_236" fill="none" stroke="#ffd400" stroke-width="2px" transform="translate(635 1958)">
                <circle cx="7" cy="7" r="7" stroke="none"/>
                <circle cx="7" cy="7" r="6"/>
            </g>
            <path id="Trazado_1580" fill="#d9000d" d="M-784 5205.7h44l1.845 3.458v4.246l-4.429 2.645-1.514 3.928 1.514 3.7 4.429 2.438v5.49l-1.845 3.091h-44l-1.514-3.091v-5.49l5.544-2.437v-3.7l-2.434-6.573h-3.109z" transform="translate(1440.388 -3252.168)"/>
            <g id="Grupo_4457" transform="translate(642.022 1941)">
                <g id="noun_Ticket_3406775" transform="translate(12.025)">
                    <g id="Grupo_4454">
                        <path id="Trazado_1536" d="M30.852 56.009a.62.62 0 0 0-.364-1.091l-1.975-.1a.286.286 0 0 1-.26-.156l-.727-1.819a.614.614 0 0 0-1.143 0l-.727 1.819c0 .1-.1.156-.208.156l-1.975.156a.632.632 0 0 0-.364 1.091l1.507 1.247c.1.052.1.156.1.26l-.468 1.923a.608.608 0 0 0 .883.675l1.669-1.043a.331.331 0 0 1 .312 0l1.663 1.039a.591.591 0 0 0 .883-.675l-.468-1.923c0-.1 0-.208.1-.26z" class="cls-4" transform="translate(-12.302 -29.821)"/>
                        <path id="Trazado_1537" d="M50.052 56.009a.62.62 0 0 0-.364-1.091l-1.923-.1c-.1 0-.208-.052-.208-.156l-.727-1.822a.614.614 0 0 0-1.143 0l-.727 1.819a.449.449 0 0 1-.312.156l-1.975.156a.632.632 0 0 0-.364 1.091l1.507 1.247c.1.052.1.156.1.26l-.468 1.923a.608.608 0 0 0 .883.675L46 59.127a.331.331 0 0 1 .312 0l1.663 1.039a.591.591 0 0 0 .883-.675l-.468-1.923c0-.1 0-.208.1-.26z" class="cls-4" transform="translate(-21.525 -29.821)"/>
                        <path id="Trazado_1538" d="M69.3 56.009a.62.62 0 0 0-.364-1.091l-1.975-.1a.286.286 0 0 1-.26-.156l-.727-1.819a.614.614 0 0 0-1.143 0l-.727 1.819a.286.286 0 0 1-.26.156l-1.975.156a.632.632 0 0 0-.364 1.091l1.507 1.247c.1.052.1.156.1.26l-.412 1.919a.608.608 0 0 0 .883.675l1.663-1.039a.331.331 0 0 1 .312 0l1.663 1.039a.591.591 0 0 0 .883-.675l-.468-1.923c0-.1 0-.208.1-.26z" class="cls-4" transform="translate(-30.748 -29.821)"/>
                        <path id="Trazado_1539" d="M50.72 31.035a1.153 1.153 0 0 0 1.143-1.143V13.525A4.635 4.635 0 0 0 47.239 8.9H7.125A4.635 4.635 0 0 0 2.5 13.525v16.367a1.153 1.153 0 0 0 1.143 1.143 4.573 4.573 0 0 1 0 9.145A1.153 1.153 0 0 0 2.5 41.324v5.664a4.635 4.635 0 0 0 4.625 4.625h40.062a4.635 4.635 0 0 0 4.625-4.625v-5.664a1.153 1.153 0 0 0-1.143-1.143 4.573 4.573 0 1 1 .052-9.145zM4.838 13.525a2.307 2.307 0 0 1 2.286-2.286h40.063a2.307 2.307 0 0 1 2.286 2.286v1.351a4.317 4.317 0 0 0-2.286-.624H7.125a4.848 4.848 0 0 0-2.286.624v-1.351zm0 5.3a2.307 2.307 0 0 1 2.286-2.286h40.063a2.307 2.307 0 0 1 2.286 2.286v1.351a4.317 4.317 0 0 0-2.286-.624H7.125a4.848 4.848 0 0 0-2.286.624v-1.351zm44.687 23.59v4.625a2.307 2.307 0 0 1-2.286 2.286H7.125a2.307 2.307 0 0 1-2.287-2.286v-4.625a6.9 6.9 0 0 0 0-13.614v-4.624a2.307 2.307 0 0 1 2.287-2.287h40.062a2.307 2.307 0 0 1 2.286 2.286V28.8a6.921 6.921 0 0 0-5.768 6.807 7.059 7.059 0 0 0 5.82 6.808z" class="cls-4" transform="translate(-2.5 -8.9)"/>
                        <path id="Trazado_1540" d="M50.132 41.3H18.643a1.143 1.143 0 0 0 0 2.286H50.08a1.153 1.153 0 0 0 1.143-1.143 1.11 1.11 0 0 0-1.091-1.143z" class="cls-4" transform="translate(-9.706 -24.465)"/>
                        <path id="Trazado_1541" d="M50.132 74.8H18.643a1.143 1.143 0 1 0 0 2.286H50.08a1.153 1.153 0 0 0 1.143-1.143 1.078 1.078 0 0 0-1.091-1.143z" class="cls-4" transform="translate(-9.706 -40.558)"/>
                    </g>
                </g>
                <g id="noun_divider_486014" transform="translate(0 48.263)">
                    <g id="Grupo_4456">
                        <g id="Grupo_4455">
                            <path id="Trazado_1542" stroke="#000" stroke-width="0.5px" d="M456.323 428.636h-2.369v-30.913a6.01 6.01 0 1 0-6.843-4.148 45.412 45.412 0 0 1-43.16 0 5.907 5.907 0 1 0-6.845 4.152v30.914h-2.369v4.737H390v2.369h16.581v-2.369h-4.737v-4.737h-2.369v-30.918a5.9 5.9 0 0 0 3.349-2.032 48.03 48.03 0 0 0 45.412 0 5.883 5.883 0 0 0 3.349 2.032v30.914h-2.369v4.737h-4.737v2.369h16.581v-2.369h-4.737zm-56.848 4.737h-2.369V431h2.369zm-1.184-37.9a3.553 3.553 0 1 1 3.553-3.553 3.554 3.554 0 0 1-3.554 3.555zm50.927-3.553a3.553 3.553 0 1 1 3.553 3.553 3.554 3.554 0 0 1-3.554-3.551zm2.369 41.452V431h2.369v2.369z" transform="translate(-390 -386)"/>
                        </g>
                    </g>
                </g>
            </g>
        </g>
    </g>
</svg>
