<svg id="Capa_1" data-name="Capa 1" xmlns="http://www.w3.org/2000/svg" viewBox="0 0 11.95 11.96"><defs><style>.cls-1{fill:#ddd;}</style></defs><g id="noun_Theater_1171479" data-name="noun Theater 1171479"><g id="Grupo_4166" data-name="Grupo 4166"><path id="Trazado_1310" data-name="Trazado 1310" class="cls-1" d="M10.19,3.57a13.43,13.43,0,0,0-1.8-.24.29.29,0,0,0-.3.26.31.31,0,0,0,.27.3,10.65,10.65,0,0,1,1.49.19V6.94A3.16,3.16,0,0,1,8,9.82a1.09,1.09,0,0,1-.9,0,3.22,3.22,0,0,1-1-.7.28.28,0,0,0-.4,0,.28.28,0,0,0,0,.39,3.88,3.88,0,0,0,1.18.83,1.62,1.62,0,0,0,1.36,0,3.73,3.73,0,0,0,2.21-3.39V3.85A.28.28,0,0,0,10.19,3.57Z"/><path id="Trazado_1311" data-name="Trazado 1311" class="cls-1" d="M6.56,8.87a.29.29,0,0,0,.21-.09A1,1,0,0,1,8.2,8.71a.46.46,0,0,1,.07.07.28.28,0,0,0,.4,0,.27.27,0,0,0,0-.39h0a1.59,1.59,0,0,0-2.23-.1l-.09.1a.28.28,0,0,0,.2.47Z"/><path id="Trazado_1312" data-name="Trazado 1312" class="cls-1" d="M8.6,6.54a.83.83,0,0,0,.59-.26.28.28,0,0,0,0-.4.28.28,0,0,0-.39,0,.25.25,0,0,1-.35,0h0a.28.28,0,0,0-.39,0,.29.29,0,0,0,0,.4A.84.84,0,0,0,8.6,6.54Z"/><path id="Trazado_1313" data-name="Trazado 1313" class="cls-1" d="M7.3,5.18V2.09a.29.29,0,0,0-.23-.28,13,13,0,0,0-5.34,0,.28.28,0,0,0-.22.28V5.18A3.73,3.73,0,0,0,3.72,8.57a1.62,1.62,0,0,0,1.36,0A3.74,3.74,0,0,0,7.3,5.18ZM4.85,8.06a1.09,1.09,0,0,1-.9,0A3.17,3.17,0,0,1,2.07,5.18V2.31a12.64,12.64,0,0,1,4.67,0V5.18A3.18,3.18,0,0,1,4.85,8.06Z"/><path id="Trazado_1314" data-name="Trazado 1314" class="cls-1" d="M5.15,6.22a1,1,0,0,1-1.43.06l-.07-.06a.27.27,0,0,0-.39,0,.28.28,0,0,0,0,.4h0a1.58,1.58,0,0,0,2.23.09l.09-.09a.28.28,0,1,0-.41-.38Z"/><path id="Trazado_1315" data-name="Trazado 1315" class="cls-1" d="M6.06,4.7a.28.28,0,0,0,0-.39h0a.79.79,0,0,0-1.13,0l0,0a.27.27,0,0,0,0,.39.28.28,0,0,0,.4,0h0a.23.23,0,0,1,.34,0h0a.28.28,0,0,0,.4,0Z"/><path id="Trazado_1316" data-name="Trazado 1316" class="cls-1" d="M3.5,4.69a.28.28,0,0,0,.41-.38h0a.79.79,0,0,0-1.13,0l0,0a.28.28,0,0,0,0,.39.27.27,0,0,0,.39,0,.24.24,0,0,1,.35,0Z"/></g></g></svg>