<svg xmlns="http://www.w3.org/2000/svg" width="16.926" height="16.999" viewBox="0 0 16.926 16.999">
    <defs>
        <style>
            .cls-1{fill:#ffd400}
        </style>
    </defs>
    <g id="Grupo_4507" transform="translate(-5791.275 -3799)">
        <g id="noun_Theater_1171479" transform="translate(5755 3646.175)">
            <g id="Grupo_4166" transform="translate(36.275 152.825)">
                <path id="Trazado_1310" d="M103.372 62.092a25.115 25.115 0 0 0-3.418-.465.53.53 0 0 0-.248 1.015.526.526 0 0 0 .178.046 24.05 24.05 0 0 1 2.85.362v5.45a6.05 6.05 0 0 1-3.58 5.475 2.079 2.079 0 0 1-1.716 0 6.152 6.152 0 0 1-1.905-1.345.531.531 0 0 0-.766.736A7.209 7.209 0 0 0 97 74.941a3.14 3.14 0 0 0 2.594 0 7.114 7.114 0 0 0 4.2-6.443v-5.886a.532.532 0 0 0-.422-.52z" class="cls-1" transform="translate(-86.87 -58.222)"/>
                <path id="Trazado_1311" d="M105.155 128.783a.53.53 0 0 0 .388-.169 1.932 1.932 0 0 1 2.858 0 .531.531 0 1 0 .777-.724 2.994 2.994 0 0 0-4.412 0 .531.531 0 0 0 .389.893z" class="cls-1" transform="translate(-95.547 -114.845)"/>
                <path id="Trazado_1312" d="M129.575 98.539a1.51 1.51 0 0 0 1.114-.489.531.531 0 1 0-.777-.724.463.463 0 0 1-.675 0 .531.531 0 1 0-.777.724 1.509 1.509 0 0 0 1.115.489z" class="cls-1" transform="translate(-116.094 -89.035)"/>
                <path id="Trazado_1313" d="M47.276 42.93v-5.886a.531.531 0 0 0-.424-.52 24.885 24.885 0 0 0-10.154 0 .531.531 0 0 0-.423.52v5.886a7.114 7.114 0 0 0 4.2 6.443 3.14 3.14 0 0 0 2.594 0 7.115 7.115 0 0 0 4.207-6.443zm-4.642 5.476a2.079 2.079 0 0 1-1.716 0 6.05 6.05 0 0 1-3.58-5.476v-5.45a23.8 23.8 0 0 1 8.876 0v5.45a6.05 6.05 0 0 1-3.581 5.476z" class="cls-1" transform="translate(-36.275 -36.001)"/>
                <path id="Trazado_1314" d="M63.785 101.892a1.932 1.932 0 0 1-2.858 0 .531.531 0 1 0-.777.724 2.994 2.994 0 0 0 4.412 0 .531.531 0 1 0-.777-.724z" class="cls-1" transform="translate(-56.856 -92.995)"/>
                <path id="Trazado_1315" d="M86.044 73.2a.531.531 0 0 0 .026-.751 1.515 1.515 0 0 0-2.229 0 .531.531 0 0 0 .777.724.463.463 0 0 1 .675 0 .531.531 0 0 0 .751.026z" class="cls-1" transform="translate(-77.401 -67.184)"/>
                <path id="Trazado_1316" d="M54.347 73.173a.531.531 0 0 0 .777-.724 1.515 1.515 0 0 0-2.229 0 .531.531 0 0 0 .777.724.463.463 0 0 1 .675 0z" class="cls-1" transform="translate(-50.565 -67.184)"/>
            </g>
        </g>
    </g>
</svg>
