<svg xmlns="http://www.w3.org/2000/svg" width="17.866" height="14.738" viewBox="0 0 17.866 14.738">
    <defs>
        <style>
            .cls-1{fill:#ffd400}
        </style>
    </defs>
    <g id="Grupo_4509" transform="translate(-5791.046 -3907.867)">
        <g id="noun_Movie_1496008" transform="translate(5845 3913.705)">
            <g id="Group" transform="translate(-63 -22.133)">
                <path id="Compound_Path" d="M26.062 24.711a7.565 7.565 0 0 1-5.973 5.341 7.368 7.368 0 1 0-3.662.981h2.42a8.437 8.437 0 0 0 8.066-6.082zm-9.662 5.45a6.507 6.507 0 1 1 .022 0z" class="cls-1"/>
                <path id="Compound_Path-2" d="M35.784 29.268a1.984 1.984 0 1 0-1.984-1.984 1.984 1.984 0 0 0 1.984 1.984zm0-3.1a1.1 1.1 0 1 0 0 .022z" class="cls-1" transform="translate(-19.357 -7.042)"/>
                <path id="Compound_Path-3" d="M35.784 56.5a1.984 1.984 0 1 0 1.984 1.962 1.984 1.984 0 0 0-1.984-1.962zm0 3.1a1.123 1.123 0 1 0 0-.022z" class="cls-1" transform="translate(-19.358 -31.44)"/>
                <path id="Compound_Path-4" d="M53.268 42.884a1.984 1.984 0 1 0-1.984 1.984 1.984 1.984 0 0 0 1.984-1.984zM51.284 44a1.112 1.112 0 1 1 1.116-1.116A1.112 1.112 0 0 1 51.284 44z" class="cls-1" transform="translate(-31.478 -19.241)"/>
                <path id="Compound_Path-5" d="M20.205 40.9a1.984 1.984 0 1 0 1.962 1.984 1.984 1.984 0 0 0-1.962-1.984zm0 3.1a1.112 1.112 0 1 1 1.09-1.112A1.112 1.112 0 0 1 20.205 44z" class="cls-1" transform="translate(-7.158 -19.241)"/>
            </g>
        </g>
    </g>
</svg>
