<svg id="Grupo_5147" data-name="Grupo 5147" xmlns="http://www.w3.org/2000/svg" width="142.058" height="44.954" viewBox="0 0 142.058 44.954">
  <g id="Grupo_4104" data-name="Grupo 4104">
    <path id="Trazado_1195" data-name="Trazado 1195" d="M88.557,270.726l-.513.872H71.373l.408.7H87.63l-.793,1.347H72.566l.406.7H86.426l-.515.872H72.485l-2.646-4.489Z" transform="translate(-46.45 -258.391)" fill="#ffd400"/>
    <path id="Trazado_1196" data-name="Trazado 1196" d="M88.557,269.915l-.513-.872H71.373l.408-.7H87.63L86.837,267H72.566l.406-.7H86.426l-.515-.872H72.485l-2.646,4.489Z" transform="translate(-46.45 -258.391)" fill="#ffd400"/>
    <path id="Trazado_1197" data-name="Trazado 1197" d="M48.412,292.054l.513.873H65.593l-.406.7H49.336l.795,1.348H64.4l-.407.7H50.542l.514.872H64.483l2.644-4.489Z" transform="translate(-46.45 -258.391)" fill="#ffd400"/>
    <path id="Trazado_1198" data-name="Trazado 1198" d="M48.412,291.243l.513-.872H67l.4-.7H49.336l.795-1.348H68.166l.391-.7H50.542l.514-.872H69.939l-2.6,4.488Z" transform="translate(-46.45 -258.391)" fill="#ffd400"/>
    <path id="Trazado_1199" data-name="Trazado 1199" d="M86.851,292.829l-1.012-.015-8.272-14.472-.4.7L85.029,292.8l-1.565-.021-7.083-12.39-.4.7,6.675,11.679-1.011-.012L74.979,281.1l2.585-4.523Z" transform="translate(-46.45 -258.391)" fill="#ffd400"/>
    <path id="Trazado_1200" data-name="Trazado 1200" d="M87.573,292.509l.5-.878L79.8,277.158l.809.007,7.865,13.761.776-1.358-7.083-12.391.81.007,6.675,11.679.5-.878L83.5,276.329l-5.212-.069Z" transform="translate(-46.45 -258.391)" fill="#ffd400"/>
    <path id="Trazado_1201" data-name="Trazado 1201" d="M69.378,258.968l.5.878L61.6,274.316l.81-.006,7.868-13.76.774,1.359L63.972,274.3l.81-.007,6.677-11.677.5.878L65.3,275.147l-5.209.068Z" transform="translate(-46.45 -258.391)" fill="#ffd400"/>
    <path id="Trazado_1202" data-name="Trazado 1202" d="M68.774,258.391l-1.014.013-8.276,14.471-.4-.7,7.87-13.758-1.564.02L58.3,270.823l-.4-.7,6.677-11.678-1.01.013L56.9,270.113l2.583,4.525Z" transform="translate(-46.45 -258.391)" fill="#ffd400"/>
    <path id="Trazado_1203" data-name="Trazado 1203" d="M49.777,269.27l1.011,0,8.455,14.367.4-.707-8.04-13.66h1.563l7.24,12.3.4-.706-6.824-11.594h1.013L61.8,280.846,59.27,285.4Z" transform="translate(-46.45 -258.391)" fill="#ffd400"/>
    <path id="Trazado_1204" data-name="Trazado 1204" d="M48.977,269.509l-.491.885,8.454,14.367-.81,0L48.091,271.1l-.757,1.368,7.238,12.3-.81,0-6.823-11.594-.489.884,6.809,11.571,5.211,0Z" transform="translate(-46.45 -258.391)" fill="#ffd400"/>
    <path id="Trazado_1205" data-name="Trazado 1205" d="M67.373,303.027l-.517-.87,8.046-14.6-.81.02-7.65,13.882-.8-1.345,6.886-12.5-.808.018-6.492,11.783-.515-.871L71.2,286.785l5.209-.15Z" transform="translate(-46.45 -258.391)" fill="#ffd400"/>
    <path id="Trazado_1206" data-name="Trazado 1206" d="M68.048,303.345l1.012-.023,8.116-14.56.413.7L69.871,303.3l1.563-.038L78.386,290.8l.413.7-6.554,11.749,1.013-.024L79.8,291.495,77.163,287Z" transform="translate(-46.45 -258.391)" fill="#ffd400"/>
  </g>
  <g id="Grupo_4114" data-name="Grupo 4114" transform="translate(48.012 16.186)">
    <g id="Grupo_4105" data-name="Grupo 4105" transform="translate(8.303 16.257)">
      <path id="Trazado_1207" data-name="Trazado 1207" d="M106.2,290.878h-.322l-1.145,1.4-1.151-1.4h-.82v4.228h1.018V292.7l.955,1.167.948-1.164v2.4h1.021v-4.228h-.5Z" transform="translate(-102.765 -290.834)" fill="#d9000d"/>
      <path id="Trazado_1208" data-name="Trazado 1208" d="M114.928,293.165a1.064,1.064,0,0,1-.229.752.826.826,0,0,1-1.164,0,.992.992,0,0,1-.228-.714v-2.325h-1.02v2.334a1.947,1.947,0,0,0,.51,1.407,1.893,1.893,0,0,0,2.64-.008,2.037,2.037,0,0,0,.51-1.461v-2.272h-1.019Z" transform="translate(-102.765 -290.834)" fill="#d9000d"/>
      <path id="Trazado_1209" data-name="Trazado 1209" d="M122.552,290.878h-1.018v4.228h2.738v-.974h-1.721Z" transform="translate(-102.765 -290.834)" fill="#d9000d"/>
      <path id="Trazado_1210" data-name="Trazado 1210" d="M128.742,291.852h1.3v3.254h1.021v-3.254h1.3v-.974h-3.631Z" transform="translate(-102.765 -290.834)" fill="#d9000d"/>
      <rect id="Rect치ngulo_1010" data-name="Rect치ngulo 1010" width="1.018" height="4.228" transform="translate(34.889 0.044)" fill="#d9000d"/>
      <path id="Trazado_1211" data-name="Trazado 1211" d="M145.54,293.829a1.107,1.107,0,0,1-.325-.831,1.136,1.136,0,0,1,.327-.837,1.556,1.556,0,0,1,1.88-.037l.552.294v-1.16l-.219-.1a2.537,2.537,0,0,0-2.924.291,2.157,2.157,0,0,0-.014,3.088,2.2,2.2,0,0,0,1.584.614,3.011,3.011,0,0,0,1.408-.37l.2-.105v-1.129l-.551.293C146.629,294.279,145.957,294.238,145.54,293.829Z" transform="translate(-102.765 -290.834)" fill="#d9000d"/>
      <rect id="Rect치ngulo_1011" data-name="Rect치ngulo 1011" width="1.018" height="4.228" transform="translate(50.618 0.044)" fill="#d9000d"/>
      <path id="Trazado_1212" data-name="Trazado 1212" d="M162.918,293.289l-2.093-2.411h-.773v4.228h1.02v-2.413l2.1,2.413h.766v-4.228h-1.018Z" transform="translate(-102.765 -290.834)" fill="#d9000d"/>
      <path id="Trazado_1213" data-name="Trazado 1213" d="M170.622,293.469h1.585v-.976h-1.585v-.642h1.628v-.974H169.6v4.228h2.688v-.974h-1.668Z" transform="translate(-102.765 -290.834)" fill="#d9000d"/>
      <path id="Trazado_1214" data-name="Trazado 1214" d="M180.045,293.123a1.251,1.251,0,0,0-.438-.408,5.133,5.133,0,0,0-.627-.272.91.91,0,0,1-.355-.188.208.208,0,0,1-.048-.136.238.238,0,0,1,.088-.193.378.378,0,0,1,.272-.094,1.235,1.235,0,0,1,.589.214l.565.332v-1.171l-.193-.107a1.647,1.647,0,0,0-1.945.1,1.23,1.23,0,0,0-.416.929,1.127,1.127,0,0,0,.186.661,1.221,1.221,0,0,0,.423.39,5.844,5.844,0,0,0,.622.27.925.925,0,0,1,.368.2.288.288,0,0,1,.058.178.277.277,0,0,1-.1.22c-.146.137-.262.282-.916-.2l-.6-.441v1.259l.167.112a1.988,1.988,0,0,0,1.1.366,1.374,1.374,0,0,0,.973-.378,1.274,1.274,0,0,0,.412-.951A1.221,1.221,0,0,0,180.045,293.123Z" transform="translate(-102.765 -290.834)" fill="#d9000d"/>
    </g>
    <g id="Grupo_4113" data-name="Grupo 4113">
      <g id="Grupo_4106" data-name="Grupo 4106">
        <path id="Trazado_1215" data-name="Trazado 1215" d="M100.561,276.979h1.165a2.4,2.4,0,0,0,2.4-2.4h-3.565a5.911,5.911,0,0,0-4.3,1.775,5.982,5.982,0,0,0,0,8.547,5.94,5.94,0,0,0,4.3,1.759h3.565a2.4,2.4,0,0,0-2.4-2.4h-1.165a3.438,3.438,0,0,1-2.544-1.065,3.514,3.514,0,0,1-1.049-2.559,3.566,3.566,0,0,1,1.049-2.574A3.418,3.418,0,0,1,100.561,276.979Z" transform="translate(-94.462 -274.577)" fill="#d9000d"/>
      </g>
      <g id="Grupo_4107" data-name="Grupo 4107" transform="translate(10.842)">
        <path id="Trazado_1216" data-name="Trazado 1216" d="M115.21,274.577a5.922,5.922,0,0,0-4.318,1.775,5.791,5.791,0,0,0-1.8,4.281v3.711a.627.627,0,0,1-1.251-.065h0v-7.164a2.552,2.552,0,0,0-2.537-2.538v9.544a2.551,2.551,0,0,0,2.518,2.536h1.3a2.549,2.549,0,0,0,2.512-2.536v-3.488a3.572,3.572,0,0,1,1.042-2.574,3.394,3.394,0,0,1,2.537-1.08,3.358,3.358,0,0,1,2.52,1.087,3.581,3.581,0,0,1,1.042,2.567v3.488a2.554,2.554,0,0,0,2.538,2.537v-6.025a5.8,5.8,0,0,0-1.8-4.281A5.913,5.913,0,0,0,115.21,274.577Z" transform="translate(-105.304 -274.577)" fill="#d9000d"/>
      </g>
      <g id="Grupo_4108" data-name="Grupo 4108" transform="translate(45.629 0.181)">
        <path id="Trazado_1217" data-name="Trazado 1217" d="M166.592,274.758H150.645a4.672,4.672,0,0,0-3.388,1.383,4.5,4.5,0,0,0-1.412,3.344v2.1a2.793,2.793,0,0,1-.815,2.018,2.682,2.682,0,0,1-1.994.837h-.543a2.4,2.4,0,0,0-2.4,2.4h3.473a4.642,4.642,0,0,0,3.382-1.382,4.515,4.515,0,0,0,1.4-3.345v-2.1a2.767,2.767,0,0,1,.824-2.016,2.678,2.678,0,0,1,1.984-.838h.529c.044,0,.086,0,.129-.006l0,.005h7.423v6.962a2.55,2.55,0,0,0,2.537,2.537v-9.5h2.416a2.392,2.392,0,0,0,2.4-2.4Z" transform="translate(-140.091 -274.758)" fill="#d9000d"/>
      </g>
      <g id="Grupo_4110" data-name="Grupo 4110" transform="translate(70.862)">
        <g id="Grupo_4109" data-name="Grupo 4109">
          <path id="Trazado_1218" data-name="Trazado 1218" d="M184.945,274.577a5.963,5.963,0,0,0-4.311,1.759,5.742,5.742,0,0,0-1.806,4.266v3.683a.629.629,0,1,1-1.258,0v-3.652a5.771,5.771,0,0,0-1.813-4.281,6.132,6.132,0,0,0-8.63,0,5.966,5.966,0,0,0,0,8.547,5.966,5.966,0,0,0,4.311,1.759h7.4a2.549,2.549,0,0,0,2.527-2.537V280.6a3.528,3.528,0,0,1,1.043-2.559,3.415,3.415,0,0,1,2.537-1.064h1.162a2.4,2.4,0,0,0,2.4-2.4Zm-13.513,9.68a3.4,3.4,0,0,1-2.535-1.065,3.54,3.54,0,0,1-1.038-2.559,3.593,3.593,0,0,1,1.038-2.574,3.515,3.515,0,0,1,5.07,0A3.591,3.591,0,0,1,175,280.633v3.624Z" transform="translate(-165.324 -274.577)" fill="#d9000d"/>
        </g>
      </g>
      <g id="Grupo_4111" data-name="Grupo 4111" transform="translate(41.487 5.134)">
        <path id="Trazado_1219" data-name="Trazado 1219" d="M136.854,279.711a.906.906,0,1,0,.908.907A.906.906,0,0,0,136.854,279.711Z" transform="translate(-135.949 -279.711)" fill="#d9000d"/>
      </g>
      <g id="Grupo_4112" data-name="Grupo 4112" transform="translate(28.025)">
        <path id="Trazado_1220" data-name="Trazado 1220" d="M129.751,284.257h-1.164a3.387,3.387,0,0,1-2.521-1.072,3.625,3.625,0,0,1-.855-1.386h2.4a1.11,1.11,0,0,0,.129.012h1.984v0a1.2,1.2,0,0,0,0-2.4v0h-1.984c-.038,0-.073.007-.11.01h-2.405a3.686,3.686,0,0,1,.839-1.354,3.365,3.365,0,0,1,2.521-1.087h1.164a2.344,2.344,0,0,0,1.708-.7,2.3,2.3,0,0,0,.708-1.7h-3.58a5.906,5.906,0,0,0-4.3,1.775,5.978,5.978,0,0,0,0,8.547,5.934,5.934,0,0,0,4.3,1.759h3.58a2.306,2.306,0,0,0-.708-1.7A2.348,2.348,0,0,0,129.751,284.257Z" transform="translate(-122.487 -274.577)" fill="#d9000d"/>
      </g>
    </g>
  </g>
</svg>
