<svg xmlns="http://www.w3.org/2000/svg" width="142.058" height="44.954" viewBox="0 0 142.058 44.954">
    <defs>
        <style>
            .cls-1{fill:#ffd400}.cls-2{fill:#fff}
        </style>
    </defs>
    <g id="Grupo_4115" transform="translate(-46.45 -258.391)">
        <g id="Grupo_4104">
            <path id="Trazado_1195" d="M88.557 270.726l-.513.872H71.373l.408.7H87.63l-.793 1.347H72.566l.406.7h13.454l-.515.872H72.485l-2.646-4.489z" class="cls-1"/>
            <path id="Trazado_1196" d="M88.557 269.915l-.513-.872H71.373l.408-.7H87.63L86.837 267H72.566l.406-.7h13.454l-.515-.872H72.485l-2.646 4.489z" class="cls-1"/>
            <path id="Trazado_1197" d="M48.412 292.054l.513.873h16.668l-.406.7H49.336l.795 1.348H64.4l-.407.7H50.542l.514.872h13.427l2.644-4.489z" class="cls-1"/>
            <path id="Trazado_1198" d="M48.412 291.243l.513-.872H67l.4-.7H49.336l.795-1.348h18.035l.391-.7H50.542l.514-.872h18.883l-2.6 4.488z" class="cls-1"/>
            <path id="Trazado_1199" d="M86.851 292.829l-1.012-.015-8.272-14.472-.4.7 7.862 13.758-1.565-.021-7.083-12.39-.4.7 6.675 11.679-1.011-.012-6.666-11.656 2.585-4.523z" class="cls-1"/>
            <path id="Trazado_1200" d="M87.573 292.509l.5-.878-8.273-14.473.809.007 7.865 13.761.776-1.358-7.083-12.391.81.007 6.675 11.679.5-.878-6.652-11.656-5.212-.069z" class="cls-1"/>
            <path id="Trazado_1201" d="M69.378 258.968l.5.878-8.278 14.47.81-.006 7.868-13.76.774 1.359-7.08 12.391.81-.007 6.677-11.677.5.878-6.659 11.653-5.209.068z" class="cls-1"/>
            <path id="Trazado_1202" d="M68.774 258.391l-1.014.013-8.276 14.471-.4-.7 7.87-13.758-1.564.02-7.09 12.386-.4-.7 6.677-11.678-1.01.013-6.667 11.655 2.583 4.525z" class="cls-1"/>
            <path id="Trazado_1203" d="M49.777 269.27h1.011l8.455 14.367.4-.707-8.04-13.66h1.563l7.24 12.3.4-.706-6.824-11.594h1.013l6.805 11.576-2.53 4.554z" class="cls-1"/>
            <path id="Trazado_1204" d="M48.977 269.509l-.491.885 8.454 14.367h-.81L48.091 271.1l-.757 1.368 7.238 12.3h-.81l-6.823-11.594-.489.884 6.809 11.571h5.211z" class="cls-1"/>
            <path id="Trazado_1205" d="M67.373 303.027l-.517-.87 8.046-14.6-.81.02-7.65 13.882-.8-1.345 6.886-12.5-.808.018-6.492 11.783-.515-.871 6.487-11.759 5.209-.15z" class="cls-1"/>
            <path id="Trazado_1206" d="M68.048 303.345l1.012-.023 8.116-14.56.413.7-7.718 13.838 1.563-.038 6.952-12.462.413.7-6.554 11.749 1.013-.024 6.542-11.73L77.163 287z" class="cls-1"/>
        </g>
        <g id="Grupo_4114">
            <g id="Grupo_4105">
                <path id="Trazado_1207" d="M106.2 290.878h-.322l-1.145 1.4-1.151-1.4h-.82v4.228h1.018V292.7l.955 1.167.948-1.164v2.4h1.021v-4.228h-.5z" class="cls-2"/>
                <path id="Trazado_1208" d="M114.928 293.165a1.064 1.064 0 0 1-.229.752.826.826 0 0 1-1.164 0 .992.992 0 0 1-.228-.714v-2.325h-1.02v2.334a1.947 1.947 0 0 0 .51 1.407 1.893 1.893 0 0 0 2.64-.008 2.037 2.037 0 0 0 .51-1.461v-2.272h-1.019z" class="cls-2"/>
                <path id="Trazado_1209" d="M122.552 290.878h-1.018v4.228h2.738v-.974h-1.721z" class="cls-2"/>
                <path id="Trazado_1210" d="M128.742 291.852h1.3v3.254h1.021v-3.254h1.3v-.974h-3.631z" class="cls-2"/>
                <path id="Rectángulo_1010" d="M0 0H1.018V4.228H0z" class="cls-2" transform="translate(137.653 290.878)"/>
                <path id="Trazado_1211" d="M145.54 293.829a1.107 1.107 0 0 1-.325-.831 1.136 1.136 0 0 1 .327-.837 1.556 1.556 0 0 1 1.88-.037l.552.294v-1.16l-.219-.1a2.537 2.537 0 0 0-2.924.291 2.157 2.157 0 0 0-.014 3.088 2.2 2.2 0 0 0 1.584.614 3.011 3.011 0 0 0 1.408-.37l.2-.105v-1.129l-.551.293c-.829.439-1.501.398-1.918-.011z" class="cls-2"/>
                <path id="Rectángulo_1011" d="M0 0H1.018V4.228H0z" class="cls-2" transform="translate(153.383 290.878)"/>
                <path id="Trazado_1212" d="M162.918 293.289l-2.093-2.411h-.773v4.228h1.02v-2.413l2.1 2.413h.766v-4.228h-1.018z" class="cls-2"/>
                <path id="Trazado_1213" d="M170.622 293.469h1.585v-.976h-1.585v-.642h1.628v-.974h-2.65v4.228h2.688v-.974h-1.668z" class="cls-2"/>
                <path id="Trazado_1214" d="M180.045 293.123a1.251 1.251 0 0 0-.438-.408 5.133 5.133 0 0 0-.627-.272.91.91 0 0 1-.355-.188.208.208 0 0 1-.048-.136.238.238 0 0 1 .088-.193.378.378 0 0 1 .272-.094 1.235 1.235 0 0 1 .589.214l.565.332v-1.171l-.193-.107a1.647 1.647 0 0 0-1.945.1 1.23 1.23 0 0 0-.416.929 1.127 1.127 0 0 0 .186.661 1.221 1.221 0 0 0 .423.39 5.844 5.844 0 0 0 .622.27.925.925 0 0 1 .368.2.288.288 0 0 1 .058.178.277.277 0 0 1-.1.22c-.146.137-.262.282-.916-.2l-.6-.441v1.259l.167.112a1.988 1.988 0 0 0 1.1.366 1.374 1.374 0 0 0 .973-.378 1.274 1.274 0 0 0 .412-.951 1.221 1.221 0 0 0-.185-.692z" class="cls-2"/>
            </g>
            <g id="Grupo_4113">
                <g id="Grupo_4106">
                    <path id="Trazado_1215" d="M100.561 276.979h1.165a2.4 2.4 0 0 0 2.4-2.4h-3.565a5.911 5.911 0 0 0-4.3 1.775 5.982 5.982 0 0 0 0 8.547 5.94 5.94 0 0 0 4.3 1.759h3.565a2.4 2.4 0 0 0-2.4-2.4h-1.165a3.438 3.438 0 0 1-2.544-1.065 3.514 3.514 0 0 1-1.049-2.559 3.566 3.566 0 0 1 1.049-2.574 3.418 3.418 0 0 1 2.544-1.083z" class="cls-2"/>
                </g>
                <g id="Grupo_4107">
                    <path id="Trazado_1216" d="M115.21 274.577a5.922 5.922 0 0 0-4.318 1.775 5.791 5.791 0 0 0-1.8 4.281v3.711a.627.627 0 0 1-1.251-.065v-7.164a2.552 2.552 0 0 0-2.537-2.538v9.544a2.551 2.551 0 0 0 2.518 2.536h1.3a2.549 2.549 0 0 0 2.512-2.536v-3.488a3.572 3.572 0 0 1 1.042-2.574 3.394 3.394 0 0 1 2.537-1.08 3.358 3.358 0 0 1 2.52 1.087 3.581 3.581 0 0 1 1.042 2.567v3.488a2.554 2.554 0 0 0 2.538 2.537v-6.025a5.8 5.8 0 0 0-1.8-4.281 5.913 5.913 0 0 0-4.303-1.775z" class="cls-2"/>
                </g>
                <g id="Grupo_4108">
                    <path id="Trazado_1217" d="M166.592 274.758h-15.947a4.672 4.672 0 0 0-3.388 1.383 4.5 4.5 0 0 0-1.412 3.344v2.1a2.793 2.793 0 0 1-.815 2.018 2.682 2.682 0 0 1-1.994.837h-.543a2.4 2.4 0 0 0-2.4 2.4h3.473a4.642 4.642 0 0 0 3.382-1.382 4.515 4.515 0 0 0 1.4-3.345v-2.1a2.767 2.767 0 0 1 .824-2.016 2.678 2.678 0 0 1 1.984-.838h.529c.044 0 .086 0 .129-.006v.005h7.423v6.962a2.55 2.55 0 0 0 2.537 2.537v-9.5h2.416a2.392 2.392 0 0 0 2.4-2.4z" class="cls-2"/>
                </g>
                <g id="Grupo_4110">
                    <g id="Grupo_4109">
                        <path id="Trazado_1218" d="M184.945 274.577a5.963 5.963 0 0 0-4.311 1.759 5.742 5.742 0 0 0-1.806 4.266v3.683a.629.629 0 1 1-1.258 0v-3.652a5.771 5.771 0 0 0-1.813-4.281 6.132 6.132 0 0 0-8.63 0 5.966 5.966 0 0 0 0 8.547 5.966 5.966 0 0 0 4.311 1.759h7.4a2.549 2.549 0 0 0 2.527-2.537V280.6a3.528 3.528 0 0 1 1.043-2.559 3.415 3.415 0 0 1 2.537-1.064h1.162a2.4 2.4 0 0 0 2.4-2.4zm-13.513 9.68a3.4 3.4 0 0 1-2.535-1.065 3.54 3.54 0 0 1-1.038-2.559 3.593 3.593 0 0 1 1.038-2.574 3.515 3.515 0 0 1 5.07 0 3.591 3.591 0 0 1 1.033 2.574v3.624z" class="cls-2"/>
                    </g>
                </g>
                <g id="Grupo_4111">
                    <path id="Trazado_1219" d="M136.854 279.711a.906.906 0 1 0 .908.907.906.906 0 0 0-.908-.907z" class="cls-2"/>
                </g>
                <g id="Grupo_4112">
                    <path id="Trazado_1220" d="M129.751 284.257h-1.164a3.387 3.387 0 0 1-2.521-1.072 3.625 3.625 0 0 1-.855-1.386h2.4a1.11 1.11 0 0 0 .129.012h1.984a1.2 1.2 0 0 0 0-2.4h-1.984c-.038 0-.073.007-.11.01h-2.405a3.686 3.686 0 0 1 .839-1.354 3.365 3.365 0 0 1 2.521-1.087h1.164a2.344 2.344 0 0 0 1.708-.7 2.3 2.3 0 0 0 .708-1.7h-3.58a5.906 5.906 0 0 0-4.3 1.775 5.978 5.978 0 0 0 0 8.547 5.934 5.934 0 0 0 4.3 1.759h3.58a2.306 2.306 0 0 0-.708-1.7 2.348 2.348 0 0 0-1.706-.704z" class="cls-2"/>
                </g>
            </g>
        </g>
    </g>
</svg>
