<svg id="Capa_1" data-name="Capa 1" xmlns="http://www.w3.org/2000/svg" viewBox="0 0 11.95 11.96"><defs><style>.cls-1{fill:#ddd;}</style></defs><path class="cls-1" d="M6.1,7A1.88,1.88,0,1,1,8,5.13,1.88,1.88,0,0,1,6.1,7Zm0-3.16A1.28,1.28,0,1,0,7.38,5.13,1.28,1.28,0,0,0,6.1,3.85Z"/><path class="cls-1" d="M6.1,10.37A1.22,1.22,0,0,1,5.23,10h0l-2-2a4,4,0,0,1,0-5.67A4,4,0,0,1,8.94,8h0L7,10A1.24,1.24,0,0,1,6.1,10.37Zm-.44-.78a.63.63,0,0,0,.88,0l2-2A3.42,3.42,0,0,0,3.68,2.78a3.42,3.42,0,0,0,0,4.83l2,2ZM8.73,7.82Z"/></svg>