<svg id="Capa_1" data-name="Capa 1" xmlns="http://www.w3.org/2000/svg" viewBox="0 0 22.34 22.37"><defs><style>.cls-1{fill:none;}.cls-2{fill:#ffd400;}</style></defs><g id="Grupo_4170" data-name="Grupo 4170"><g id="Grupo_4164" data-name="Grupo 4164"><path id="Trazado_1308" data-name="Trazado 1308" class="cls-1" d="M.54.52h21.2v21.2H.54Z"/><path class="cls-2" d="M11.14,13.68a3.57,3.57,0,1,1,3.57-3.57A3.57,3.57,0,0,1,11.14,13.68Zm0-6a2.44,2.44,0,1,0,2.43,2.43A2.43,2.43,0,0,0,11.14,7.68Z"/><path class="cls-2" d="M11.14,20.06a2.35,2.35,0,0,1-1.65-.68h0L5.74,15.63a7.63,7.63,0,1,1,10.8,0h0l-3.75,3.75A2.35,2.35,0,0,1,11.14,20.06Zm-.84-1.47a1.23,1.23,0,0,0,1.69,0l3.75-3.75a6.5,6.5,0,1,0-9.2,0l3.75,3.74Zm5.84-3.36h0Z"/></g></g></svg>