<svg id="Capa_1" data-name="Capa 1" xmlns="http://www.w3.org/2000/svg" viewBox="0 0 46.21 21.35"><defs><style>.cls-1{fill:#ecb42a;}.cls-2{fill:#df962f;}.cls-3{fill:#e3831f;}.cls-4{fill:#dd5151;}.cls-5{fill:#c42c38;}.cls-6{fill:#ad252a;}.cls-7{fill:#fff;}.cls-8{fill:#dde3e3;}</style></defs><g id="business"><path id="Trazado_484" data-name="Trazado 484" class="cls-1" d="M40.81,10.56a9.91,9.91,0,0,1-19.82,0h0a9.91,9.91,0,0,1,19.82,0Z"/><path id="Trazado_485" data-name="Trazado 485" class="cls-2" d="M30.9.65a9.94,9.94,0,0,1,9.91,9.91h0a9.91,9.91,0,0,1-19.82,0v0"/><path id="Trazado_486" data-name="Trazado 486" class="cls-3" d="M30.9.65a9.94,9.94,0,0,1,9.91,9.91h0a9.91,9.91,0,0,1-9.89,9.91h0"/><path id="Trazado_487" data-name="Trazado 487" class="cls-4" d="M17.58.65a9.91,9.91,0,1,0,.1,19.82,10,10,0,0,0,6.66-2.57h0a9,9,0,0,0,1-1H23.29a12.2,12.2,0,0,1-.73-1h3.51a6,6,0,0,0,.58-1H22a6.39,6.39,0,0,1-.42-1.05H27a10.43,10.43,0,0,0,.52-3.14,12.25,12.25,0,0,0-.21-2.1H21.25a7.32,7.32,0,0,1,.26-1H27a5.23,5.23,0,0,0-.42-1H21.93a9,9,0,0,1,.58-1H26a5.07,5.07,0,0,0-.79-1.05H23.29a9.44,9.44,0,0,1,1-1A9.65,9.65,0,0,0,17.63.75C17.63.65,17.63.65,17.58.65Z"/><path id="Trazado_488" data-name="Trazado 488" class="cls-5" d="M7.77,10.56a9.9,9.9,0,0,0,9.89,9.91h0a10,10,0,0,0,6.66-2.57h0a8.28,8.28,0,0,0,1-1H23.29a12.2,12.2,0,0,1-.73-1h3.51a6,6,0,0,0,.58-1H22a6.39,6.39,0,0,1-.42-1.05H27a10.43,10.43,0,0,0,.52-3.14,12.25,12.25,0,0,0-.21-2.1H21.25a7.32,7.32,0,0,1,.26-1H27a5.23,5.23,0,0,0-.42-1H21.93a9,9,0,0,1,.58-1H26a5.07,5.07,0,0,0-.79-1.05H23.29a9.44,9.44,0,0,1,1-1A9.69,9.69,0,0,0,17.63.75h-.05"/><path id="Trazado_489" data-name="Trazado 489" class="cls-6" d="M17.68,20.47a10,10,0,0,0,6.66-2.57h0a9,9,0,0,0,1-1H23.29a10.23,10.23,0,0,1-.73-1h3.51a6.69,6.69,0,0,0,.58-1H22a6.39,6.39,0,0,1-.42-1.05H27a10.44,10.44,0,0,0,.53-3.14,14.65,14.65,0,0,0-.21-2.1H21.25a7.32,7.32,0,0,1,.26-1H27a6.76,6.76,0,0,0-.42-1H21.93a9,9,0,0,1,.58-1H26a5.07,5.07,0,0,0-.79-1.05H23.29a9.44,9.44,0,0,1,1-1A9.7,9.7,0,0,0,17.63.74h-.05"/><g id="Grupo_3950" data-name="Grupo 3950"><path id="Trazado_490" data-name="Trazado 490" class="cls-7" d="M21.2,13.08l.15-.9a2,2,0,0,1-.26.06c-.37,0-.42-.21-.37-.32L21,10.09h.58l.15-1h-.52l.1-.63H20.3s-.63,3.46-.63,3.88a.77.77,0,0,0,.68.88h.16A1.65,1.65,0,0,0,21.2,13.08Z"/><path id="Trazado_491" data-name="Trazado 491" class="cls-7" d="M21.56,11.4A1.67,1.67,0,0,0,23,13.23a1.09,1.09,0,0,0,.36,0,2.74,2.74,0,0,0,1.1-.15l.21-1a3.22,3.22,0,0,1-1.1.26c-1.16,0-.95-.84-.95-.84h2.15a6.08,6.08,0,0,0,.16-.95A1.42,1.42,0,0,0,23.66,9h-.21C22.35,8.93,21.56,10.09,21.56,11.4ZM23.4,9.88c.57,0,.47.68.47.73H22.72S22.82,9.88,23.4,9.88Z"/><path id="Trazado_492" data-name="Trazado 492" class="cls-7" d="M30.06,13.08l.21-1.16a2.54,2.54,0,0,1-.89.26c-.74,0-1.05-.57-1.05-1.2C28.33,9.72,29,9,29.69,9a1.73,1.73,0,0,1,.94.31l.16-1.1A3.79,3.79,0,0,0,29.59,8c-1.21,0-2.42,1-2.42,3,0,1.31.63,2.2,1.89,2.2A4.83,4.83,0,0,0,30.06,13.08Z"/><path id="Trazado_493" data-name="Trazado 493" class="cls-7" d="M15.43,8.93a3.83,3.83,0,0,0-1.26.21L14,10a3.26,3.26,0,0,1,1.16-.21c.36,0,.68.06.68.37s0,.26,0,.26h-.47c-.9,0-1.89.37-1.89,1.58a1,1,0,0,0,1,1.15,1.62,1.62,0,0,0,1.1-.47l0,.42h.94l.42-2.89a1.26,1.26,0,0,0-1.16-1.32Zm.21,2.36c0,.16-.1,1-.74,1a.4.4,0,0,1-.41-.39v0c0-.26.15-.62.94-.62a.78.78,0,0,0,.21,0Z"/><path id="Trazado_494" data-name="Trazado 494" class="cls-7" d="M17.84,13.18a1.33,1.33,0,0,0,1.55-1.09.82.82,0,0,0,0-.27c0-1.31-1.25-1.05-1.25-1.58,0-.26.21-.36.57-.36.16,0,.74,0,.74,0L19.62,9a3.69,3.69,0,0,0-1-.1c-.78,0-1.57.31-1.57,1.36s1.31,1.1,1.31,1.57c0,.32-.37.37-.63.37a3.31,3.31,0,0,1-.94-.16l-.16,1C16.69,13.08,17,13.18,17.84,13.18Z"/><path id="Trazado_495" data-name="Trazado 495" class="cls-7" d="M38.76,8.09l-.21,1.42a1.45,1.45,0,0,0-1-.52c-.94,0-1.78,1.15-1.78,2.51,0,.84.42,1.73,1.31,1.73a1.38,1.38,0,0,0,1-.42l0,.37h1l.79-5Zm-.47,2.78c0,.58-.26,1.31-.84,1.31-.37,0-.58-.31-.58-.83,0-.84.37-1.37.84-1.37S38.29,10.24,38.29,10.87Z"/><path id="Trazado_496" data-name="Trazado 496" class="cls-7" d="M9.72,13.13l.63-3.78.1,3.78h.73l1.36-3.78L12,13.13h1.1l.83-5H12.17l-1,3.1-.05-3.1H9.56l-.84,5Z"/><path id="Trazado_497" data-name="Trazado 497" class="cls-7" d="M26,13.13c.31-1.73.36-3.15,1.1-2.89A4.26,4.26,0,0,1,27.43,9h-.21c-.47,0-.83.63-.83.63l.1-.58h-1l-.69,4.09H26Z"/><path id="Trazado_498" data-name="Trazado 498" class="cls-7" d="M32.47,8.93a3.87,3.87,0,0,0-1.26.21l-.16.89a3.26,3.26,0,0,1,1.16-.21c.37,0,.68.06.68.37s0,.26,0,.26h-.47c-.89,0-1.89.37-1.89,1.58a1,1,0,0,0,1,1.15,1.62,1.62,0,0,0,1.1-.47l0,.42h.94l.42-2.89a1.22,1.22,0,0,0-1.12-1.32A1.51,1.51,0,0,0,32.47,8.93Zm.26,2.36c0,.16-.1,1-.73,1a.4.4,0,0,1-.42-.39v0c0-.26.16-.62.94-.62Z"/><path id="Trazado_499" data-name="Trazado 499" class="cls-7" d="M34.78,13.13c.31-1.73.36-3.15,1.1-2.89A4.26,4.26,0,0,1,36.24,9H36c-.47,0-.83.63-.83.63l.1-.58h-1l-.69,4.09h1.16Z"/></g><g id="Grupo_3951" data-name="Grupo 3951"><path id="Trazado_500" data-name="Trazado 500" class="cls-8" d="M19.57,12.34a.79.79,0,0,0,.67.89h.17a2.13,2.13,0,0,0,.79-.15l.15-.9a2,2,0,0,1-.26.06c-.37,0-.42-.21-.37-.32L21,10.09h.58l.15-1h-.52l.1-.63"/><path id="Trazado_501" data-name="Trazado 501" class="cls-8" d="M22.09,11.4c0,1.47.47,1.83,1.31,1.83a2.74,2.74,0,0,0,1.1-.15l.21-1a3.22,3.22,0,0,1-1.1.26c-1.16,0-.95-.84-.95-.84h2.15a6.08,6.08,0,0,0,.16-.95A1.42,1.42,0,0,0,23.66,9h-.21C22.35,8.93,22.09,10.09,22.09,11.4ZM23.4,9.88c.58,0,.68.68.68.73H22.72S22.82,9.88,23.4,9.88Z"/><path id="Trazado_502" data-name="Trazado 502" class="cls-8" d="M30.06,13.08l.21-1.16a2.54,2.54,0,0,1-.89.26c-.74,0-1.05-.57-1.05-1.2C28.33,9.72,29,9,29.69,9a1.73,1.73,0,0,1,.94.31l.16-1.1A3.79,3.79,0,0,0,29.59,8c-1.21,0-1.89,1-1.89,3,0,1.31.1,2.2,1.36,2.2A4.83,4.83,0,0,0,30.06,13.08Z"/><path id="Trazado_503" data-name="Trazado 503" class="cls-8" d="M14,10.09a3.06,3.06,0,0,1,1.16-.21c.36,0,.68,0,.68.36a.46.46,0,0,1,0,.27h-.48c-.89,0-1.88.36-1.88,1.57a1,1,0,0,0,1,1.15,1.54,1.54,0,0,0,1.1-.47l-.06.42h.95l.42-2.88C16.85,9.09,15.8,9,15.38,9m.79,2.25a1.69,1.69,0,0,1-1.26,1,.4.4,0,0,1-.42-.39v0c0-.26.16-.62.94-.62a4.47,4.47,0,0,0,.73,0Z"/><path id="Trazado_504" data-name="Trazado 504" class="cls-8" d="M16.69,13.08a4.83,4.83,0,0,0,1.2.1,1.36,1.36,0,0,0,1.56-1.1,2.45,2.45,0,0,0,0-.27c0-1.31-1.26-1.05-1.26-1.57,0-.26.21-.37.57-.37.16,0,.74.05.74.05L19.68,9a4.24,4.24,0,0,0-1-.1c-.79,0-1.05.32-1.05,1.36,0,1.21.78,1.1.78,1.58,0,.31-.36.36-.63.36"/><path id="Trazado_505" data-name="Trazado 505" class="cls-8" d="M38.55,9.51a1.45,1.45,0,0,0-1-.52c-.94,0-1.26,1.15-1.26,2.51,0,.84-.1,1.73.79,1.73a1.38,1.38,0,0,0,1-.42l0,.37h1l.78-5M38.5,10.87c0,.58-.47,1.31-1,1.31-.37,0-.58-.31-.58-.83,0-.84.37-1.37.84-1.37a.8.8,0,0,1,.79.81v.08Z"/><path id="Trazado_506" data-name="Trazado 506" class="cls-8" d="M9.72,13.13l.63-3.78.1,3.78h.73l1.36-3.78L12,13.13h1.1l.83-5H12.6l-1.47,3.1-.05-3.1H10.5l-1.78,5Z"/><path id="Trazado_507" data-name="Trazado 507" class="cls-8" d="M24.87,13.13H26c.31-1.73.36-3.15,1.1-2.89A4.26,4.26,0,0,1,27.43,9h-.21c-.47,0-.84.63-.84.63l.1-.58"/><path id="Trazado_508" data-name="Trazado 508" class="cls-8" d="M31.05,10.09a3.06,3.06,0,0,1,1.16-.21c.36,0,.68,0,.68.36a.46.46,0,0,1,0,.27h-.47c-.9,0-1.89.36-1.89,1.57a1,1,0,0,0,1,1.15,1.54,1.54,0,0,0,1.1-.47l0,.42h.94l.42-2.88c0-1.21-1-1.26-1.47-1.26m.79,2.25a1.69,1.69,0,0,1-1.26,1,.4.4,0,0,1-.42-.39v0c0-.26.16-.62.94-.62a4.53,4.53,0,0,0,.73,0Z"/><path id="Trazado_509" data-name="Trazado 509" class="cls-8" d="M33.68,13.13h1.1c.31-1.73.36-3.15,1.1-2.89A4.26,4.26,0,0,1,36.24,9H36c-.47,0-.84.63-.84.63l.1-.58"/></g></g></svg>