<svg xmlns="http://www.w3.org/2000/svg" width="55.813" height="56.945" viewBox="0 0 55.813 56.945">
    <defs>
        <style>
            .cls-1{fill:#ffd400}.cls-2{fill:#b3b3b3}
        </style>
    </defs>
    <g id="Grupo_5127" transform="translate(-159.916 -364.692)">
        <g id="Grupo_5121" transform="translate(101.916 178.691)">
            <g id="Grupo_5120" transform="translate(58 186)">
                <circle id="Elipse_287" cx="9.124" cy="9.124" r="9.124" class="cls-1" transform="translate(30.882 7.807)"/>
                <path id="Trazado_3496" d="M214.692 92.189h12.478s1.659-12.764-4.977-14.422c0-.001-10.026-1.016-7.501 14.422z" class="cls-1" transform="translate(-192.97 -36.782)"/>
                <g id="Grupo_5136">
                    <g id="Grupo_5135">
                        <g id="noun_Cinema_2871084">
                            <g id="Grupo_5134">
                                <g id="Grupo_5133">
                                    <g id="Grupo_5120-2" transform="translate(2.458 29.407)">
                                        <path id="Trazado_3496-2" d="M252.953 98.32h-49.174a.862.862 0 0 1-.861-.861V71.643a.861.861 0 0 1 .861-.861h49.175a.86.86 0 0 1 .861.861V97.46a.86.86 0 0 1-.862.86zM204.64 96.6h47.453V72.5H204.64z" class="cls-2" transform="translate(-202.918 -70.782)"/>
                                    </g>
                                    <g id="Grupo_5121-2" transform="translate(0 24.489)">
                                        <path id="Trazado_3497" d="M256.388 74.456H202.3a.862.862 0 0 1-.861-.861v-4.917a.861.861 0 0 1 .861-.861h54.092a.86.86 0 0 1 .861.861v4.917a.861.861 0 0 1-.865.861zm-53.232-1.722h52.371v-3.2h-52.37z" class="cls-2" transform="translate(-201.436 -67.817)"/>
                                    </g>
                                    <g id="Grupo_5122" transform="translate(20.899 40.464)">
                                        <path id="Trazado_3498" d="M227.189 93.926h-12.294a.862.862 0 0 1-.861-.861v-8.606a7.007 7.007 0 1 1 14.014-.01v8.616a.861.861 0 0 1-.859.861zM215.756 92.2h10.572v-7.741a5.287 5.287 0 0 0-10.572 0z" class="cls-2" transform="translate(-214.034 -77.447)"/>
                                    </g>
                                    <g id="Grupo_5123" transform="translate(2.458 35.552)">
                                        <path id="Trazado_3499" d="M208.7 88.5h-4.917a.862.862 0 0 1-.861-.861V75.347a.861.861 0 0 1 .861-.861h4.917a.86.86 0 0 1 .861.861v12.294a.861.861 0 0 1-.861.861zm-4.058-1.72h3.2V76.21h-3.2z" class="cls-2" transform="translate(-202.918 -74.486)"/>
                                    </g>
                                    <g id="Grupo_5124" transform="translate(46.716 35.552)">
                                        <path id="Trazado_3500" d="M235.375 88.5h-4.917a.862.862 0 0 1-.861-.861V75.347a.861.861 0 0 1 .861-.861h4.917a.86.86 0 0 1 .861.861v12.294a.861.861 0 0 1-.861.861zm-4.058-1.72h3.2V76.21h-3.2z" class="cls-2" transform="translate(-229.597 -74.486)"/>
                                    </g>
                                    <g id="Grupo_5125" transform="translate(14.495 3.414)">
                                        <path id="Trazado_3501" d="M213.792 62.349a3.618 3.618 0 1 1 3.618-3.618 3.621 3.621 0 0 1-3.618 3.618zm0-5.514a1.9 1.9 0 1 0 1.9 1.9 1.9 1.9 0 0 0-1.9-1.9z" class="cls-2" transform="translate(-210.174 -55.113)"/>
                                    </g>
                                    <g id="Grupo_5126" transform="translate(20.56 9.479)">
                                        <path id="Trazado_3502" d="M217.448 66.005a3.618 3.618 0 1 1 3.618-3.618 3.621 3.621 0 0 1-3.618 3.618zm0-5.514a1.9 1.9 0 1 0 1.9 1.9 1.9 1.9 0 0 0-1.9-1.9z" class="cls-2" transform="translate(-213.83 -58.769)"/>
                                    </g>
                                    <g id="Grupo_5127-2" transform="translate(8.432 9.479)">
                                        <path id="Trazado_3503" d="M210.137 66.005a3.618 3.618 0 1 1 3.618-3.618 3.621 3.621 0 0 1-3.618 3.618zm0-5.514a1.9 1.9 0 1 0 1.9 1.9 1.9 1.9 0 0 0-1.9-1.894z" class="cls-2" transform="translate(-206.519 -58.769)"/>
                                    </g>
                                    <g id="Grupo_5128" transform="translate(14.495 15.544)">
                                        <path id="Trazado_3504" d="M213.792 69.661a3.618 3.618 0 1 1 3.618-3.618 3.621 3.621 0 0 1-3.618 3.618zm0-5.514a1.9 1.9 0 1 0 1.9 1.9 1.9 1.9 0 0 0-1.9-1.9z" class="cls-2" transform="translate(-210.174 -62.425)"/>
                                    </g>
                                    <g id="Grupo_5129" transform="translate(5.007)">
                                        <path id="Trazado_3505" d="M217.559 79.266a13.105 13.105 0 1 1 13.105-13.106 13.105 13.105 0 0 1-13.105 13.106zm0-24.5a11.392 11.392 0 1 0 11.392 11.392 11.4 11.4 0 0 0-11.392-11.396z" class="cls-2" transform="translate(-204.454 -53.055)"/>
                                    </g>
                                    <g id="Grupo_5130" transform="translate(29.588 6.131)">
                                        <path id="Trazado_3506" d="M229.312 76.83a10.04 10.04 0 1 1 10.04-10.04 10.041 10.041 0 0 1-10.04 10.04zm0-18.357a8.318 8.318 0 1 0 8.318 8.318 8.318 8.318 0 0 0-8.318-8.318z" class="cls-2" transform="translate(-219.272 -56.751)"/>
                                    </g>
                                    <g id="Grupo_5131" transform="translate(38.193 14.738)">
                                        <path id="Trazado_3507" d="M225.892 64.806a1.433 1.433 0 1 1 1.433-1.433 1.434 1.434 0 0 1-1.433 1.433zm0-1.722a.287.287 0 1 0 .287.287.287.287 0 0 0-.287-.287z" class="cls-2" transform="translate(-224.459 -61.939)"/>
                                    </g>
                                    <g id="Grupo_5132" transform="translate(20.897 35.553)">
                                        <path id="Trazado_3508" d="M227.19 76.209H214.9a.861.861 0 0 1 0-1.722h12.3a.861.861 0 0 1 0 1.722z" class="cls-2" transform="translate(-214.033 -74.487)"/>
                                    </g>
                                </g>
                            </g>
                        </g>
                    </g>
                </g>
            </g>
        </g>
    </g>
</svg>
