<svg xmlns="http://www.w3.org/2000/svg" width="12.056" height="10.07" viewBox="0 0 12.056 10.07">
  <g id="Grupo_5146" data-name="Grupo 5146" transform="translate(-151.493 -79.34)">
    <g id="Grupo_5145" data-name="Grupo 5145" transform="translate(0 -3)">
      <g id="Grupo_5144" data-name="Grupo 5144">
        <path id="Rectángulo_1809" data-name="Rectángulo 1809" d="M89.038-106.578h4.523a1.488,1.488,0,0,1,1.508,1.468v5.87a1.487,1.487,0,0,1-1.508,1.467H89.038a1.488,1.488,0,0,1-1.508-1.467v-5.87A1.489,1.489,0,0,1,89.038-106.578Z" transform="translate(66.228 189.168)" fill="#fff" stroke="#dbdbdb" stroke-width="0.5"/>
        <rect id="Rectángulo_1844" data-name="Rectángulo 1844" width="1.953" height="7.96" rx="0.976" transform="translate(161.215 83.333)" fill="#fff" stroke="#e8e8e8" stroke-width="0.5"/>
        <rect id="Rectángulo_1845" data-name="Rectángulo 1845" width="1.953" height="7.96" rx="0.976" transform="translate(151.911 83.333)" fill="#fff" stroke="#e8e8e8" stroke-width="0.5"/>
        <path id="Unión_1" data-name="Unión 1" d="M-7155.92-11304.705a.824.824,0,0,1-.823-.823.819.819,0,0,1,.172-.5l.111-.231a5.27,5.27,0,0,1,1.868-1.246l7.163-.082c.264.082.238.082,1.141.743l.849.707a.851.851,0,0,1,.1.128.823.823,0,0,1,.157.484.821.821,0,0,1-.82.823Z" transform="translate(7308.486 11396.865)" fill="#fff" stroke="#dbdbdb" stroke-miterlimit="10" stroke-width="0.5"/>
      </g>
    </g>
  </g>
</svg>
