<svg xmlns="http://www.w3.org/2000/svg" width="129" height="105" viewBox="0 0 129 105">
    <defs>
        <style>
            .cls-2{fill:#ffd400}.cls-3{fill:#b3b3b3}
        </style>
    </defs>
    <g id="Grupo_5175" transform="translate(-24 -155.433)">
        <g id="Grupo_5142" transform="translate(24 155)">
            <rect id="d4b902022c6a909dcdcf0e2f52350bfc" width="129" height="105" fill="#f8f8f8" rx="15" transform="translate(0 .433)"/>
            <g id="Grupo_5121" transform="translate(42.173 33.491)">
                <g id="Grupo_5120">
                    <circle id="Elipse_287" cx="6.822" cy="6.822" r="6.822" class="cls-2" transform="translate(23.091 5.837)"/>
                    <path id="Trazado_3496" d="M214.589 88.547h9.33S225.16 79 220.2 77.763c0 0-7.5-.763-5.611 10.784z" class="cls-2" transform="translate(-198.347 -47.118)"/>
                    <g id="Grupo_5136">
                        <g id="Grupo_5135">
                            <g id="noun_Cinema_2871084">
                                <g id="Grupo_5134">
                                    <g id="Grupo_5133">
                                        <g id="Grupo_5120-2" transform="translate(1.838 21.988)">
                                            <path id="Trazado_3496-2" d="M240.33 91.372h-36.768a.645.645 0 0 1-.644-.644v-19.3a.644.644 0 0 1 .644-.644h36.768a.643.643 0 0 1 .644.644v19.3a.643.643 0 0 1-.644.644zm-36.125-1.288h35.481V72.07h-35.48z" class="cls-3" transform="translate(-202.918 -70.782)"/>
                                        </g>
                                        <g id="Grupo_5121-2" transform="translate(0 18.311)">
                                            <path id="Trazado_3497" d="M242.525 72.781H202.08a.645.645 0 0 1-.644-.644v-3.676a.644.644 0 0 1 .644-.644h40.445a.643.643 0 0 1 .644.644v3.677a.644.644 0 0 1-.644.643zm-39.8-1.288h39.159V69.1h-39.16z" class="cls-3" transform="translate(-201.436 -67.817)"/>
                                        </g>
                                        <g id="Grupo_5122" transform="translate(15.626 30.255)">
                                            <path id="Trazado_3498" d="M223.87 89.769h-9.193a.645.645 0 0 1-.644-.644V82.69a5.239 5.239 0 1 1 10.479-.007v6.443a.644.644 0 0 1-.642.643zm-8.549-1.288h7.9V82.69a3.953 3.953 0 0 0-7.9 0z" class="cls-3" transform="translate(-214.034 -77.447)"/>
                                        </g>
                                        <g id="Grupo_5123" transform="translate(1.838 26.583)">
                                            <path id="Trazado_3499" d="M207.238 84.966h-3.677a.645.645 0 0 1-.644-.644V75.13a.644.644 0 0 1 .644-.644h3.677a.643.643 0 0 1 .644.644v9.192a.644.644 0 0 1-.644.644zM204.2 83.68h2.39v-7.9h-2.389z" class="cls-3" transform="translate(-202.918 -74.486)"/>
                                        </g>
                                        <g id="Grupo_5124" transform="translate(34.93 26.583)">
                                            <path id="Trazado_3500" d="M233.917 84.966h-3.676a.645.645 0 0 1-.644-.644V75.13a.644.644 0 0 1 .644-.644h3.676a.643.643 0 0 1 .644.644v9.192a.644.644 0 0 1-.644.644zm-3.034-1.286h2.39v-7.9h-2.39z" class="cls-3" transform="translate(-229.597 -74.486)"/>
                                        </g>
                                        <g id="Grupo_5125" transform="translate(10.838 2.553)">
                                            <path id="Trazado_3501" d="M212.879 60.524a2.705 2.705 0 1 1 2.705-2.705 2.708 2.708 0 0 1-2.705 2.705zm0-4.123a1.418 1.418 0 1 0 1.418 1.418 1.418 1.418 0 0 0-1.418-1.418z" class="cls-3" transform="translate(-210.174 -55.113)"/>
                                        </g>
                                        <g id="Grupo_5126" transform="translate(15.373 7.088)">
                                            <path id="Trazado_3502" d="M216.535 64.18a2.705 2.705 0 1 1 2.705-2.705 2.708 2.708 0 0 1-2.705 2.705zm0-4.123a1.418 1.418 0 1 0 1.418 1.418 1.418 1.418 0 0 0-1.418-1.418z" class="cls-3" transform="translate(-213.83 -58.769)"/>
                                        </g>
                                        <g id="Grupo_5127" transform="translate(6.305 7.088)">
                                            <path id="Trazado_3503" d="M209.224 64.18a2.705 2.705 0 1 1 2.705-2.705 2.708 2.708 0 0 1-2.705 2.705zm0-4.123a1.418 1.418 0 1 0 1.418 1.418 1.418 1.418 0 0 0-1.418-1.417z" class="cls-3" transform="translate(-206.519 -58.769)"/>
                                        </g>
                                        <g id="Grupo_5128" transform="translate(10.838 11.622)">
                                            <path id="Trazado_3504" d="M212.879 67.836a2.705 2.705 0 1 1 2.705-2.705 2.708 2.708 0 0 1-2.705 2.705zm0-4.123a1.418 1.418 0 1 0 1.421 1.417 1.418 1.418 0 0 0-1.418-1.418z" class="cls-3" transform="translate(-210.174 -62.425)"/>
                                        </g>
                                        <g id="Grupo_5129" transform="translate(3.743)">
                                            <path id="Trazado_3505" d="M214.253 72.653a9.8 9.8 0 1 1 9.8-9.8 9.8 9.8 0 0 1-9.8 9.8zm0-18.322a8.518 8.518 0 1 0 8.518 8.518 8.527 8.527 0 0 0-8.518-8.518z" class="cls-3" transform="translate(-204.454 -53.055)"/>
                                        </g>
                                        <g id="Grupo_5130" transform="translate(22.123 4.584)">
                                            <path id="Trazado_3506" d="M226.779 71.765a7.507 7.507 0 1 1 7.507-7.507 7.508 7.508 0 0 1-7.507 7.507zm0-13.726A6.219 6.219 0 1 0 233 64.258a6.22 6.22 0 0 0-6.221-6.219z" class="cls-3" transform="translate(-219.272 -56.751)"/>
                                        </g>
                                        <g id="Grupo_5131" transform="translate(28.557 11.02)">
                                            <path id="Trazado_3507" d="M225.531 64.082a1.072 1.072 0 1 1 1.072-1.072 1.072 1.072 0 0 1-1.072 1.072zm0-1.288a.215.215 0 1 0 .215.215.215.215 0 0 0-.215-.215z" class="cls-3" transform="translate(-224.459 -61.939)"/>
                                        </g>
                                        <g id="Grupo_5132" transform="translate(15.625 26.584)">
                                            <path id="Trazado_3508" d="M223.87 75.775h-9.193a.644.644 0 0 1 0-1.288h9.2a.644.644 0 0 1 0 1.288z" class="cls-3" transform="translate(-214.033 -74.487)"/>
                                        </g>
                                    </g>
                                </g>
                            </g>
                        </g>
                    </g>
                </g>
            </g>
        </g>
    </g>
</svg>
