<svg xmlns="http://www.w3.org/2000/svg" width="65.514" height="49.308" viewBox="0 0 65.514 49.308">
    <defs>
        <style>
            .cls-2{fill:#b2b2b2}
        </style>
    </defs>
    <g id="Grupo_5126" transform="translate(-151.116 -372.691)">
        <circle id="Elipse_288" cx="6" cy="6" r="6" fill="#ffd400" transform="translate(199 391)"/>
        <g id="noun_movies_2024622" transform="translate(151.116 372.691)">
            <path id="Trazado_327" d="M47.152 16.5a23.793 23.793 0 0 0-17.857 39.535 24.862 24.862 0 0 0-5.438-.514 23.561 23.561 0 0 0-18.151 8.45 1.071 1.071 0 0 0 .147 1.543 1.306 1.306 0 0 0 .735.294 1.053 1.053 0 0 0 .808-.367A21.607 21.607 0 0 1 23.857 57.8a19.167 19.167 0 0 1 9.994 2.278A23.816 23.816 0 1 0 47.152 16.5zm0 45.34a21.6 21.6 0 1 1 21.6-21.6 21.64 21.64 0 0 1-21.6 21.6z" class="cls-2" transform="translate(-5.447 -16.5)"/>
            <path id="Trazado_328" d="M76.514 39.8a6.614 6.614 0 1 0 6.614 6.614 6.586 6.586 0 0 0-6.614-6.614zm0 11.1a4.409 4.409 0 1 1 4.409-4.409 4.422 4.422 0 0 1-4.409 4.409z" class="cls-2" transform="translate(-22.537 -22.678)"/>
            <path id="Trazado_329" d="M43.214 39.8a6.614 6.614 0 1 0 6.614 6.614 6.586 6.586 0 0 0-6.614-6.614zm0 11.1a4.409 4.409 0 1 1 4.409-4.409 4.422 4.422 0 0 1-4.409 4.409z" class="cls-2" transform="translate(-13.707 -22.678)"/>
            <path id="Trazado_330" d="M59.814 36.427a6.614 6.614 0 1 0-6.614-6.613 6.586 6.586 0 0 0 6.614 6.613zm0-11.023a4.409 4.409 0 1 1-4.414 4.41 4.422 4.422 0 0 1 4.414-4.414z" class="cls-2" transform="translate(-18.109 -18.277)"/>
            <path id="Trazado_331" d="M59.814 56.5a6.614 6.614 0 1 0 6.614 6.614 6.586 6.586 0 0 0-6.614-6.614zm0 11.023a4.409 4.409 0 1 1 4.409-4.409 4.422 4.422 0 0 1-4.409 4.409z" class="cls-2" transform="translate(-18.109 -27.106)"/>
            <circle id="Elipse_128" cx="2.866" cy="2.866" r="2.866" class="cls-2" transform="translate(38.839 20.87)"/>
        </g>
    </g>
</svg>
