<svg xmlns="http://www.w3.org/2000/svg" width="92" height="94" viewBox="0 0 92 94">
    <defs>
        <style>
            .cls-2{fill:#ffd50a}.cls-3{fill:#d3d3d3;stroke:#d3d3d3;stroke-width:.2px}
        </style>
    </defs>
    <g id="Grupo_5251" transform="translate(-38 -449)">
        <rect id="Rectángulo_2206" width="92" height="94" fill="#f8f8f8" rx="16" transform="translate(38 449)"/>
        <path id="Trazado_3573" d="M0 0h13l-.729 10H.278z" class="cls-2" transform="translate(88 492)"/>
        <path id="Trazado_3574" d="M7966.344 14527h2.623l.9-2.445.792 1.682 2.31.764-1.6 1.871.619 2.5-2.125-1.54-2.248 1.54v-2.5z" class="cls-2" transform="translate(-7894 -14031)"/>
        <g id="noun_movies_1367628" transform="translate(66.139 478.472)">
            <path id="Trazado_332" d="M30.365 44.979a.452.452 0 0 0-.365-.307l-2.3-.335-1.029-2.084a.45.45 0 0 0-.808 0l-1.029 2.084-2.3.335a.451.451 0 0 0-.25.769l1.665 1.623-.393 2.291a.451.451 0 0 0 .654.475l2.058-1.081 2.058 1.081a.451.451 0 0 0 .654-.475l-.393-2.291 1.665-1.623a.452.452 0 0 0 .113-.462zm-2.579 1.6a.453.453 0 0 0-.13.4l.279 1.624-1.459-.766a.449.449 0 0 0-.42 0l-1.459.766.279-1.624a.451.451 0 0 0-.129-.4l-1.18-1.151L25.2 45.2a.449.449 0 0 0 .339-.247l.73-1.478.731 1.474a.451.451 0 0 0 .339.247l1.631.237z" class="cls-3" transform="translate(-16.732 -27.567)"/>
            <path id="Trazado_333" d="M45.775 41.68h-1.567l1.2-23.536h.364a.451.451 0 0 0 .451-.451v-2.379a.451.451 0 0 0-.451-.451h-.782v-.875a1.4 1.4 0 0 0-1.39-1.394H32.547a1.4 1.4 0 0 0-1.395 1.395v.875h-.777a.451.451 0 0 0-.451.451v2.379a.451.451 0 0 0 .451.451h.576L32.19 41.68h-4.525l1.614-26.338a.451.451 0 0 0-.451-.479h-.656a3.946 3.946 0 0 0-4.049-3.605 4.283 4.283 0 0 0-1.844.413A4.129 4.129 0 0 0 18.915 10a4.066 4.066 0 0 0-3.82 2.5 3.057 3.057 0 0 0-1.026-.177 2.827 2.827 0 0 0-2.89 2.534h-.568a.451.451 0 0 0-.45.479l1.674 26.344h-1.242a.451.451 0 0 0-.451.451v3.5a.451.451 0 0 0 .451.451h35.182a.451.451 0 0 0 .451-.451v-3.5a.451.451 0 0 0-.451-.451zM32.146 23.7h12.072l-.484 9.536H32.648zm-.092-9.714a.493.493 0 0 1 .493-.493H43.6a.493.493 0 0 1 .493.493v.875H32.054zm-1.228 1.777h14.49v1.477h-14.49zM44.5 18.145l-.236 4.655H32.1l-.245-4.656zm-11.8 16h10.988l-.383 7.54H33.093zm-7.273 7.54a.465.465 0 0 0 .011-.05l.207-7.49h1.581l-.462 7.54h-1.34zM11.592 23.623h16.276l-.59 9.615H12.2zm11.474-.9l.1-6.955h2.094l-.2 6.955zm-.9 0h-1.994v-6.958h2.094zm-2.894 0h-1.994l-.1-6.955h2.094v6.955zm-3-6.955l.1 6.955h-1.988l-.2-6.955zm.261 18.375l.1 7.484a.455.455 0 0 0 .012.056H14.9a.459.459 0 0 0 .013-.074L14.7 34.14zm.9 0h1.833v7.478a.411.411 0 0 0 .013.062h-1.752a.432.432 0 0 0 .013-.068zm2.735 7.478V34.14H22l-.1 7.472a.431.431 0 0 0 .013.068h-1.754a.417.417 0 0 0 .013-.062zm2.631.006l.1-7.484h1.841l-.207 7.466a.415.415 0 0 0 .013.074h-1.754a.556.556 0 0 0 .008-.059zm5.12-18.9H25.96l.2-6.955h2.19zM14.07 13.231a2.137 2.137 0 0 1 1.08.29.451.451 0 0 0 .669-.294 3.1 3.1 0 0 1 3.1-2.324 3.189 3.189 0 0 1 2.815 1.584.453.453 0 0 0 .28.217.458.458 0 0 0 .351-.052 3.356 3.356 0 0 1 1.762-.492 3.051 3.051 0 0 1 3.147 2.7H12.093a1.929 1.929 0 0 1 1.977-1.629zm-.792 2.534l.2 6.955h-1.943l-.442-6.955zM12.261 34.14H13.8l.207 7.49a.465.465 0 0 0 .011.05H12.74zm33.063 11.042H11.045v-2.6h34.28z" class="cls-3" transform="translate(-10.142 -10.001)"/>
        </g>
    </g>
</svg>
