<svg xmlns="http://www.w3.org/2000/svg" width="122.443" height="74.908" viewBox="0 0 122.443 74.908">
    <defs>
        <style>
            .cls-1{fill:#ffd400}.cls-3{fill:#d9000d}.cls-4{fill:#30302f}.cls-6{stroke:none}
        </style>
    </defs>
    <g id="Grupo_4485" transform="translate(-372.3 -1939)">
        <path id="Trazado_1582" d="M420.326 53.33l-5-5.03-5.03 5.065 5.03 5.03z" class="cls-1" transform="translate(-38 1927.354)"/>
        <path id="Trazado_1581" d="M269.168 85.5a3.287 3.287 0 1 0-3.608-2.931 3.288 3.288 0 0 0 3.608 2.931z" class="cls-1" transform="translate(193.211 1928.39)"/>
        <g id="Elipse_237" fill="none" stroke="#ffd400" stroke-width="2px" transform="translate(469 1939)">
            <circle cx="5" cy="5" r="5" class="cls-6"/>
            <circle cx="5" cy="5" r="4"/>
        </g>
        <g id="Grupo_4477" transform="translate(3537 -625)">
            <path id="Trazado_1576" d="M40.036 40.536a2.149 2.149 0 0 0-.825 1.663v27.014a2.15 2.15 0 0 0 .825 1.663 2.71 2.71 0 0 0 1.7.585c.078 0 .156 0 .234-.01 3.526-.293 12.8-1.044 22.711-1.679a287.038 287.038 0 0 1 36.577 0c9.915.636 19.186 1.386 22.712 1.679a2.723 2.723 0 0 0 1.934-.575 2.152 2.152 0 0 0 .825-1.663V42.2a2.151 2.151 0 0 0-.825-1.663 2.736 2.736 0 0 0-1.935-.575c-3.52.293-12.78 1.043-22.711 1.679a287.036 287.036 0 0 1-36.577 0c-9.928-.641-19.19-1.388-22.711-1.682a2.73 2.73 0 0 0-1.934.577zm2.193 2.143c3.873.32 12.75 1.032 22.235 1.639a290.217 290.217 0 0 0 37.01 0c9.488-.608 18.364-1.319 22.235-1.639v26.053c-3.877-.321-12.762-1.032-22.235-1.639-6.14-.394-12.323-.59-18.505-.59s-12.365.2-18.505.59c-9.471.607-18.358 1.319-22.235 1.639zm0 0" class="cls-3" transform="translate(-3177.628 2549.046)"/>
            <path id="Trazado_1578" d="M-3135.207 2590.3l33.07 2.28H-3069l19.286-2.28v28.185l-38.1-2.078-24.339 2.078-24.877 1.07z" class="cls-3" transform="translate(-3.489 -.109)"/>
        </g>
        <g id="Grupo_4476" transform="translate(3427.999 -608.974)">
            <g id="cinema" transform="translate(-3040.397 2561.974)">
                <path id="Trazado_1575" d="M106.262 1.161a2.616 2.616 0 0 0-2.044-.643c-3.4.4-15.46 1.791-28.145 2.938a250.667 250.667 0 0 1-45.007 0c-1.329-.12-2.65-.243-3.954-.366a1.564 1.564 0 1 0-.3 3.114c1.309.124 2.634.248 3.968.368a253.752 253.752 0 0 0 45.57 0c12.091-1.093 23.618-2.407 27.657-2.88V50.52c-4.043-.472-15.578-1.789-27.657-2.88a253.753 253.753 0 0 0-45.57 0C18.7 48.733 7.17 50.048 3.129 50.52V3.692c2.756.322 7.815.9 14.047 1.55A1.564 1.564 0 1 0 17.5 2.13C10.827 1.434 5.5.821 2.922.518A2.617 2.617 0 0 0 0 3.118v47.976a2.617 2.617 0 0 0 2.617 2.618 2.553 2.553 0 0 0 .3-.018c3.4-.4 15.47-1.792 28.144-2.937a250.525 250.525 0 0 1 45.008 0c12.671 1.145 24.745 2.537 28.144 2.937a2.617 2.617 0 0 0 2.923-2.6V3.118a2.618 2.618 0 0 0-.879-1.957zm0 0" class="cls-4" transform="translate(0 -.5)"/>
                <path id="Trazado_1576-2" d="M40.066 40.632a2.623 2.623 0 0 0-.855 1.936v31.466a2.616 2.616 0 0 0 2.617 2.618c.081 0 .162 0 .243-.011 3.656-.342 13.269-1.216 23.545-1.956a264.948 264.948 0 0 1 37.92 0c10.279.741 19.89 1.614 23.546 1.956a2.616 2.616 0 0 0 2.86-2.607V42.568a2.616 2.616 0 0 0-2.861-2.607c-3.65.342-13.25 1.215-23.545 1.956a264.948 264.948 0 0 1-37.92 0c-10.292-.741-19.894-1.614-23.545-1.956a2.62 2.62 0 0 0-2.005.671zm2.273 2.5c4.015.373 13.219 1.2 23.052 1.909a267.884 267.884 0 0 0 38.37 0c9.836-.708 19.039-1.537 23.052-1.909v30.341c-4.019-.374-13.231-1.2-23.052-1.91-6.365-.459-12.775-.687-19.185-.687s-12.82.229-19.185.687c-9.819.707-19.032 1.536-23.052 1.91zm0 0" class="cls-4" transform="translate(-31.006 -31.694)"/>
            </g>
            <g id="Polígono_3" fill="#fff">
                <path d="M9.35 8.5h-6.7L6 2.915 9.35 8.5z" class="cls-6" transform="rotate(90 -2781.987 -199.013)"/>
                <path d="M6 5.831L5.299 7H6.7L6 5.831M6 0l6 10H0L6 0z" transform="rotate(90 -2781.987 -199.013)"/>
            </g>
        </g>
    </g>
</svg>
