<svg xmlns="http://www.w3.org/2000/svg" width="92.329" height="99.75" viewBox="0 0 92.329 99.75">
    <defs>
        <style>
            .cls-1{fill:#ffd400}
        </style>
    </defs>
    <g id="Grupo_4488" transform="translate(-1113 -1942)">
        <path id="Trazado_1590" d="M420.326 53.33l-5-5.03-5.03 5.065 5.03 5.03z" class="cls-1" transform="translate(760 1983.354)"/>
        <path id="Trazado_1591" d="M269.168 85.5a3.287 3.287 0 1 0-3.608-2.931 3.288 3.288 0 0 0 3.608 2.931z" class="cls-1" transform="translate(933.211 1895.39)"/>
        <g id="Elipse_239" fill="none" stroke="#ffd400" stroke-width="2px" transform="translate(1113 1951)">
            <circle cx="5" cy="5" r="5" stroke="none"/>
            <circle cx="5" cy="5" r="4"/>
        </g>
        <path id="Trazado_1589" fill="#d9000d" d="M-1696.475 2675v38.6l-26.969-5.824s-12.533 1.754-16.623-6.154 2.035-16.043 2.035-16.043l9.734-3.965h8.119z" transform="translate(2874 -733)"/>
        <g id="noun_Megaphone_1116894" transform="translate(1117 1941)">
            <g id="Grupo_4479" transform="translate(1 1)">
                <path id="Trazado_1588" d="M78.226 74.161v-42a4.069 4.069 0 0 0-4.065-4.061h-6.774V1h-6.774L33.382 6.419H28.1A14.878 14.878 0 0 0 14.838 28.1h-3a4.069 4.069 0 0 0-4.065 4.065v42H1v6.774A4.069 4.069 0 0 0 5.065 85h75.87A4.069 4.069 0 0 0 85 80.935v-6.774zM32.161 38.935h-5.419v2.71h5.419v2.71h-5.419v2.71h5.419v2.71h-5.419v2.71h5.419v2.192l1.608.8a1.995 1.995 0 0 1-.893 3.779h-6.851a2 2 0 0 1-1.993-1.994V35.649a14.857 14.857 0 0 0 4.065.577h4.065zm-6.134 23.033h6.851a4.7 4.7 0 0 0 2.1-8.912L34.871 53V36.524l29.806 5.121h2.71v-5.419H70.1v32.516H15.9V36.226h5.419v21.038a4.71 4.71 0 0 0 4.708 4.704zm38.65-20.323zm0-2.71h-2.71V3.71h2.71zM28.1 9.129h5.419l25.739-5.123v34.631l-25.476-5.094-5.682-.027a12.194 12.194 0 0 1 0-24.387zM10.484 32.161a1.355 1.355 0 0 1 1.355-1.355h4.77a15.042 15.042 0 0 0 2.945 2.71h-6.36v37.936h59.612V33.516h-5.419v-2.71h6.774a1.355 1.355 0 0 1 1.355 1.355v42H10.484zM82.29 80.935a1.355 1.355 0 0 1-1.355 1.355H5.065a1.355 1.355 0 0 1-1.355-1.355v-4.064h31.161v2.71h2.71v-2.71h10.838v2.71h2.71v-2.71H82.29z" transform="translate(-1 -1)"/>
                <path id="Rectángulo_1264" d="M0 0H22V3H0z" transform="translate(42 57)"/>
                <path id="Rectángulo_1265" d="M0 0H22V3H0z" transform="translate(42 51)"/>
            </g>
        </g>
    </g>
</svg>
