<svg xmlns="http://www.w3.org/2000/svg" width="118.7" height="97.934" viewBox="0 0 118.7 97.934">
    <defs>
        <style>
            .cls-1{fill:#ffd400}.cls-3{fill:#d9000d}.cls-4{fill:#30302f}
        </style>
    </defs>
    <g id="Grupo_4484" transform="translate(-144.3 -1935.974)">
        <path id="Trazado_1557" d="M420.326 53.33l-5-5.03-5.03 5.065 5.03 5.03z" class="cls-1" transform="translate(-266 1917.354)"/>
        <path id="Trazado_1560" d="M269.168 85.5a3.287 3.287 0 1 0-3.608-2.931 3.288 3.288 0 0 0 3.608 2.931z" class="cls-1" transform="translate(-35.789 1948.39)"/>
        <g id="Elipse_235" fill="none" stroke="#ffd400" stroke-width="2px" transform="translate(253 1939)">
            <circle cx="5" cy="5" r="5" stroke="none"/>
            <circle cx="5" cy="5" r="4"/>
        </g>
        <g id="Grupo_4474" transform="translate(3304 -645)">
            <path id="Trazado_1576" d="M39.92 40.482a1.992 1.992 0 0 0-.709 1.51v24.534a1.993 1.993 0 0 0 .709 1.51 2.251 2.251 0 0 0 1.461.532c.067 0 .134 0 .2-.009 3.031-.266 11-.948 19.52-1.525a233.521 233.521 0 0 1 31.438 0c8.522.577 16.49 1.259 19.521 1.525a2.255 2.255 0 0 0 1.662-.523 2 2 0 0 0 .709-1.51V41.991a1.994 1.994 0 0 0-.709-1.51 2.265 2.265 0 0 0-1.663-.523c-3.026.266-10.985.947-19.52 1.525a233.521 233.521 0 0 1-31.438 0c-8.533-.577-16.494-1.259-19.52-1.525a2.26 2.26 0 0 0-1.661.524zm1.88 1.946c3.329.291 10.959.937 19.112 1.489a236.11 236.11 0 0 0 31.811 0c8.155-.552 15.784-1.2 19.112-1.489v23.66c-3.332-.291-10.969-.938-19.112-1.489-5.277-.358-10.592-.536-15.905-.536s-10.628.178-15.905.536c-8.14.551-15.779 1.2-19.112 1.489zm0 0" class="cls-3" transform="translate(-3177.628 2549.046)"/>
            <path id="Trazado_1578" d="M-3135.515 2590.3l27.482 2.054h27.539l16.028-2.054v25.4l-31.662-1.873-20.227 1.873-20.674.964z" class="cls-3" transform="translate(-1.032 -.109)"/>
        </g>
        <g id="cinema" transform="translate(158.603 1935.474)">
            <path id="Trazado_1575" d="M90.392 1.063a2.225 2.225 0 0 0-1.738-.548C85.765.855 75.5 2.039 64.712 3.014a213.23 213.23 0 0 1-38.285 0c-1.131-.1-2.254-.207-3.363-.312a1.331 1.331 0 1 0-.252 2.649c1.113.106 2.24.211 3.375.313a215.854 215.854 0 0 0 38.764 0c10.285-.93 20.09-2.048 23.526-2.45V43.05c-3.439-.4-13.252-1.521-23.526-2.45a215.855 215.855 0 0 0-38.764 0c-10.276.929-20.087 2.048-23.525 2.45V3.215c2.344.274 6.648.766 11.949 1.318a1.331 1.331 0 0 0 .276-2.647C9.21 1.295 4.68.773 2.486.515A2.226 2.226 0 0 0 0 2.727v40.811a2.226 2.226 0 0 0 2.226 2.227 2.172 2.172 0 0 0 .259-.015c2.891-.34 13.159-1.524 23.941-2.5a213.11 213.11 0 0 1 38.286 0c10.778.974 21.049 2.158 23.94 2.5a2.226 2.226 0 0 0 2.487-2.212V2.727a2.227 2.227 0 0 0-.747-1.665zm0 0" class="cls-4"/>
            <path id="Trazado_1576-2" d="M39.938 40.53a2.231 2.231 0 0 0-.727 1.647v26.766a2.226 2.226 0 0 0 2.226 2.227c.069 0 .138 0 .207-.01 3.11-.291 11.287-1.035 20.029-1.664a225.379 225.379 0 0 1 32.257 0c8.744.63 16.92 1.373 20.029 1.664a2.226 2.226 0 0 0 2.433-2.217V42.177a2.226 2.226 0 0 0-2.434-2.217c-3.1.291-11.271 1.033-20.029 1.664a225.378 225.378 0 0 1-32.257 0c-8.755-.63-16.923-1.373-20.029-1.664a2.229 2.229 0 0 0-1.705.57zm1.934 2.124c3.416.317 11.244 1.022 19.609 1.624a227.876 227.876 0 0 0 32.639 0c8.367-.6 16.2-1.307 19.609-1.624v25.812c-3.419-.318-11.255-1.023-19.609-1.624-5.415-.39-10.867-.585-16.32-.585s-10.9.195-16.32.585c-8.352.6-16.19 1.307-19.609 1.624zm0 0" class="cls-4" transform="translate(-32.231 -32.427)"/>
            <path id="Trazado_1577" d="M89.638 292.23h-.685v-7.758a5.936 5.936 0 0 0-.059-.83 1.318 1.318 0 0 0 .058-.383v-9.089a5.945 5.945 0 0 0-5.938-5.938h-.937v-2.9a5.945 5.945 0 0 0-5.937-5.938h-4.483a5.927 5.927 0 0 0-4.57 2.152 5.927 5.927 0 0 0-4.57-2.152h-4.483a5.929 5.929 0 0 0-4.57 2.152 5.927 5.927 0 0 0-4.57-2.152h-4.483a5.929 5.929 0 0 0-4.57 2.152 5.926 5.926 0 0 0-4.57-2.152h-4.483a5.927 5.927 0 0 0-4.57 2.152 5.926 5.926 0 0 0-4.57-2.152h-4.483a5.945 5.945 0 0 0-5.938 5.938v2.9h-.937a5.945 5.945 0 0 0-5.938 5.938v9.089a1.315 1.315 0 0 0 .059.39 5.942 5.942 0 0 0-.058.823v7.758h-.686a2.354 2.354 0 0 0-2.351 2.352v3.5a2.354 2.354 0 0 0 2.351 2.351H33a1.331 1.331 0 1 0 0-2.662H3.977v-2.882h85.35v2.882H41.093a1.331 1.331 0 1 0 0 2.662h48.545a2.354 2.354 0 0 0 2.351-2.351v-3.5a2.354 2.354 0 0 0-2.351-2.352zm-47.62-21.336a3.278 3.278 0 0 1 3.228 2.74c-.016.177-.025 5.842-.025 5.842a5.9 5.9 0 0 0-3.2-.941h-4.485a5.9 5.9 0 0 0-3.2.942v-5.306c0-.181 1.58-3.276 3.2-3.276h4.482zm-35 3.276a3.28 3.28 0 0 1 3.276-3.276h4.482a3.278 3.278 0 0 1 3.224 2.74c-.015.177-.025 5.842-.025 5.842a5.9 5.9 0 0 0-3.2-.941H10.29a5.9 5.9 0 0 0-3.277.989zm10.962 18.06H7.014v-7.758a3.28 3.28 0 0 1 3.276-3.272h4.482A3.28 3.28 0 0 1 18 283.936c-.015.176-.025 8.294-.025 8.294zm1.366-21.846a5.926 5.926 0 0 0-4.57-2.151h-.883v-2.9a3.28 3.28 0 0 1 3.276-3.276h4.482a3.279 3.279 0 0 1 3.228 2.74c-.016.177-.026 3.437-.026 3.437h-.937a5.929 5.929 0 0 0-4.574 2.15zm4.571.51h4.481a3.278 3.278 0 0 1 3.228 2.74c-.016.177-.025 5.842-.025 5.842a5.9 5.9 0 0 0-3.2-.941h-4.488a5.9 5.9 0 0 0-3.2.942s-.01-5.666-.026-5.843a3.279 3.279 0 0 1 3.226-2.739zM31.6 292.23H20.71s-.01-8.118-.025-8.295a3.278 3.278 0 0 1 3.228-2.74h4.482a3.278 3.278 0 0 1 3.228 2.74c-.016.177-.023 8.295-.023 8.295zm1.366-21.846a5.927 5.927 0 0 0-4.57-2.151h-.809s-.01-3.26-.026-3.437a3.279 3.279 0 0 1 3.228-2.74h4.481a3.279 3.279 0 0 1 3.23 2.744c-.016.177-.026 3.436-.026 3.436h-.937a5.929 5.929 0 0 0-4.572 2.148zm12.255 21.846H34.333s-.01-8.118-.026-8.295a3.279 3.279 0 0 1 3.228-2.74h4.482a3.279 3.279 0 0 1 3.228 2.74c-.014.178-.024 8.295-.024 8.295zm1.366-21.846a5.927 5.927 0 0 0-4.57-2.151h-.809s-.01-3.26-.026-3.436a3.279 3.279 0 0 1 3.228-2.74h4.482a3.279 3.279 0 0 1 3.228 2.74c-.016.177-.026 3.437-.026 3.437h-.937a5.928 5.928 0 0 0-4.569 2.15zm4.57.51h4.483a3.279 3.279 0 0 1 3.229 2.742c-.016.176-.026 5.839-.026 5.839a5.9 5.9 0 0 0-3.2-.942h-4.484a5.9 5.9 0 0 0-3.2.943s-.01-5.666-.026-5.842a3.279 3.279 0 0 1 3.225-2.739zm7.686 21.336H47.956s-.01-8.117-.026-8.294a3.279 3.279 0 0 1 3.228-2.74h4.482a3.279 3.279 0 0 1 3.228 2.74c-.014.176-.024 8.294-.024 8.294zm1.368-21.845a5.93 5.93 0 0 0-4.571-2.152h-.809s-.01-3.26-.026-3.437a3.279 3.279 0 0 1 3.228-2.74h4.482a3.279 3.279 0 0 1 3.228 2.74c-.016.177-.026 3.438-.026 3.438h-.937a5.928 5.928 0 0 0-4.568 2.151zM72.54 292.23H61.579s-.01-8.118-.026-8.295a3.279 3.279 0 0 1 3.228-2.74h4.482a3.28 3.28 0 0 1 3.276 3.276v7.759zm0-12.7a5.894 5.894 0 0 0-3.276-.992h-4.482a5.9 5.9 0 0 0-3.2.943s-.01-5.664-.026-5.84a3.279 3.279 0 0 1 3.229-2.742h4.482a3.279 3.279 0 0 1 3.276 3.276zm1.358-9.062a5.928 5.928 0 0 0-4.634-2.231h-.811s-.009-3.261-.025-3.438a3.278 3.278 0 0 1 3.228-2.74h4.482a3.279 3.279 0 0 1 3.276 3.276v2.9h-.882a5.929 5.929 0 0 0-4.632 2.229zm1.358 3.706a3.28 3.28 0 0 1 3.276-3.276h4.481a3.279 3.279 0 0 1 3.276 3.276v5.353a5.9 5.9 0 0 0-3.275-.989h-4.481a5.9 5.9 0 0 0-3.277.992zm11.035 18.06H75.257v-7.758a3.28 3.28 0 0 1 3.276-3.276h4.482a3.28 3.28 0 0 1 3.276 3.276zm0 0" class="cls-4" transform="translate(-1.082 -212.81)"/>
        </g>
    </g>
</svg>
