<svg width="24" height="24" viewBox="0 0 24 24" fill="none" xmlns="http://www.w3.org/2000/svg">
<g id="schedule">
<mask id="mask0_358_286" style="mask-type:alpha" maskUnits="userSpaceOnUse" x="0" y="0" width="24" height="24">
<rect id="Bounding box" width="24" height="24" fill="#D9D9D9"/>
</mask>
<g mask="url(#mask0_358_286)">
<path id="schedule_2" d="M12.75 11.6961V7.74997C12.75 7.53749 12.6781 7.35937 12.5343 7.21562C12.3904 7.07187 12.2122 7 11.9997 7C11.7871 7 11.609 7.07187 11.4654 7.21562C11.3218 7.35937 11.25 7.53749 11.25 7.74997V11.9269C11.25 12.0446 11.2718 12.1587 11.3154 12.269C11.359 12.3794 11.4276 12.4814 11.5212 12.575L14.9462 16C15.0846 16.1384 15.2587 16.2093 15.4683 16.2125C15.6779 16.2157 15.8551 16.1449 16 16C16.1448 15.8551 16.2173 15.6795 16.2173 15.4731C16.2173 15.2667 16.1448 15.091 16 14.9462L12.75 11.6961ZM12.0016 21.5C10.6877 21.5 9.45268 21.2506 8.29655 20.752C7.1404 20.2533 6.13472 19.5766 5.2795 18.7217C4.42427 17.8669 3.74721 16.8616 3.24833 15.706C2.74944 14.5504 2.5 13.3156 2.5 12.0017C2.5 10.6877 2.74933 9.45271 3.248 8.29657C3.74667 7.14042 4.42342 6.13474 5.27825 5.27952C6.1331 4.42429 7.13834 3.74723 8.29398 3.24835C9.44959 2.74947 10.6844 2.50002 11.9983 2.50002C13.3122 2.50002 14.5473 2.74936 15.7034 3.24802C16.8596 3.74669 17.8652 4.42344 18.7205 5.27827C19.5757 6.13312 20.2527 7.13837 20.7516 8.294C21.2505 9.44962 21.5 10.6844 21.5 11.9983C21.5 13.3123 21.2506 14.5473 20.752 15.7034C20.2533 16.8596 19.5765 17.8653 18.7217 18.7205C17.8669 19.5757 16.8616 20.2528 15.706 20.7516C14.5504 21.2505 13.3156 21.5 12.0016 21.5ZM12 20C14.2166 20 16.1041 19.2208 17.6625 17.6625C19.2208 16.1042 20 14.2167 20 12C20 9.78333 19.2208 7.89583 17.6625 6.3375C16.1041 4.77917 14.2166 4 12 4C9.78331 4 7.89581 4.77917 6.33748 6.3375C4.77914 7.89583 3.99998 9.78333 3.99998 12C3.99998 14.2167 4.77914 16.1042 6.33748 17.6625C7.89581 19.2208 9.78331 20 12 20Z" fill="#FFD400"/>
</g>
</g>
</svg>
