<svg width="24" height="24" viewBox="0 0 24 24" fill="none" xmlns="http://www.w3.org/2000/svg">
<g id="teatro 1" clip-path="url(#clip0_358_255)">
<g id="g3975">
<g id="g3977">
<g id="Clip path group">
<mask id="mask0_358_255" style="mask-type:luminance" maskUnits="userSpaceOnUse" x="0" y="0" width="24" height="24">
<g id="clipPath3983">
<path id="path3981" d="M0 1.90735e-06H24V24H0V1.90735e-06Z" fill="white"/>
</g>
</mask>
<g mask="url(#mask0_358_255)">
<g id="g3979">
<g id="g3985">
<path id="path3987" d="M14.5928 3.72407L5.66569 0.474881C4.60922 0.0903649 3.44105 0.635099 3.05653 1.69157L1.07517 7.13525C0.475877 8.78179 0.657518 10.6114 1.56886 12.1079L3.51741 15.3077C4.17769 16.3919 5.50134 16.8737 6.70406 16.4675L10.2535 15.2689C11.9136 14.7083 13.2288 13.4234 13.8281 11.777L15.8094 6.33327C16.194 5.2768 15.6492 4.10858 14.5928 3.72407Z" stroke="#FFD400" stroke-miterlimit="10" stroke-linecap="round" stroke-linejoin="round"/>
</g>
<g id="g3989">
<path id="path3991" d="M6.88005 11.0265C5.797 10.6323 4.88974 10.0366 4.25857 9.36569C3.90386 10.8536 4.71171 12.4037 6.18382 12.9395C7.65593 13.4753 9.2711 12.8071 9.95585 11.4393C9.04108 11.5475 7.96314 11.4207 6.88005 11.0265Z" stroke="#FFD400" stroke-miterlimit="10" stroke-linecap="round" stroke-linejoin="round"/>
</g>
<g id="g3993">
<path id="path3995" d="M6.76521 7.37411C6.6469 6.90119 6.26866 6.47126 5.72201 6.27232C5.17535 6.07333 4.60929 6.15954 4.2146 6.4458" stroke="#FFD400" stroke-miterlimit="10" stroke-linecap="round" stroke-linejoin="round"/>
</g>
<g id="g3997">
<path id="path3999" d="M11.8663 9.2308C11.748 8.75784 11.3697 8.32795 10.8231 8.12901C10.2764 7.93002 9.71036 8.01623 9.31567 8.30245" stroke="#FFD400" stroke-miterlimit="10" stroke-linecap="round" stroke-linejoin="round"/>
</g>
<g id="g4001">
<path id="path4003" d="M4.35986 5.05444C4.35986 5.05444 5.66449 4.4461 7.57741 5.14233" stroke="#FFD400" stroke-miterlimit="10" stroke-linecap="round" stroke-linejoin="round"/>
</g>
<g id="g4005">
<path id="path4007" d="M12.6492 8.07154C12.6492 8.07154 12.0409 6.76696 10.1279 6.07068" stroke="#FFD400" stroke-miterlimit="10" stroke-linecap="round" stroke-linejoin="round"/>
</g>
<g id="g4009">
<path id="path4011" d="M9.5437 17.0888L10.172 18.8149C10.7713 20.4614 12.0865 21.7462 13.7466 22.3068L17.296 23.5055C18.4987 23.9116 19.8224 23.4299 20.4826 22.3456L22.4312 19.1459C23.3425 17.6494 23.5242 15.8197 22.9249 14.1732L20.9436 8.72949C20.559 7.67302 19.3909 7.12829 18.3344 7.5128L16.7596 8.08599" stroke="#FFD400" stroke-miterlimit="10" stroke-linecap="round" stroke-linejoin="round"/>
</g>
<g id="g4013">
<path id="path4015" d="M17.352 18.7021C18.4351 18.3079 19.513 18.1811 20.4278 18.2893C19.743 16.9215 18.1278 16.2534 16.6557 16.7891C15.1836 17.325 14.3758 18.875 14.7305 20.3629C15.3617 19.6921 16.2689 19.0963 17.352 18.7021Z" stroke="#FFD400" stroke-miterlimit="10" stroke-linecap="round" stroke-linejoin="round"/>
</g>
<g id="g4017">
<path id="path4019" d="M12.1145 15.9434C12.57 16.1172 13.139 16.0533 13.6152 15.7191C14.0913 15.3848 14.3447 14.8714 14.336 14.3839" stroke="#FFD400" stroke-miterlimit="10" stroke-linecap="round" stroke-linejoin="round"/>
</g>
<g id="g4021">
<path id="path4023" d="M19.5909 13.2223C19.3537 13.6482 18.8767 13.965 18.2971 14.015C17.7176 14.065 17.1934 13.8346 16.8867 13.4556" stroke="#FFD400" stroke-miterlimit="10" stroke-linecap="round" stroke-linejoin="round"/>
</g>
<g id="g4025">
<path id="path4027" d="M19.6399 12.0924C19.6399 12.0924 18.3353 11.4841 16.4224 12.1803" stroke="#FFD400" stroke-miterlimit="10" stroke-linecap="round" stroke-linejoin="round"/>
</g>
</g>
</g>
</g>
</g>
</g>
</g>
<defs>
<clipPath id="clip0_358_255">
<rect width="24" height="24" fill="white"/>
</clipPath>
</defs>
</svg>
