<svg xmlns="http://www.w3.org/2000/svg" width="20.081" height="20.081" viewBox="0 0 20.081 20.081">
    <g>
        <path fill="#d9000d" d="M3.331 968.472l.3.3 1.673 1.673.3.3.3-.3a1.936 1.936 0 0 1 2.738 2.738l-.3.3.3.3 1.673 1.673.3.3.3-.3 12.17-12.17.3-.3-.3-.3-1.673-1.673-.3-.3-.3.3a1.936 1.936 0 1 1-2.738-2.738l.3-.3-.3-.3-1.66-1.675-.3-.3-.3.3-12.17 12.17-.3.3zm1.217 0l7.759-7.759.913.913.609-.609-.913-.913 3.195-3.195L17.2 958a2.785 2.785 0 0 0 3.9 3.9l1.1 1.1-3.2 3.19-.913-.913-.609.609.913.913-7.759 7.759-1.1-1.1a2.785 2.785 0 0 0-3.894-3.894l-1.093-1.093zm9.28-6.237l1.217 1.217.609-.609-1.217-1.217zm1.826 1.826l1.217 1.217.609-.608-1.217-1.217z" transform="translate(-3.331 -955.693)"/>
    </g>
</svg>
