<svg xmlns="http://www.w3.org/2000/svg" width="21.248" height="17.264" viewBox="0 0 21.248 17.264">
    <path fill="#fff" d="M21.248 50.044a9.082 9.082 0 0 1-2.51.688 4.331 4.331 0 0 0 1.916-2.408 8.705 8.705 0 0 1-2.762 1.054 4.356 4.356 0 0 0-7.535 2.979 4.485 4.485 0 0 0 .1.993 12.33 12.33 0 0 1-8.978-4.556 4.357 4.357 0 0 0 1.339 5.822 4.3 4.3 0 0 1-1.968-.537v.048a4.376 4.376 0 0 0 3.49 4.28 4.348 4.348 0 0 1-1.142.143 3.852 3.852 0 0 1-.825-.074 4.4 4.4 0 0 0 4.07 3.034 8.753 8.753 0 0 1-5.4 1.858A8.157 8.157 0 0 1 0 63.309a12.263 12.263 0 0 0 6.682 1.955 12.313 12.313 0 0 0 12.4-12.4c0-.193-.007-.378-.016-.563a8.69 8.69 0 0 0 2.182-2.257z" transform="translate(0 -48)"/>
</svg>
