<svg id="Capa_1" data-name="Capa 1" xmlns="http://www.w3.org/2000/svg" viewBox="0 0 46.21 21.35"><defs><style>.cls-1{fill:#4759ba;}.cls-2{fill:#313984;}.cls-3{fill:#edba2c;}.cls-4{fill:#df962f;}.cls-5{fill:#d37b1d;}.cls-6{fill:#121945;}</style></defs><g id="business"><path id="Trazado_451" data-name="Trazado 451" class="cls-1" d="M16.94,18l2.35-13.2H23L20.68,18Z"/><path id="Trazado_452" data-name="Trazado 452" class="cls-2" d="M16.94,18l3-13.2h3L20.68,18Z"/><path id="Trazado_453" data-name="Trazado 453" class="cls-1" d="M34,5a9.46,9.46,0,0,0-3.37-.59c-3.67,0-6.31,1.84-6.31,4.48,0,2,1.83,3,3.3,3.66s1.91,1.1,1.91,1.69c0,.88-1.18,1.32-2.2,1.32a8,8,0,0,1-3.53-.73l-.51-.22-.51,3a11.92,11.92,0,0,0,4.18.74c3.89,0,6.45-1.84,6.45-4.63,0-1.54-.95-2.71-3.15-3.66-1.32-.66-2.13-1-2.13-1.69s.66-1.17,2.13-1.17A6.71,6.71,0,0,1,33,7.68l.36.15L34,5Z"/><path id="Trazado_454" data-name="Trazado 454" class="cls-2" d="M34,5a9.46,9.46,0,0,0-3.37-.59c-3.67,0-5.65,1.84-5.65,4.48a3.83,3.83,0,0,0,2.64,3.66c1.47.66,1.91,1.1,1.91,1.69,0,.88-1.18,1.32-2.2,1.32a7.89,7.89,0,0,1-3.52-.73l-.52-.22-.51,3a11.92,11.92,0,0,0,4.18.74c3.89,0,6.45-1.84,6.45-4.63,0-1.54-.95-2.71-3.15-3.66-1.32-.66-2.13-1-2.13-1.69s.66-1.17,2.13-1.17A6.71,6.71,0,0,1,33,7.68l.36.15L34,5Z"/><path id="Trazado_455" data-name="Trazado 455" class="cls-1" d="M40.27,4.82c-.88,0-1.54.08-1.91,1L32.86,18h4l.73-2.2h4.7l.44,2.2h3.52L43.13,4.82Zm-1.69,8.8c.22-.66,1.47-3.89,1.47-3.89s.29-.8.51-1.32l.22,1.25s.74,3.3.88,4H38.58Z"/><path id="Trazado_456" data-name="Trazado 456" class="cls-2" d="M41.15,4.82c-.88,0-1.54.08-1.91,1L32.86,18h4l.73-2.2h4.7l.44,2.2h3.52L43.13,4.82Zm-2.57,8.8c.29-.73,1.47-3.89,1.47-3.89s.29-.8.51-1.32l.22,1.25s.74,3.3.88,4H38.58Z"/><path id="Trazado_457" data-name="Trazado 457" class="cls-1" d="M10.19,14.06l-.36-1.9a10.68,10.68,0,0,0-5.14-5.8L8,18.1h4L17.89,4.9h-4Z"/><path id="Trazado_458" data-name="Trazado 458" class="cls-2" d="M10.19,14.06l-.36-1.9a10.68,10.68,0,0,0-5.14-5.8L8,18.1h4L17.89,4.9H14.67Z"/><path id="Trazado_459" data-name="Trazado 459" class="cls-3" d="M0,4.82.66,5c4.69,1.1,7.92,3.89,9.17,7.19L8.51,5.92c-.22-.88-.88-1.1-1.69-1.1Z"/><path id="Trazado_460" data-name="Trazado 460" class="cls-4" d="M0,4.82H0c4.69,1.1,8.58,4,9.83,7.26L8.58,6.88a1.8,1.8,0,0,0-1.76-1.4Z"/><path id="Trazado_461" data-name="Trazado 461" class="cls-5" d="M0,4.82H0c4.69,1.1,8.58,4,9.83,7.26L9,9.22A2.58,2.58,0,0,0,7.41,7.1Z"/><g id="Grupo_3943" data-name="Grupo 3943"><path id="Trazado_462" data-name="Trazado 462" class="cls-6" d="M13.87,13.62l-2.5-2.49-1.18,2.79L9.9,12.08A10.64,10.64,0,0,0,4.77,6.29L8.07,18h4Z"/><path id="Trazado_463" data-name="Trazado 463" class="cls-6" d="M20.69,18,17.53,14.8,16.94,18Z"/><path id="Trazado_464" data-name="Trazado 464" class="cls-6" d="M29.12,13.48h0c.29.29.44.51.37.8,0,.88-1.18,1.32-2.2,1.32a7.89,7.89,0,0,1-3.52-.73l-.52-.22-.51,3a11.91,11.91,0,0,0,4.18.73,7.24,7.24,0,0,0,5.35-1.83Z"/><path id="Trazado_465" data-name="Trazado 465" class="cls-6" d="M33.37,18h3.45l.73-2.2h4.7l.44,2.2h3.52L45,12.67l-4.4-4.25.22,1.17s.73,3.3.88,4H38.58c.29-.74,1.47-3.89,1.47-3.89s.29-.81.51-1.32"/></g></g></svg>